<svg xmlns="http://www.w3.org/2000/svg" xmlns:xlink="http://www.w3.org/1999/xlink" viewBox="0 0 1273 1163.4" xmlns:v="https://vecta.io/nano"><style><![CDATA[.M{fill:#ef8f6a}.N{fill:#0b1a3b}.O{fill:#56130f}.P{fill:#23835a}.Q{fill:#115c60}.R{fill:#cd3072}]]></style><path fill="#fff" stroke="#055168" stroke-width="3" stroke-miterlimit="10" d="M971.177 48.086V630.5c0 10.189-8.101 18.454-18.087 18.454H27.7c-9.987 0-18.088-8.265-18.088-18.454V48.086c0-10.197 8.101-18.454 18.088-18.454h925.389c9.987 0 18.088 8.257 18.088 18.454z"/><path fill="#005468" d="M972.602 18.143v48.575H8.132V18.143C8.132 8.118 16.257 0 26.274 0H954.46c10.017 0 18.142 8.118 18.142 18.143z"/><circle fill="#d45a56" cx="46.081" cy="33.359" r="8.446"/><circle fill="#fece2f" cx="79.363" cy="33.359" r="8.446"/><circle fill="#37d436" cx="113.485" cy="33.359" r="8.446"/><path opacity=".5" fill="#148057" d="M1038.2 373.612l-3.241-1.066c-.544-.177-.911-.72-.869-1.292.17-2.386-.035-4.773-.607-7.075-.134-.544.092-1.108.557-1.384l4.766-2.951a1.23 1.23 0 0 0 .466-1.575l-2.4-5.027a1.26 1.26 0 0 0-1.582-.635l-5.698 2.139a1.27 1.27 0 0 1-1.398-.332 21.65 21.65 0 0 0-2.528-2.33l-1.518-1.102a1.29 1.29 0 0 1-.565-1.221l.734-5.783a1.3 1.3 0 0 0-1.009-1.433l-5.253-1.13-.127-.021a1.28 1.28 0 0 0-1.476.847l-1.412 4.257c-.021.071-.05.134-.085.198-.24.438-.713.713-1.215.664-2.973-.247-5.959.092-8.79 1.01-.12.042-.24.056-.353.063a1.3 1.3 0 0 1-1.13-.607l-1.963-3.185a1.3 1.3 0 0 0-1.207-.6c-.149.014-.297.05-.439.12l-4.949 2.358c-.607.29-.903 1.009-.656 1.645l1.758 4.66c.17.459.063.975-.283 1.328l-1.398 1.61c-.834 1.052-1.554 2.161-2.168 3.311h-.007a1.28 1.28 0 0 1-1.307.678l-5.013-.628-.255-.028a1.26 1.26 0 0 0-1.398.988l-1.151 5.366c-.134.656.24 1.313.875 1.525l4.738 1.568c.522.169.883.664.875 1.215.028 2.316.403 4.625 1.13 6.828.183.565-.043 1.172-.544 1.482l-3.777 2.337a1.31 1.31 0 0 0-.488 1.681l2.365 4.971c.283.586.968.861 1.568.628l5.479-2.055a1.31 1.31 0 0 1 1.356.269l1.405 1.207a22.59 22.59 0 0 0 2.866 1.927c.452.254.706.749.636 1.257l-.769 6.03c-.078.664.36 1.278 1.009 1.419l5.387 1.158c.565.113 1.151-.169 1.405-.678.028-.057.057-.113.07-.169l1.744-5.26c.162-.487.593-.84 1.101-.883.042 0 .092-.007.134-.007.141.007.268.007.402-.007a21.55 21.55 0 0 0 4.752-.536c.515-.12 1.059.113 1.341.579l2.471 3.982c.346.565 1.074.777 1.674.487l1.101-.522 3.841-1.836c.6-.29.883-.988.649-1.617l-1.73-4.589c-.191-.494-.043-1.038.353-1.384a22.04 22.04 0 0 0 2.895-3.043c.664-.833 1.257-1.709 1.772-2.598l1.052.134 4.321.537c.536.078 1.045-.205 1.278-.671.049-.099.084-.205.105-.311l1.172-5.409c.143-.636-.231-1.271-.845-1.483zm-21.274 6.997l-.53.261c-1.68.798-4.554 1.122-6.369.748-.953-.205-1.842-.48-2.661-.826-8.219-3.467-9.991-13.677-4.053-19.699 1.045-1.052 2.323-1.97 3.841-2.711a8.73 8.73 0 0 1 1.102-.424c1.737-.53 4.003-.699 5.55-.36 11.826 2.613 13.711 17.49 3.12 23.011z"/><g class="N"><path d="M1001.325 698.483h0c-1.09.007-2.233-.781-2.554-1.759l-65.619-199.796c-.321-.977.302-1.775 1.391-1.781h0c1.089-.006 2.232.781 2.553 1.759l65.619 199.796c.321.977-.301 1.775-1.39 1.781zm52.884-.306h0c-1.089.006-2.233-.781-2.553-1.759l-65.62-199.796c-.321-.978.302-1.775 1.391-1.782h0c1.089-.006 2.233.781 2.554 1.759l65.619 199.796c.322.978-.301 1.776-1.391 1.782z"/><path d="M997.267 524.462l-53.106.307c-1.024.006-2.109-.741-2.41-1.66h0c-.302-.919.289-1.676 1.313-1.682l53.106-.307c1.024-.006 2.109.741 2.41 1.66h0c.301.92-.289 1.676-1.313 1.682zm11.457 34.884l-53.106.307c-1.024.006-2.109-.741-2.41-1.66h0c-.302-.919.289-1.676 1.313-1.682l53.106-.307c1.024-.006 2.109.742 2.41 1.661h0c.302.918-.29 1.676-1.313 1.681zm11.034 33.598l-53.106.307c-1.024.006-2.109-.741-2.41-1.66h0c-.302-.919.289-1.676 1.313-1.682l53.107-.307c1.024-.006 2.109.741 2.41 1.66h0c.301.919-.29 1.675-1.314 1.682zm12.422 37.823l-53.105.307c-1.024.006-2.109-.741-2.41-1.66h0c-.303-.919.289-1.676 1.312-1.682l53.106-.307c1.024-.006 2.109.741 2.41 1.66h0c.302.919-.289 1.675-1.313 1.682zm13.002 39.588l-53.106.307c-1.024.006-2.109-.741-2.411-1.66h0c-.302-.919.289-1.676 1.313-1.682l53.105-.307c1.024-.006 2.109.741 2.411 1.66h0c.303.919-.288 1.675-1.312 1.682zM930.861 405.421h0c-.416.081-.822-.194-.903-.61l-.85-4.39c-.08-.416.194-.822.61-.903h0c.416-.081.823.194.903.61l.85 4.391a.77.77 0 0 1-.61.902zm-2.808-13.225l.52-.101 1.229 6.345-.52.101z"/></g><path d="M928.547 356.349s-.502-4.37-1.561-6.041-5.062-2.744-5.316-2.498c-.784.759 2.316 3.444 2.437 4.433s-1.573.305-.759 2.234c.687 1.629 2.953 3.741 2.953 3.741l2.246-1.869z" class="M"/><path fill="#af243b" d="M926.616 355.862c1.461-1.146 1.771-1.124 1.771-1.124l14.818 12.74c1.314 1.042 21.596 6.923 21.596 6.923l3.223 16.487s-27.443-13.255-30.723-15.96c-5.419-4.47-12.256-16.98-12.256-16.98s.424-1.186 1.571-2.086z"/><path d="M965.237 514.316s-.232 5.635-1.314 7.005l-15.053.087c.105-.581.169-1.925 2.25-2.288 2.63-.458 5.719-2.292 7.311-5.769 1.676-3.657 6.806.965 6.806.965zm29.539-.812s1.049 7.486-.376 7.617c-.189.017-6.065.112-8.61.154-2.993.05-7.91-.056-7.91-.056-.618.026-1.023-.644-.708-1.176.345-.585 1.005-1.209 2.261-1.451 2.622-.505 6.99-2.43 8.521-5.933 1.612-3.686 6.822.845 6.822.845z" fill="#163560"/><path fill="#233862" d="M957.41 436.791s4.185 14.646 16.181 40.079 12.515 37.69 12.515 37.69 1.816.642 4.225.386c2.606-.278 4.445-1.441 4.445-1.441s-.777-30.272-6.443-43.107-6.821-47.956-6.821-47.956l-24.102 14.349z"/><path d="M950.69 424.189s-.333 22.678 3.591 50.523 2.089 40.795 2.089 40.795 1.04.757 4.239.744c3.745-.015 5.664-1.562 5.664-1.562s5.616-27.855 4.006-41.792 7.69-47.824 7.69-47.824l-27.279-.884z" class="N"/><path d="M969.234 371.119l-4.432 3.283-6.406-1.349.896-5.198.069-.385.615-3.469 5.982-2.982 2.231-1.112c-.006.039-.173 2.071-.196 2.368-.419 5.267 1.241 8.844 1.241 8.844z" class="M"/><path fill="#c62e45" d="M981.929 426.99c-1.449 6.629-32.467 3.719-32.062-.327.016-.135.096-2.008.208-4.532l.639-14.659c0-.012.004-.023.004-.035.559-5.634 1.095-11.145 1.129-14.744.031-3.121.462-6.312 1.033-9.21.528-2.674 1.176-5.102 1.739-6.994.396-1.333 1.137-2.505 2.115-3.426.697-.655 1.514-1.183 2.416-1.541.247-.104.497-.189.751-.262 3.649-1.06 8.702-2.37 10.07-1.969 3.707 1.091 6.463 7.618 8.412 15.939 3.65 15.571 4.495 37.44 3.546 41.76z"/><path fill="#e27452" d="M967.543 362.368c-1.313 2.514-6.209 4.688-8.252 5.487l.069-.385.615-3.469 5.982-2.982c1.323-.02 2.129.314 1.586 1.349z"/><path d="M957.068 363.651s10.794 3.367 12.787-3.387 4.729-10.869-2.078-13.304-8.913-.255-10.127 1.837-3.339 13.804-.582 14.854z" class="M"/><path d="M958.074 348.147s.688 7.86 2.314 7.518 3.1-.594 2.862 1.775-2.492 5.105 2.517 5.525 12.211-12.5 10.835-14.946c-3.972-7.057-24.267-8.482-18.528.128z" class="O"/><path fill="#af243b" d="M950.075 422.131l.639-14.659c0-.012.004-.023.004-.035l18.324-10.956c.001 0 .71 25.577-18.967 25.65z"/><path d="M935.51 399.204l-4.43-2.739c-.706-.219-3.022-.457-3.13-.275s-.425.741-.02.93.909.123.757.255-1.673-.593-2.024.184-.66 3.436 1.126 4.242 6.195.078 6.513.17c2.696.785 1.208-2.767 1.208-2.767z" class="M"/><path fill="#c62e45" d="M935.475 398.523s18.176 3.09 19.786 2.306c2.57-1.251-.998-19.693-.998-19.693s-.154-4.179 4.728-5.165c4.243-.857 8.335 2.321 8.335 2.321s3.722 3.331 3.247 7.025c-1.054 8.189-2.694 24.845-8.172 27.398-7.064 3.293-27.507-9.132-27.507-9.132s-.681-.833-.584-2.381c.087-1.365 1.165-2.679 1.165-2.679z"/><path d="M923.262 354.257l-1.349-2.747c-.186-.434.267-.34.714-.098s1.058 1.584 1.748 1.422c.549-.128-1.113 1.423-1.113 1.423z" class="M"/><path fill="#cc2229" d="M90.099 230.428l.474-.59c.706-.354 1.416 0 2.126.236.825-1.889.705-4.485 1.061-6.611l-2.481-.589c-1.416-.473-3.303.471-4.247-.828l-7.791-19.59-.589-.589-5.784 2.359-15.576 38.71c2.715-.589 5.193-2.006 7.905-2.596 4.958-5.312 10.621-9.561 17.349-10.149l5.429 12.51c2.006-.71 4.13-1.653 5.901-2.715l-3.777-9.558h0zm-18.527-3.776c1.063-3.895 2.949-7.907 4.366-11.802 1.299 2.596 2.478 5.546 3.423 8.496-2.715.825-5.311 2.006-7.789 3.306h0zm30.801 15.223l-5.31.118-.352-.473.233-39.414h5.31l.119 39.769h0zm26.791-25.844c2.83 3.423 3.067 8.615 1.413 12.626-2.477 6.96-9.793 10.977-16.166 13.102 0-2.244 1.182-4.605 1.771-6.849 4.486-2.476 9.795-6.843 9.795-12.742-.237-.943-1.181-1.536-1.891-2.126-4.481-.235-7.671 4.13-9.912 7.318-3.66 7.55-2.95 17.113-2.832 25.962l-5.782.119-.119-38.238 5.901-.118c.12 1.535-.236 3.306.237 4.722 4.248-4.956 12.273-7.436 17.585-3.776h0zm22.065-1.18c2.597 2.596 2.833 6.135 2.597 9.912-1.652.827-3.656.589-5.426 1.18 0-1.415.943-4.011-.829-5.191-2.594.352-2.83 3.42-4.246 5.074-1.771 4.368-2.833 8.968-3.897 13.573l-4.954 2.36c-.589-8.616-.237-17.468-.358-26.202l5.43-.235c.119 1.888-.236 3.775.237 5.429 1.534-2.598 4.01-6.138 7.435-6.609 1.535-.235 2.831.118 4.011.709h0zm67.624 2.243c2.238 2.594 1.887 6.609.236 9.438-3.186 4.131-7.789 5.785-12.748 6.376-.47-1.771.473-3.425.356-5.076 2.477-1.536 6.019-1.652 7.553-4.486.472-1.061-.237-2.36-1.534-2.122-3.307.235-6.019 3.068-8.028 5.781-1.06 1.771-1.531 4.366-.708 6.492.119 1.296 1.652 2.478 2.833 3.068 2.951.943 6.139-.238 8.497-2.124.708 1.651 1.063 3.777 1.652 5.547-2.712 2.124-6.371 3.892-10.265 2.714-3.423-.473-6.848-2.834-8.379-6.138-2.361-6.136 0-13.101 5.074-17.701 4.13-3.07 10.975-6.02 15.461-1.769zm-23.013-1.063c-.237 1.77-1.302 3.54-1.89 5.311-2.36.235-6.134-1.3-7.789 1.296.827 4.131 6.604 3.07 7.789 7.319.946 2.714.588 6.254-1.06 8.495-4.486 5.077-11.801 5.428-18.411 4.367.236-1.533.943-3.184 1.3-4.953 4.482.232 9.909.943 12.508-3.425-.119-4.839-6.372-3.425-7.79-7.789-.59-1.654-1.413-3.777-.472-5.666 1.18-3.54 4.957-4.839 8.262-5.664 2.713-.119 5.192.354 7.553.709h0zm-27.144 2.005c-4.956 2.478-9.558 7.672-10.148 13.335.235 2.243.824 4.839 3.185 5.9 1.536.947 3.423.356 4.719-.47 2.952-2.243 4.839-5.664 3.777-9.089-.352-1.417-1.886-2.476-2.948-3.304l2.005-4.956c2.477.235 4.603 2.478 5.782 4.601 1.654 4.602 1.888 10.503-1.297 14.514-3.542 4.133-9.087 5.903-14.399 4.369-2.241-.708-4.837-2.716-5.664-5.071-2.242-5.548-.594-11.924 3.54-15.935 3.303-3.54 7.554-5.075 11.683-6.138l-.235 2.244h0z"/><path d="M112.035 204.996c-.146-.531-.431-1.531-1.961-1.531-.89 0-2.2.592-2.2 3.099 0 1.593.63 3.027 2.2 3.027 1.024 0 1.739-.581 1.961-1.666h1.852c-.371 1.926-1.629 3.27-3.851 3.27-2.36 0-4.051-1.593-4.051-4.653 0-3.101 1.788-4.683 4.072-4.683 2.656 0 3.729 1.829 3.829 3.137h-1.851zm11.229 1.988v3.977h-1.854v-8.866h1.854v3.357h3.456v-3.357h1.851v8.866h-1.851v-3.977h-3.456zm14.756-.457c0-2.483 1.408-3.1 2.407-3.1s2.41.616 2.41 3.1-1.41 3.1-2.41 3.1-2.407-.618-2.407-3.1zm-1.854 0c0 4.161 3.089 4.667 4.261 4.667s4.261-.506 4.261-4.667-3.087-4.669-4.261-4.669-4.261.508-4.261 4.669h0zm21.835-1.531c-.149-.531-.432-1.531-1.965-1.531-.888 0-2.196.592-2.196 3.099 0 1.593.629 3.027 2.196 3.027 1.027 0 1.746-.581 1.965-1.666h1.851c-.368 1.926-1.627 3.27-3.851 3.27-2.359 0-4.055-1.593-4.055-4.653 0-3.101 1.792-4.683 4.078-4.683 2.655 0 3.731 1.829 3.828 3.137h-1.851zm10.891 1.531c0-2.483 1.41-3.1 2.41-3.1s2.407.616 2.407 3.1-1.406 3.1-2.407 3.1-2.41-.618-2.41-3.1h0zm-1.851 0c0 4.161 3.089 4.667 4.261 4.667s4.262-.506 4.262-4.667-3.089-4.669-4.262-4.669-4.261.508-4.261 4.669h0zm18.029 2.827h4.41v1.607h-6.26v-8.866h1.85v7.259h0zm15.378-5.26h.024l1.1 3.508h-2.26l1.136-3.508zm-1.633 5.039h3.277l.569 1.828h2.013l-3.127-8.866h-2.135l-3.164 8.866h1.952l.615-1.828zm15.872 1.828h-1.851v-7.299h-2.683v-1.566h7.215v1.566h-2.681v7.299z"/><path d="M329.64 238.449l5.947-32.159h11.851l-4.097 22.203h9.868l-1.806 9.956H329.64zm48.502-11.895l-2.158 11.586a19.21 19.21 0 0 1-2.906.793 15.48 15.48 0 0 1-2.909.265c-1.939 0-3.878-.308-5.596-.969-1.806-.617-3.348-1.542-4.802-2.775-1.542-1.322-2.731-2.996-3.569-4.978a15.55 15.55 0 0 1-1.321-6.3c0-2.423.395-4.67 1.144-6.74.698-2.102 1.823-4.037 3.305-5.683 1.674-2.07 3.788-3.613 6.256-4.67a19.4 19.4 0 0 1 7.931-1.674c1.497 0 2.95.221 4.316.485 1.322.309 2.643.75 3.92 1.366l-2.025 10.749a16.27 16.27 0 0 0-3.217-1.365c-1.101-.308-2.114-.486-3.126-.486-1.984 0-3.613.618-4.978 1.895-1.278 1.278-1.895 2.952-1.895 4.934 0 1.718.529 3.04 1.497 4.009 1.013 1.014 2.423 1.454 4.053 1.454a9.62 9.62 0 0 0 2.996-.486c1.103-.352 2.116-.793 3.084-1.41h0zm38.46 11.939l5.904-32.115h11.805l3.701 10.265c.089.132.133.396.263.704.838 2.247 1.41 4.141 1.72 5.771l3.083-16.74h11.675l-5.948 32.115H437l-5.904-16.564c-.089 1.541-.398 3.964-1.013 7.312l-.089.264-1.63 8.987-11.762.001h0 0z" class="P"/><path fill="#78ab4b" d="M294.001 238.361h12.423l8.898-19.56 1.409 19.516h11.147l-4.142-31.455h-12.732l-17.003 31.499h0z"/><path d="M309.992 205.1l15.11.044 4.626 33.437.749-4.449-4.273-30.265h-17.093l-20.045 37.093 19.472.089 4.45-9.56.617 9.604 134.849-.044.131-1.145-133.613-.177-.837-14.58-6.388 14.58h-16.432l18.677-34.627h0z" class="P"/><path d="M407.174 246.952c.177-.53-1.32-.22-1.32-.22l-1.543.176c-.838.089-1.541.264-1.541.264-.705.221-.529.793-.529.793.175.353.75 0 .75 0 .352-.176 1.057-.397 1.057-.397.529-.132.529.134.529.134.044.175-.044.703-.044.703-.177 1.366-1.014 2.115-1.014 2.115-.527.486-1.277.133-1.277.133-1.19-.617-1.234-2.379-1.234-2.379.044-2.159.794-3.127.794-3.127.659-.968 1.541-.925 1.541-.925.44 0 .221.661.221.661-.091.353.044.529.044.529.307.308.57-.089.57-.089.221-.528.574-1.145.574-1.145.219-.397 0-.486 0-.486-.221-.175-.485.09-.485.09-.177.176-.354 0-.354 0-.221-.308-.75-.221-.75-.221-1.364.265-1.939 1.587-1.939 1.587-.748 1.542-.617 3.524-.617 3.524.177 1.762 1.366 2.555 1.366 2.555 1.234.749 2.293-.793 2.293-.793.792-1.058.659-3.084.659-3.084.44-.09 1.322-.045 1.322-.045.794.043.927-.353.927-.353h0zm19.824-2.733s-.485 0-.44.837l-.044 1.014s.044.264.133.308c0 0 .087.132.087.485l-.131 2.731s-.089.881.219.881c0 0 .398.132.307-.704l-.042-2.908s0-.307.089-.397c0 0 .089-.176.089-.44 0 0-.044-.353 0-1.057-.001 0 .129-.705-.267-.75h0zm3.304 3.834s-.792.176-1.586.66c0 0-.485.397-.485.53 0 0-.089.264.354-.044 0 0 .527-.529 1.805-.704 0 0 .572.043.617-.265 0-.002 0-.31-.705-.177zm19.296 1.453s-.354-.353-.617-.043c0 0-.221.307-.044.571 0 0 .398.397.705.177.001.001.264-.397-.044-.705h0zm-.353-.748c.265-.133.177-1.191.177-1.191l.044-3.304c0-.661-.352-.44-.352-.44-.398.308-.354.837-.354.837l.044 2.775c-.044.353-.044 1.014-.044 1.014.089.529.485.309.485.309z"/><path d="M399.112 205.673c-2.291.088-4.537.661-6.565 1.586-2.421 1.101-4.493 2.643-6.123 4.625-1.453 1.719-2.512 3.613-3.259 5.683s-1.101 4.317-1.101 6.696c0 2.247.44 4.317 1.277 6.256.836 1.984 1.982 3.657 3.522 4.978 1.421 1.263 3.086 2.223 4.891 2.82 1.851.616 3.92.968 6.167.968l1.19-.044c2.423-.132 4.625-.661 6.698-1.586 2.333-1.014 4.405-2.599 6.123-4.67 1.413-1.647 2.504-3.546 3.217-5.596.748-2.069 1.099-4.36 1.099-6.739 0-4.45-1.453-8.106-4.405-10.882-2.908-2.775-6.783-4.141-11.498-4.141-.397.002-.837.002-1.233.046h0zm0 22.907h-.44c-1.63 0-2.908-.485-3.876-1.454-.926-.969-1.366-2.334-1.366-4.009 0-1.983.529-3.568 1.718-4.889 1.101-1.146 2.423-1.806 3.965-1.894h.529c1.543 0 2.775.44 3.79 1.453.968 1.058 1.453 2.335 1.453 3.921 0 1.938-.572 3.613-1.806 4.934-1.104 1.145-2.425 1.807-3.967 1.938z" class="P"/><path d="M407.968 249.99a.47.47 0 0 1-.307-.132s-.221-.177.175-.486l.133-.132c.309-.264 1.013-1.014 1.057-2.335 0 0-.044-1.102-.968-.529 0 0-.044 0-.089.043-.265.265-1.057 1.058-1.057 2.997 0 0 0 1.1 1.057 1.233h.175s.882-.045 1.366-1.277l.044.617s0 .308.309.221c0 0 .175-.133.175-.398 0 0 .177-1.145.396-1.805 0 0 .221-.882.354-.22v.882s0 1.365.221 1.762c0 0 .307.66.792.043 0 0 .309-.571.396-1.012 0 0 .135-.573.177-.044 0 0 .177.881.44 1.188 0 0 .398.398.794-.088l.396-.529s.177-.353.265.044c0 0 .175.571.794.571.089.045.133.045.219 0 0 0 .705 0 1.19-.881 0 0 .309-.705.354-1.014 0 0 .175-.793-.177-.263 0 0-.177.308-.221.529 0 0-.352 1.013-1.277 1.057 0 0-.046 0-.089-.044-.116-.005-.226-.052-.309-.132 0 0-.175-.133.089-.353l.221-.221c.352-.307.968-1.013 1.057-1.937 0 0 .177-1.102-.485-1.102 0 0-.265 0-.572.22a3.24 3.24 0 0 0-.485.661l-.705 2.115s-.529 1.454-.881.705c0 0-.221-.617-.265-1.366l.044-.925s0-.263.263-.263h1.057s.352.043.352-.353c0 0 .135-.265-.352-.308l-1.013.043s-.177.089-.087-.219l.175-1.014s.133-.705-.175-.793c0 0-.309-.089-.398.571l-.177 1.322s-.044.176-.177.132l-.44.044s-.265 0-.44.396c0 0-.177.309.265.265h.529s.352-.088.177.264c0 0-.442 1.41-.705 1.894 0 0-.309.661-.398.044l-.089-1.762s.044-1.233-.307-1.41c0 0-.307-.132-.44.353l-.309 1.101s-.175.486-.133-.044c0 0 0-.307.044-.837 0 0 .133-.617-.087-.704 0 0-.354-.133-.398.617l.044 1.233s-.089.969-.661 1.498c.001.003-.483.356-.923.267h0zm7.093-1.321l-.221.22c-.572.53-.352-.53-.352-.53.089-.528.352-.967.572-1.233l.219-.22c.485-.352.442.352.442.352-.043.662-.396 1.147-.66 1.411h0zm-7.093 0l-.221.22c-.572.53-.352-.53-.352-.53.089-.528.352-.967.572-1.233l.219-.22c.485-.352.398.352.398.352.001.662-.353 1.147-.616 1.411h0zm11.895-2.996c-.265 0-.53.132-.838.485 0 0-.661.838-.661 2.863 0 0-.044 1.322.882 1.63 0 0 .219.133.617-.088.131-.045.352-.221.527-.441l.485-1.058s.135-.485.177-.088c0 0 .044.749.309 1.321 0 0 .263.486.617.044 0 0 .175-.396.263-.044a.73.73 0 0 0 .661.397c.177 0 .354-.044.617-.221 0 0 .617-.352 1.013-1.321 0 0 .133-.352.133-.617 0 0 0-.529-.177-.133 0 0-.307.926-.57 1.146 0 0-.486.572-1.014.44-.044-.043-.133-.043-.177-.088 0 0-.263-.177 0-.397 0 0 .089-.043.177-.133.219-.22.617-.661.794-1.189 0 0 .307-.705.263-1.41 0 0-.175-.969-1.057-.308l-.044.044s-.792.749-1.013 2.115c0 0-.044.529 0 .882 0 0 .044.441-.221.089 0 0-.263-.176-.307-1.322 0 0 0-1.101.133-1.894l.307-1.938s.309-.838-.133-.925c0 0-.263 0-.44.617 0 0-.133.968-.133 1.762 0 0 .044.616-.263.219-.002.002-.4-.483-.927-.439h0zm3.039 2.996c-.133.133-.263.22-.263.22-.572.53-.309-.53-.309-.53.089-.528.352-.967.572-1.233l.219-.22c.487-.352.398.352.398.352 0 .662-.352 1.147-.617 1.411h0zm-3.039 1.234c-.091.044-.135.088-.135.088-.792.397-.924-1.278-.924-1.278-.089-1.233.442-1.982.442-1.982.175-.265.396-.353.617-.353.263 0 .485.132.485.132.792.441.527 1.278.527 1.278-.042.264-.396 1.233-.396 1.233-.175.485-.485.75-.616.882h0zm9.03-4.891c-.089.044-.133.089-.221.133 0 0-.705.22-.792 1.587 0 0-.09 1.101.615 1.321 0 0 .177.089.398 0 .133 0 .263-.089.352-.22 0 0 .221-.53.352-.265 0 0 .133.53.617.265 0 0 .485-.308.574-.705 0 0 .131-.617-.133-.661 0 0-.221-.088-.177.308 0 0 .044.133 0 .221 0 0-.265.705-.617.353 0 0-.177-.134-.133-.617 0 0 .044-.397.133-.573 0 0 .044-.132.133-.176 0 0 .219-.22.044-.485 0 0-.265-.177-.309-.308.001-.001-.307-.354-.836-.178h0zm0 2.555c-.265.089-.442-.175-.442-.175-.307-.353-.131-1.235-.131-1.235.175-.396.396-.616.572-.704.133-.044.219-.089.219-.089.661-.044.354 1.057.354 1.057-.044.177-.044.397-.044.397 0 .221-.265.573-.265.573-.087.089-.176.133-.263.176h0zm7.576 2.247c-.042 0-.042-.043-.042-.043l-.309-.529c-.089-.264 0-.396 0-.396l.352-.353c.052-.053.112-.098.178-.134.57-.616.748-2.025.748-2.025.177-1.718-.177-2.511-.177-2.511-.263-.441-.529-.353-.75-.221l-.175.177c-.307.353-.529 1.498-.529 1.498-.133.572-.307 2.863-.307 2.863 0 .485-.177.881-.177.881-.398.705-.926.882-.926.882-.924.263-1.013-.705-1.013-.705 0-1.586.263-2.07.263-2.07.265-.617.661-.571.661-.571.442 0 .309.616.309.616.044.396.352.308.352.308.354-.177.133-.881.133-.881-.219-.705-.485-.661-.485-.661-.838-.089-1.366 1.013-1.366 1.013-.485 1.365-.307 2.555-.307 2.555.263 1.145 1.057 1.058 1.057 1.058.838-.09 1.499-1.145 1.499-1.145.175-.53.263 0 .263 0 0 .307.396.881.396.881a1.49 1.49 0 0 0 .352.265c.265.088.398 0 .398 0 .529-.177.882-.969.882-.969.219-.53.263 0 .263 0 0 .088.044.264.044.264.307.968 1.19.882 1.19.882.082-.002.16-.033.221-.089.529-.177.748-.749.748-.749.133-.44.307-.044.307-.044 0 .132.221.44.221.44.354.397.882.044.882.044.263-.177.794-1.101.794-1.101.175-.396.087-.572.087-.572-.087-.22.089-.133.089-.133.221.089 1.851.441 1.851.441.529.176.131.704.131.704-.307.397-1.146.485-1.146.485-.485.089-.396-.176-.396-.176.044-.264-.175-.396-.175-.396-.398-.176-.661.308-.661.308-.177.661.529.661.529.661 1.146 0 1.718-.309 1.718-.309.924-.529.881-1.145.881-1.145-.044-.66-1.364-.793-1.364-.793-.309-.044-1.146-.264-1.146-.264-.396-.22-.044-.486-.044-.486.75-.396 1.673-.571 1.673-.571.572-.089.485.219.485.219.089.353.529.134.529.134.352-.353.044-.749.044-.749-.485-.265-1.586 0-1.586 0-.97.396-1.673.881-1.673.881-.354.396-.177.705-.177.705.044.308 0 .617 0 .617-.044.529-.485.881-.485.881-.442.308-.661-.219-.661-.219-.177-.573-.044-1.807-.044-1.807.044-.353.133-.307.133-.307.131-.045.263-.177.263-.177.177-.397-.352-1.014-.352-1.014-.398-.571-.968-.485-.968-.485-.177 0-.354 0-.485.044-.617.177-.882.572-.882.572-.572.617-.794 1.938-.794 1.938-.042.573-.219.925-.219.925-.089.132-.442.572-.442.572-.31.307-.528.219-.663.086h0zm2.998.221c-.442.22-.794-.221-.794-.221-.354-.44-.354-1.586-.354-1.586.089-1.189.794-1.718.794-1.718.133-.089.265-.132.354-.176.36-.106.749-.041 1.055.176.221.177 0 .441 0 .441-.131.089-.131.572-.131.572 0 .264-.044.352-.044.352-.044.133-.044.661-.044.661 0 .794-.529 1.234-.529 1.234-.088.133-.176.22-.307.265zm-2.998-2.247c-.035.114-.114.209-.219.264 0 0-.307.264-.352-.133 0 0-.089-1.101.175-2.247 0 0 .177-.881.265-1.013 0 0 .044-.22.131-.397.135-.176.309-.264.487.088 0 0 .396.661-.089 2.6 0 .002-.132.485-.398.838h0zm10.178 2.202c-.117.003-.23-.045-.309-.132 0 0-.131-.133.091-.353 0 0 .087-.043.219-.221.516-.587.866-1.302 1.013-2.07 0 0 .133-1.013-.661-.968 0 0-.131 0-.352.176-.265.177-.572.53-.881 1.322 0 0-.354 1.102-.089 2.159 0 0 .219.703.968.703h.265s.792-.175 1.144-1.056l.221-.617s.177-.661 0-.661c0 0-.133-.132-.221.308 0 0-.219 1.014-1.057 1.366 0 .001-.174.089-.351.044h0zm0-1.277c-.089.045-.089.09-.089.09-.089.132-.352.307-.352.307-.398.221-.133-.882-.133-.882.133-.661.396-1.014.572-1.189a.5.5 0 0 1 .177-.177c.529-.353.44.44.44.44-.087.662-.483 1.191-.615 1.411h0z"/><path d="M293.045 245.753c-.387-.241-.953-.393-1.436-.393-.958 0-1.751.635-1.904 1.606-.147.927.335 1.129 1.08 1.352.254.076.724.197.668.546-.053.336-.387.482-.679.482-.425 0-.759-.221-1.026-.494l-.692 1.002c.434.342.992.547 1.595.547.482 0 1.005-.135 1.43-.452.432-.324.623-.813.698-1.289.123-.774-.338-1.111-.973-1.308l-.302-.094c-.205-.07-.524-.178-.48-.457.042-.267.368-.4.597-.4a1.11 1.11 0 0 1 .774.318l.65-.966h0zm3.258-.425c-1.376 0-2.807 1.015-3.036 2.463-.245 1.548.692 2.642 2.228 2.642s2.82-1.094 3.066-2.642c.228-1.447-.881-2.463-2.258-2.463zm-.19 1.206c.742 0 1.256.603 1.151 1.263-.131.825-.835 1.428-1.578 1.428s-1.256-.603-1.126-1.428c.104-.66.811-1.263 1.553-1.263h0zm4.634-1.047h-1.245l-.758 4.786h2.735l.167-1.053h-1.492l.593-3.733zm4.805 0l-.4 2.52c-.098.621-.25 1.302-1.049 1.302s-.737-.681-.639-1.302l.4-2.52h-1.245l-.425 2.691c-.099.616-.17 1.226.233 1.689.338.394.944.534 1.503.534s1.209-.14 1.671-.534c.549-.463.671-1.073.769-1.689l.426-2.691h-1.244 0zm5.432.114a2.66 2.66 0 0 0-1.096-.24c-.673 0-1.399.291-1.945.774a2.98 2.98 0 0 0-.982 1.751c-.112.712.031 1.333.482 1.808.423.452 1.018.706 1.685.706.387 0 .701-.095 1.132-.223l.238-1.492c-.31.311-.747.508-1.153.508-.774 0-1.21-.546-1.09-1.301.119-.743.726-1.327 1.486-1.327.426 0 .809.183 1.009.527l.234-1.491h0zm2.031-.114h-1.244l-.759 4.786h1.244l.759-4.786h0zm3.242-.159c-1.377 0-2.808 1.015-3.036 2.463-.245 1.548.691 2.642 2.226 2.642s2.821-1.094 3.066-2.642c.23-1.447-.878-2.463-2.256-2.463h0zm-.19 1.206c.742 0 1.257.603 1.152 1.263-.132.825-.836 1.428-1.578 1.428s-1.257-.603-1.126-1.428c.104-.66.809-1.263 1.552-1.263zm2.631 3.738h1.245l.464-2.931h.013l1.814 2.931h1.244l.759-4.786h-1.244l-.463 2.926h-.013l-1.815-2.926h-1.244l-.76 4.786zm8.906-3.731l.167-1.054h-2.723l-.758 4.786h2.723l.167-1.053h-1.479l.13-.825h1.403l.168-1.053h-1.403l.126-.8 1.479-.001h0zm4.016-.788c-.387-.241-.953-.393-1.436-.393-.958 0-1.75.635-1.904 1.606-.147.927.336 1.129 1.08 1.352.255.076.724.197.668.546-.053.336-.387.482-.679.482-.425 0-.758-.221-1.026-.494l-.692 1.002c.434.342.992.547 1.595.547.483 0 1.005-.135 1.43-.452.432-.324.623-.813.698-1.289.123-.774-.337-1.111-.973-1.308l-.302-.094c-.205-.07-.524-.178-.48-.457.042-.267.368-.4.597-.4a1.11 1.11 0 0 1 .774.318l.65-.966h0zm2.247 4.519h1.764c1.327 0 2.597-1.047 2.81-2.393s-.718-2.393-2.051-2.393h-1.765l-.758 4.786h0zm1.835-3.731h.292c.799 0 1.289.483 1.152 1.339-.147.933-.847 1.34-1.59 1.34h-.28l.426-2.679h0zm6.252 0l.168-1.054h-2.723l-.759 4.786h2.723l.167-1.053h-1.477l.13-.825h1.402l.168-1.053h-1.403l.127-.8 1.477-.001h0zm6.513-.94a2.66 2.66 0 0 0-1.096-.24c-.673 0-1.398.291-1.945.774a2.98 2.98 0 0 0-.982 1.751c-.112.712.031 1.333.482 1.808.424.452 1.018.706 1.685.706.388 0 .701-.095 1.132-.223l.238-1.492c-.31.311-.747.508-1.153.508-.774 0-1.21-.546-1.09-1.301.119-.743.725-1.327 1.486-1.327.426 0 .809.183 1.009.527l.234-1.491h0zm2.031-.114h-1.244l-.759 4.786h2.736l.167-1.053h-1.492l.592-3.733h0zm4.204 3.954l.179.832h1.326l-1.044-4.786h-1.358l-2.599 4.786h1.32l.462-.832h1.714zm-.186-.953h-1.034l.755-1.523h.013l.266 1.523zm5.918-2.735c-.387-.241-.953-.393-1.436-.393-.958 0-1.751.635-1.905 1.606-.146.927.336 1.129 1.081 1.352.254.076.723.197.668.546-.053.336-.387.482-.679.482-.425 0-.758-.221-1.026-.494l-.692 1.002c.434.342.992.547 1.595.547.482 0 1.004-.135 1.43-.452.431-.324.623-.813.698-1.289.123-.774-.338-1.111-.973-1.308l-.302-.094c-.205-.07-.524-.178-.48-.457.042-.267.368-.4.597-.4a1.11 1.11 0 0 1 .774.318l.65-.966h0zm3.384.788l.167-1.054h-2.723l-.759 4.786h2.723l.167-1.053h-1.479l.13-.825h1.403l.167-1.053h-1.402l.126-.8 1.48-.001h0zm2.068 3.731h1.238l.836-2.754h.013l.661 2.754h.495l1.586-2.754h.012l-.088 2.754h1.245l.035-4.786h-1.238l-1.434 2.559-.566-2.559h-1.225l-1.57 4.786zm10.191-4.785l-.4 2.52c-.099.621-.251 1.302-1.049 1.302s-.738-.681-.639-1.302l.4-2.52h-1.245l-.425 2.691c-.099.616-.17 1.226.232 1.689.338.394.945.534 1.505.534s1.208-.14 1.67-.534c.549-.463.67-1.073.769-1.689l.425-2.691h-1.243 0zm1.271 4.785h1.243l.464-2.931h.013l1.814 2.931h1.245l.759-4.786h-1.245l-.462 2.926h-.013l-1.816-2.926h-1.243l-.759 4.786zm5.591 0h1.764c1.326 0 2.598-1.047 2.81-2.393s-.718-2.393-2.052-2.393h-1.764l-.758 4.786zm1.834-3.731h.293c.799 0 1.289.483 1.153 1.339-.147.933-.847 1.34-1.59 1.34h-.28l.424-2.679h0zm4.941-1.054h-1.243l-.759 4.786h1.245l.757-4.786zm3.117 3.954l.18.832h1.326l-1.044-4.786h-1.359l-2.598 4.786h1.32l.462-.832h1.713zm-.184-.953h-1.035l.755-1.523h.013l.267 1.523zm4.081-3.001h-1.245l-.757 4.786h2.734l.168-1.053h-1.492l.592-3.733h0z" class="P"/><path fill="#d52b1e" d="M726.934 213.645c-5.278 3.482-10.804 5.837-11.832 6.264l26.06 18.252c.027.019.043.05.042.082v.001c0 .033-.017.064-.045.082l-1.163.766a.1.1 0 0 1-.111-.001l-9.517-6.551c-3.631-2.453-7.637-1.933-10.357-1.063-2.611.833-4.535 2.11-5.011 2.443l19.817 13.851c.42-.394 3.271-2.998 9.262-6.694 6.318-3.892 10.043-5.252 10.905-5.54l-26.108-18.283a.1.1 0 0 1-.043-.082v-.001c0-.033.017-.064.044-.082l1.111-.737a.1.1 0 0 1 .11 0c.035.023 3.535 2.321 9.828 6.751 5.9 4.151 14.129-.827 15.26-1.549l-20.131-14.024c-.494.42-4.14 3.496-8.121 6.115z"/><path fill="#003478" d="M824.592 216.698v5.816h12.976c.055.001.099.045.1.1a.1.1 0 0 1-.032.073l-13.5 12.605v4.901h27.275v-5.841h-13.579a.1.1 0 0 1-.093-.063c-.015-.038-.005-.082.026-.11l13.694-12.572v-4.91l-26.867.001h0zm-10.929 0v14.925c0 2.181-1.914 3.483-5.121 3.483-3.253 0-5.119-1.291-5.119-3.541v-14.866h-8.374v15.343c0 3.263.832 5.309 2.697 6.631 2.041 1.449 5.472 2.124 10.796 2.124s8.756-.675 10.797-2.124c1.866-1.323 2.697-3.369 2.697-6.631v-15.343c.001 0-8.373-.001-8.373-.001zm58.849 0v14.865c0 2.219-1.912 3.543-5.118 3.543-3.256 0-5.123-1.291-5.123-3.541v-14.866h-8.372v15.343c0 3.263.832 5.309 2.698 6.631 2.042 1.449 5.472 2.124 10.798 2.124s8.754-.675 10.797-2.124c1.865-1.323 2.698-3.369 2.698-6.631v-15.343h-8.378zm42.238 0v23.496h8.748v-23.496h-8.748zm-13.017 0c-.057.047-9.483 8.155-9.483 8.155-.029.026-.071.031-.107.015s-.059-.051-.059-.091v-8.079h-8.746v23.496h8.746v-8.303c0-.039.023-.076.061-.091s.079-.008.108.019l8.806 8.375h11.72l-12.886-11.982c-.021-.019-.032-.045-.032-.073v-.002c0-.028.012-.055.036-.074l13.298-11.365h-11.462zm-136.88 7.078c0 2.555.988 4.288 3.109 5.452 1.951 1.071 4.883 1.739 9.804 2.233l.93.08c2.133.17 4.55.362 4.55 2.11 0 1.197-1.299 1.858-3.657 1.858-1.152 0-2.843-.291-4.26-2.773h-10.976c.025 2.721 1.033 4.589 3.175 5.864 2.417 1.44 6.356 2.139 12.043 2.139 12.682 0 13.668-5.907 13.668-7.717 0-4.198-3.741-6.719-11.438-7.705l-1.209-.153c-3.512-.437-6.287-.781-6.287-2.014 0-.477.158-.876.468-1.186.811-.811 2.485-.808 3.199-.808h.067c.657 0 2.909.197 4.447 2.676h9.947c-.07-4.962-5.292-7.807-14.361-7.807-11.931-.001-13.219 5.419-13.219 7.751h0z"/><path fill="#ed1b2d" d="M556.656 232.665c0-8.722 7.073-15.801 15.795-15.801s15.795 7.079 15.795 15.801c0 8.727-7.073 15.795-15.795 15.795a15.8 15.8 0 0 1-15.795-15.795m15.784 7.248a7.243 7.243 0 1 0-7.237-7.243 7.23 7.23 0 0 0 7.237 7.243z"/><path fill="#006bb6" d="M512.299 206.839h13.208l7.466 25.019h.109l7.581-25.019h12.842v40.749h-8.492V218.77h-.115l-8.149 28.818h-7.805l-8.039-28.818h-.115v28.818h-8.492v-40.749zm114.752 8.033h8.492v-8.034h-8.492v8.034zm0 32.715h8.492v-29.855h-8.492v29.855zm13.203 0h8.492v-40.749h-8.492v40.749zm-48.444 0h8.487v-2.647c2.183 2.412 4.939 3.335 8.154 3.335 8.552 0 15.042-7.172 15.042-15.555 0-8.372-6.435-15.664-15.042-15.664-3.1 0-5.791.971-8.154 2.985v-13.203h-8.487v40.749zm8.591-14.916a7.24 7.24 0 0 1 7.237-7.243c4.001 0 7.243 3.247 7.243 7.243a7.24 7.24 0 1 1-14.48 0z"/><path d="M327.617 330.941c0-2.713-.13-3.615-3.362-3.615-.642 0-1.263-.519-1.263-.945 0-.368.736-.664.988-.664h10.931c.31 0 1.003.144 1.003.584 0 .339-.411 1.025-.664 1.025h-.613c-2.655 0-3.095-.202-3.095 3.615v10.274c0 3.579.476 4.091 3.687 4.091 3.297 0 6.277-1.934 7.785-4.805.137-.274.844-1.789 1.205-1.789s.974.592.599 1.371l-3.6 8.384c-.592 1.371-1.479.887-1.544.426-.339-1.263-1.198-1.631-4.336-1.631H323.93c-.44 0-.772-.13-.772-.368 0-.613.397-1.003 1.053-1.003 2.987 0 3.405-1.645 3.405-4.351v-10.599zm38.839-5.231c.31 0 .628.238.628.671 0 .476-.685.599-1.003.599-1.364 0-3.023.433-3.023 6.255v8.03c0 4.113-3.167 6.602-8.139 6.602-8.838 0-8.543-5.216-8.543-5.952V331.54c0-4.812-.606-4.56-3.838-4.56-.657 0-.924-.202-.924-.642 0-.368.397-.628.649-.628h12.424c.245 0 .541.26.541.628 0 .433-.339.642-.815.642-3.593 0-4.149.866-4.149 4.56v10.44c0 3.225 1.696 4.444 5.628 4.444 2.374 0 5.368-1.465 5.368-5.397v-6.27c0-7.078-.721-7.771-3.478-7.771-.303 0-1.14-.173-1.14-.599 0-.368.224-.671.505-.671l9.309-.006zm6.623 4.012c-1.053-1.472-2.215-2.742-4.286-2.742-.303 0-1.198-.224-1.198-.599 0-.426.455-.671.736-.671h10.873c.245 0 .887.209.887.671 0 .339-.382.599-.685.599-.808 0-2.569-.094-2.569 1.198 0 .801.851 1.717 1.284 2.403l2.482 3.081 1.631-1.97c.938-1.14 2.143-2.439 2.172-3.651.007-.628-1.457-1.032-2.749-1.032-.346.036-.75-.224-.75-.592 0-.44.447-.7.758-.7h9.61c.924 0 .924 1.27.022 1.27-1.19 0-3.507.664-7.951 5.916l-1.883 2.222 5.895 7.929c2.186 2.973 2.799 2.857 3.752 2.857.303 0 .794.368.794.685 0 .483-.296.685-.628.685h-10.238c-.317 0-.75-.231-.75-.621 0-.404.851-.75 1.154-.75.895 0 2.302.152 2.302-1.082 0-.613-.433-1.385-.75-1.876l-3.752-5.31c-1.118 1.696-4.459 5.195-4.459 6.912 0 1.234.642 1.241 1.811 1.364.245 0 1.183.152 1.183.527 0 .426-.137.844-.772.844H367.2c-.577 0-1.039-.195-1.039-.62 0-.404.426-.736.606-.75 3.427-.166 6.263-3.016 8.175-5.808l3.254-3.86-5.117-6.529zm54.957 7.951l2.958-7.634 2.821 7.634h-5.779zm38.673-10.693c.26 0 .592-.216.592-.649 0-.375-.31-.62-.548-.62h-8.694c-.317 0-.736.202-.736.62 0 .397.483.649.801.649 2.67 0 3.333 1.118 3.333 4.748v9.733h-.058l-6.71-10.397c-.303-.505-2.569-4.033-2.713-4.625-.087-.339 0-.736-.491-.736h-7.496c-.274 0-.801.224-.801.62 0 .52.519.649.924.649 2.323 0 2.648.151 2.648 3.413v9.185c0 5.758-1.053 6.328-2.987 6.328-2.807 0-2.713-.043-5.397-7.006l-5.419-14.084c-.065-.216-.18-.685-.52-.685-.13 0-.397-.202-1.147.599-.541.57-2.395 1.219-4.048 1.652-.195.036-.592.123-.592.599 0 .426.649.397.924.491.397.123 1.429-.173 1.948.678l-1.71 4.856-3.463 8.73c-1.017 2.338-2.439 3.831-4.639 4.163-2.958.462-3.543-1.039-3.543-3.759v-11.739c0-2.713.7-3.413 3.694-3.413.642 0 .924-.332.924-.765 0-.368-.361-.541-.606-.541h-6.443c-1.573 0-1.696-.173-2.251 1.053l-5.7 12.165-2.684-6.4c-.397-.988-2.294-5.455-2.294-5.455-.693-1.328-.577-1.328-2.237-1.328l-4.856.007c-.245 0-.866.216-.866.592 0 .426.397.678.823.678 1.76 0 2.691.714 2.691 3.413v9.336c.065 5.087-.895 6.176-2.489 6.176-.657 0-1.039.26-1.039.685 0 .368.166.678.758.678h8.196c.505 0 .613-.253.613-.62 0-.433-.267-.75-.924-.75-1.133 0-3.117-.332-3.117-6.176v-8.434l.281-.007 2.172 4.906c.339.916 2.973 6.919 3.42 8.001.455 1.075.859.859 1.659-.18.628-.808 1.595-1.71 2.446-2.33.281-.209 1.263-.693-.166-1.032a2.23 2.23 0 0 1-.837-.397l4.877-10.851.238.18v12.489c0 2.828-.657 3.824-3.102 3.824-.332 0-.952.166-.952.685 0 .397.455.685.707.685h19.243c.303-.051.88-.209.88-.678 0-.498-.794-.685-1.068-.685-1.32-.065-2.121-.411-2.121-1.768 0-1.198.866-3.882 1.313-4.726h6.999l.577 1.299c.303.873.931 2.056.931 2.915 0 .902-.642 2.287-3.586 2.287a.68.68 0 0 0-.642.628c0 .426.325.685.931.729l11.544.007h7.944c.635 0 .808-.339.808-.678 0-.426-.426-.693-.736-.693-1.955 0-3.369-.563-3.369-6.328v-11.14h.058l10.945 16.688c.31.491 1.025 1.602 1.14 2.064.563 1.075.657.801 1.154.317.765-.96 2.98-2.381 4.221-2.691.613-.123.801-.967-.224-1.075-.902-.101-1.717.058-2.785-.231V332.73c.007-5.736 1.321-5.75 3.449-5.75m-179.785-8.802h17.201c-.664 3.997-1.4 5.455-1.941 6.667-3.535 8.016-10.007 15.325-10.671 16.118-.75.909-1.342 2.121-.808 2.655.534.541 1.746-.058 2.655-.801.794-.649 8.11-7.136 16.118-10.671 1.227-.534 2.677-1.277 6.674-1.941v17.194h-29.228v-29.221z" fill="#c42b05"/><path d="M179.611 322.045v24.778h6.992v-24.778h-6.992zm-55.015-.042v24.799h7.055v-19.255l5.502.021c1.806 0 3.066.441 3.927 1.365 1.113 1.176 1.554 3.087 1.554 6.551v11.318h6.845v-13.691c0-9.785-6.236-11.108-12.326-11.108h-12.557zm66.291.042v24.778h11.339c6.048 0 8.021-1.008 10.142-3.255 1.512-1.575 2.478-5.061 2.478-8.861 0-3.486-.819-6.593-2.268-8.525-2.562-3.465-6.299-4.137-11.885-4.137h-9.806zm6.93 5.375h3.003c4.368 0 7.181 1.953 7.181 7.034s-2.814 7.055-7.181 7.055h-3.003V327.42zm-28.285-5.375l-5.838 19.633-5.586-19.633h-7.559l7.979 24.778h10.079l8.063-24.778h-7.138zm48.59 24.778h6.992v-24.778h-6.992v24.778zm19.613-24.778l-9.764 24.757h6.887l1.554-4.389h11.549l1.47 4.368h7.496l-9.848-24.736h-9.344zm4.535 4.514l4.242 11.591h-8.609l4.367-11.591z"/><path fill="#76b900" d="M79.471 326.16v-3.402l1.008-.042c9.323-.294 15.434 8.021 15.434 8.021s-6.593 9.155-13.67 9.155c-.945 0-1.869-.147-2.751-.441V329.12c3.633.441 4.368 2.037 6.53 5.67l4.851-4.074s-3.549-4.641-9.512-4.641c-.631-.02-1.261.022-1.89.085m0-11.255v5.082l1.008-.063c12.956-.441 21.418 10.625 21.418 10.625s-9.701 11.801-19.801 11.801a15.39 15.39 0 0 1-2.604-.231v3.15a18.71 18.71 0 0 0 2.163.147c9.407 0 16.211-4.809 22.804-10.478 1.092.882 5.565 3.003 6.488 3.927-6.257 5.25-20.851 9.47-29.125 9.47a20.72 20.72 0 0 1-2.31-.126v4.431h35.739v-37.734h-35.78zm0 24.547v2.688c-8.693-1.554-11.108-10.604-11.108-10.604s4.179-4.62 11.108-5.376v2.94h-.021c-3.633-.441-6.488 2.961-6.488 2.961s1.616 5.732 6.509 7.391m-15.434-8.294s5.145-7.601 15.455-8.399v-2.772C68.069 320.911 58.2 330.57 58.2 330.57s5.586 16.169 21.271 17.639v-2.94c-11.508-1.428-15.434-14.111-15.434-14.111h0z"/><path d="M544.389 330.553l-.709-.112c-2.307-7.279-4.429-14.616-6.363-22.003a8.93 8.93 0 0 1-1.623.176 8.23 8.23 0 0 1-1.595-.178 623.05 623.05 0 0 1-10.745 31.29 16.05 16.05 0 0 1 1.935-.138 11.38 11.38 0 0 1 1.852.182l.374-1.435 5.859-20.062 6.21 21.392.515-.036.396-.022.67.069 14.855-21.35-2.202 21.455a37.05 37.05 0 0 1 3.461-.192c1.119.009 2.235.074 3.346.195a671.27 671.27 0 0 1 1.979-28.663l.217-2.66c-.515.095-1.039.146-1.563.155l-.16-.002c-.462-.023-.92-.087-1.37-.192-4.939 7.495-10.053 14.875-15.339 22.131h0zm39.073-.254c.709-2.506 1.176-5.075 1.394-7.671.034-.989-.215-1.966-.717-2.819-.091-.144-.19-.282-.299-.412-.699-.802-1.623-1.375-2.652-1.645-1.043-.292-2.123-.432-3.207-.414-3.211.091-6.322 1.135-8.938 3a12.64 12.64 0 0 1-.025.615 22.26 22.26 0 0 0-.052 1.506c.807-.682 1.725-1.221 2.714-1.592 1.098-.455 2.268-.714 3.455-.766h.058a5.24 5.24 0 0 1 2.497.545c.988.51 1.61 1.529 1.611 2.642a4.48 4.48 0 0 1-.022.602c-.028.393-.114.78-.255 1.148a2.25 2.25 0 0 1-.846.998 7.07 7.07 0 0 1-1.579.76 45.2 45.2 0 0 1-3.601 1.088c-1.625.394-3.197.984-4.68 1.757-1.206.63-2.204 1.595-2.873 2.78a6.25 6.25 0 0 0-.686 2.97c-.035 1.066.24 2.12.79 3.034a4.45 4.45 0 0 0 2.907 1.91 7.06 7.06 0 0 0 1.52.153c2.498-.001 4.873-1.083 6.514-2.967l.308-.342a6.37 6.37 0 0 0 .556 2.156c.263.478.709.829 1.236.971.493.132 1.002.193 1.512.182h.115c1.065-.002 2.118-.226 3.091-.658a22.25 22.25 0 0 0 1.097-.483 2.47 2.47 0 0 0 .028-.241 6.88 6.88 0 0 1 .058-.479c-.37-.004-.738-.059-1.092-.165-.286-.087-.541-.255-.735-.483-.2-.254-.326-.558-.365-.879a3.69 3.69 0 0 1-.038-.545 5.61 5.61 0 0 1 .14-1.154l.049-.252 1.012-4.85h0zm-10.334 7.134a2.53 2.53 0 0 1-1.559-.472c-.429-.339-.724-.818-.835-1.353-.072-.31-.107-.627-.105-.946a5.69 5.69 0 0 1 .445-2.402c.379-.789.969-1.457 1.705-1.932a14.09 14.09 0 0 1 3.437-1.619 40.95 40.95 0 0 1 2.42-.745 69.05 69.05 0 0 1-.873 4.601 10.04 10.04 0 0 1-1.195 2.942c-.484.798-1.229 1.405-2.108 1.719a4.13 4.13 0 0 1-1.332.207h0zm32.025-19.88a5.54 5.54 0 0 0-1.247-.066c-1.432.131-2.786.715-3.864 1.666-1.572 1.38-2.849 3.062-3.757 4.947l1.079-6.042-.26.025c-.829.093-1.662.147-2.496.162a22.85 22.85 0 0 1-2.353-.164l-.383-.036a149.09 149.09 0 0 1-1.964 11.881c-.624 3.337-1.374 6.65-2.246 9.931.969-.114 1.943-.173 2.918-.178a27.38 27.38 0 0 1 3.109.19c.463-3.648 1.037-7.282 1.72-10.896.138-.694.355-1.371.645-2.017.618-1.489 1.793-2.678 3.274-3.313a6.7 6.7 0 0 1 4.452-.08c.33-2.03.789-4.038 1.373-6.01h0zm3.508.494c-1.092 7.341-2.517 14.628-4.269 21.839.972-.113 1.95-.172 2.929-.176a24.65 24.65 0 0 1 2.95.188 202.37 202.37 0 0 1 4.271-21.836 24.93 24.93 0 0 1-2.852.182 24.94 24.94 0 0 1-3.029-.197h0zm20.791-.802c-5.187.035-9.836 3.209-11.756 8.028a16.02 16.02 0 0 0-1.331 6.405 9.73 9.73 0 0 0 1.367 5.297c1.146 1.738 2.953 2.934 5.001 3.31.855.182 1.727.271 2.601.265 2.156.075 4.301-.366 6.254-1.285a10.94 10.94 0 0 0 1.007-.58l1.441-2.545-.205-.251c-1.722 1.331-3.846 2.038-6.022 2.004a5.38 5.38 0 0 1-3.118-.864 4.72 4.72 0 0 1-1.805-2.612c-.238-.834-.352-1.698-.338-2.564-.002-1.062.109-2.121.332-3.159h13.423a17.42 17.42 0 0 0 .43-2.42c.078-.604.122-1.212.134-1.82a8.22 8.22 0 0 0-1.004-4.204c-.818-1.356-2.151-2.323-3.694-2.68a10.5 10.5 0 0 0-2.717-.325h0zm1.411 9.516h-7.585a16.37 16.37 0 0 1 2.28-5.431 6.28 6.28 0 0 1 1.786-1.779c.517-.331 1.116-.51 1.729-.516.538-.004 1.046.246 1.372.675a3.65 3.65 0 0 1 .635 1.326 10.1 10.1 0 0 1 .218 3.567c-.065.732-.211 1.456-.435 2.158h0z"/><path d="M506.869 348.735l-.162 1.569c23.841-4.844 48.334-5.583 72.423-2.187l-.002-1.428-.499-.059c-23.862-3.432-48.139-2.72-71.76 2.105h0zm-.358 3.482l-.455 4.408a213.41 213.41 0 0 1 73.877-2.1l-.529-4.481c-24.232-3.65-48.923-2.914-72.893 2.173h0z" fill="#ad292f"/><path d="M640.679 347.386c-.213-.189-.448-.349-.702-.479a5.47 5.47 0 0 0-2.918-.483 3.71 3.71 0 0 0-3.115 2.214c-.548 1.258-.356 2.715.499 3.788.372.426.836.763 1.356.986l1.627.682a5.96 5.96 0 0 1 1.313.7c.306.208.559.489.735.816.655 1.337.102 2.952-1.235 3.607l-.129.059c-1.17.427-2.481.171-3.404-.666a8.53 8.53 0 0 1-.742-.825l-.257.047-.055.423c-.053.313-.135.621-.246.919.159.145.328.281.5.407.821.558 1.803.83 2.793.774 1.803.02 3.452-1.017 4.214-2.652.443-.987.472-2.11.081-3.118-.361-.784-1.005-1.403-1.803-1.733l-1.189-.465-1.22-.497c-.379-.186-.728-.43-1.032-.722-.432-.453-.652-1.066-.607-1.69a2.13 2.13 0 0 1 .9-1.726 2.71 2.71 0 0 1 3.459.435c.177.216.334.449.465.695l.229-.032.092-.318c.098-.391.229-.775.391-1.146h0zm-14.58-.725l.032.249.177 5.482-.021 2.773-.175 5.038.7-.092a5.24 5.24 0 0 1 1.364.056 60.31 60.31 0 0 1-.269-6.488l.2-7.031-.489.058a6.13 6.13 0 0 1-1.519-.045h0zm-16.487 13.472c.5-.045 1.004-.045 1.504 0l1.96-5.164 3.701-.042a8.79 8.79 0 0 1 1.181.051l2.062 5.215.715-.051a7.49 7.49 0 0 1 1.419.094l-1.657-3.661-1.683-3.974-1.414-3.26-1.182-2.875-.027.002c-.146.012-.294.011-.44-.002l-2.324 5.414-3.815 8.253h0zm3.909-6.156l.401-.991.722-1.639.302-.68.602-1.364.335.693.435 1.04.842 2.046.331.895h-3.97 0zm-15.754 6.131a12.75 12.75 0 0 1 1.964.029l-.137-6.575.664.014 5.061 6.546c.837-.069 1.679-.048 2.511.063l-1.925-2.306-1.827-2.276-1.723-2.237c.975-.057 1.908-.417 2.667-1.031.928-.691 1.419-1.824 1.286-2.974-.075-1.163-.873-2.153-1.993-2.473-.671-.188-1.365-.278-2.062-.265a77.82 77.82 0 0 1-4.428-.007c.176 4.497.156 8.998-.058 13.492h0zm1.758-7.299l.051-5.226a12.12 12.12 0 0 1 1.534-.121 7.11 7.11 0 0 1 1.139.07c.319.045.631.126.93.245a2.34 2.34 0 0 1 1.306 2.409 2.63 2.63 0 0 1-1.733 2.194 6.37 6.37 0 0 1-1.184.31c-.463.079-.933.119-1.403.121l-.64-.002zm-13.659 7.333l.61-.048a7.15 7.15 0 0 1 1.387.075 23.5 23.5 0 0 1-.069-1.186l-.052-1.425-.033-3.799-.002-.268a52.87 52.87 0 0 1 4.972.144 9.1 9.1 0 0 1 .068-1.351l-.23.024a51.81 51.81 0 0 1-4.81.118c0-1.572.032-3.144.098-4.714a45.25 45.25 0 0 1 5.385.257l-.012-.158c-.048-.394-.053-.793-.014-1.188-.684.056-1.371.079-2.057.069l-2.987.008a22.33 22.33 0 0 1-2.18-.092 135.62 135.62 0 0 1 .096 6.566 80.18 80.18 0 0 1-.17 6.968h0z"/><path fill="#ad292f" d="M608.838 314.565a.66.66 0 0 0-.066.158.7.7 0 0 0-.027.249c.003.035.012.069.025.1l.038.042c.023.018.049.03.077.038a.86.86 0 0 0 .221.032c.255 0 .512-.024.765-.07a15.77 15.77 0 0 0 2.538-.665l.068-.027a9.74 9.74 0 0 0 3.246-2.099c.476-.476.839-1.053 1.061-1.689.032-.114.054-.232.063-.349.039-.381.035-.765-.011-1.146-.009-.062-.023-.124-.042-.184l-.011-.025c-.077-.149-.177-.285-.298-.401a4.55 4.55 0 0 0-1.306-.865 4.89 4.89 0 0 0-2.25-.482c-.176.01-.351.036-.522.078-.097.021-.187.065-.263.128a.51.51 0 0 0-.148.242c-.038.134-.057.272-.057.411l-.003.208.039 1.07c.015.334-.057.665-.208.963l-.143.283c-.429.731-.904 1.435-1.423 2.105l-1.363 1.895h0z"/><path fill="#cc2229" d="M710.434 351.539c-3.183-1.994-5.529-8.876-5.529-17.054l.009-.891.003.004c-8.856-1.392-15.254-5.204-15.418-9.714l-.025.053c-2.166 2.693-3.404 5.807-3.404 9.124 0 9.762 10.716 17.761 24.308 18.469l.056.009zm-28.46-17.768c0-10.922 13.594-19.779 30.362-19.779s30.363 8.857 30.363 19.779-13.594 19.78-30.363 19.78-30.362-8.856-30.362-19.78h0zm30.363-16.925c3.238 0 5.992 4.912 7.012 11.764l.003-.011c6.299-.98 10.708-3.241 10.708-5.874 0-3.531-7.935-6.392-17.723-6.392s-17.722 2.86-17.722 6.392c0 2.632 4.409 4.893 10.707 5.874l.004.011c1.02-6.852 3.774-11.764 7.011-11.764h0zm1.96 34.681c13.593-.708 24.31-8.706 24.31-18.469 0-3.317-1.238-6.431-3.404-9.124l-.027-.053c-.163 4.51-6.561 8.323-15.418 9.714l.004-.004.009.891c0 8.178-2.348 15.06-5.529 17.054l.055-.009zm-1.96-22.409c1.405.002 2.81-.058 4.21-.18l-.001.001c-.671-4.391-2.302-7.492-4.208-7.492s-3.535 3.101-4.208 7.492l-.001-.001c1.399.121 2.803.181 4.208.18h0zm0 16.266c2.437 0 4.427-5.072 4.532-11.432l.013.004a49.43 49.43 0 0 1-9.087 0l.013-.004c.103 6.359 2.091 11.432 4.529 11.432zm124.569-11.613a15.12 15.12 0 0 1 15.117-15.117 15.12 15.12 0 0 1 15.12 15.117 15.12 15.12 0 0 1-15.12 15.117 15.12 15.12 0 0 1-15.117-15.117h0zm15.117 9.574c4.662 0 8.443-4.287 8.443-9.575s-3.781-9.574-8.443-9.574-8.44 4.287-8.44 9.574 3.78 9.575 8.44 9.575zm32.274-18.393v23.25h-6.371v-23.25h.023-8.908v-5.256h24.141v5.256h-8.885zm16.591 16.837l-.005.006-2.444 6.408h-7.441l11.762-28.507h7.929l11.759 28.507h-7.439l-2.444-6.408-.008-.006h-11.669zm5.836-4.812h4.009l-.003.001-3.98-10.433h-.054l-3.98 10.433-.003-.001h4.011zM766.88 324.952v23.25h-6.37v-23.25h.023-8.909v-5.256h24.142v5.256h-8.886 0zm10.516 8.819c0-8.348 6.769-15.117 15.12-15.117a15.12 15.12 0 0 1 15.118 15.117 15.12 15.12 0 0 1-15.118 15.117 15.12 15.12 0 0 1-15.12-15.117zm15.119 9.574c4.661 0 8.442-4.287 8.442-9.575s-3.781-9.574-8.442-9.574-8.442 4.287-8.442 9.574 3.78 9.575 8.442 9.575zm29.753 4.857h3.23v-10.823l11.113-17.682h-7.439l-6.905 11.982-6.902-11.982h-7.439l11.112 17.682v10.823h3.23 0z"/><path fill="#b3d6f2" d="M119.893 475.946c-31.171-2.464-53.786-12.065-53.786-23.522 0-9.077 14.595-17.858 36.183-22.438-26.275 3.433-44.952 11.795-44.952 22.438.002 12.502 27.124 22.398 62.555 23.522m31.4-.032c31.17-2.464 53.783-12.065 53.783-23.522 0-9.077-14.594-17.858-36.183-22.438 26.276 3.433 44.955 11.795 44.955 22.438-.002 12.502-27.126 22.399-62.555 23.522"/><path fill="#fadf3c" d="M142.326 435.341c0 3.186-3.019 5.77-6.736 5.77s-6.737-2.585-6.737-5.77 3.016-5.773 6.737-5.773 6.736 2.583 6.736 5.773"/><path fill="#e19636" d="M138.904 407.756c-1.157-2.152-2-3.912-3.307-3.912s-2.155 1.76-3.313 3.912-2.121 4.7-2.121 6.274h.014c0 2.566 2.426 4.644 5.419 4.644s5.417-2.079 5.417-4.644h.003c0-1.576-.955-4.12-2.112-6.274"/><path d="M109.552 419.254c-2.753-.22-4.954-.474-5.608.498-.651.966.702 2.479 2.299 4.417s3.689 3.922 5.279 4.708l.008-.011c2.592 1.283 5.906.521 7.403-1.699s.609-5.061-1.985-6.342l.003-.003c-1.592-.787-4.644-1.35-7.399-1.568" class="R"/><path fill="#92b949" d="M164.939 424.171c1.6-1.932 2.959-3.438 2.304-4.409s-2.859-.72-5.613-.502-5.812.775-7.401 1.563l.008.011c-2.592 1.283-3.48 4.121-1.985 6.344s4.812 2.98 7.404 1.696v.003c1.591-.787 3.686-2.771 5.283-4.706"/><path fill="#2ca2e1" d="M148.8 426.954c1.107-1.644 1.901-4.799 2.21-7.648s.665-5.121-.702-5.796c-1.361-.676-3.492.726-6.221 2.374s-5.525 3.815-6.629 5.459l.013.008c-1.803 2.678-.733 6.106 2.396 7.653s7.127.628 8.931-2.05h.002m-15.08-5.61c-1.107-1.644-3.901-3.81-6.626-5.461s-4.842-3.058-6.211-2.38c-1.361.673-1.013 2.954-.707 5.802s1.093 6.006 2.202 7.651l.014-.008c1.806 2.681 5.804 3.597 8.932 2.053s4.199-4.974 2.394-7.653l-.001-.003.003-.001m-13.211 8.383c-2.216 0-5.802.989-8.836 2.186s-5.51 2.066-5.51 3.419c0 1.346 2.477 2.228 5.511 3.427s6.617 2.191 8.834 2.191v-.016c3.61 0 6.538-2.509 6.538-5.603s-2.926-5.603-6.537-5.604h0m30.161 11.224c2.215 0 5.802-.989 8.834-2.186s5.509-2.066 5.509-3.419c0-1.346-2.476-2.228-5.509-3.427s-6.619-2.191-8.834-2.191v.016c-3.613 0-6.54 2.509-6.54 5.603s2.927 5.603 6.54 5.604h0"/><path fill="#1d5693" d="M91.413 452.039c0-2.461-.992-5.014-3.723-5.014-2.793 0-3.694 2.492-3.694 5.014s.961 4.922 3.723 4.922c2.791 0 3.694-2.4 3.694-4.922zm-11.528 12.484v-19.6c0-.692.693-.689.693-.689h2.668s.691 0 .691.689v1.262c0 .031.029.031.029.031.023 0 .045-.023.053-.037 1.022-1.626 2.693-2.366 4.601-2.366 4.863 0 7.054 3.932 7.054 8.347 0 4.142-2.281 8.014-6.813 8.014-1.861 0-3.613-.794-4.635-2.325 0 0-.007-.016-.033-.016h-.016s-.029-.003-.029.034v6.658c0 .691-.693.691-.693.691h-2.876s-.694.003-.694-.693m26.46-12.335c0-.037-.021-.011-.032-.003-.732.605-2.207.636-3.51.875-1.32.27-2.521.72-2.521 2.281 0 1.592 1.232 1.982 2.612 1.982 3.333 0 3.451-2.642 3.451-3.574v-1.561zm-6.145-3.18h-3.009c-.686 0-.651-.471-.613-.691.592-3.441 3.943-4.503 7.216-4.503 3.092 0 6.815.691 6.815 4.414v8.074c0 1.019.077 2.037.268 2.762.072.28.27.689-.42.689h-3.123c-.51 0-.643-.456-.693-.691-.056-.257-.094-.518-.113-.78 0-.031-.021-.008-.032.003-1.35 1.388-3.316 1.89-5.194 1.89-2.941 0-5.283-1.471-5.283-4.652 0-3.514 2.642-4.354 5.283-4.712 2.612-.391 5.043-.301 5.043-2.042 0-1.83-1.26-2.1-2.761-2.1-1.377 0-2.342.474-2.694 1.65-.062.204-.132.689-.69.689m57.916 3.18c0-.037-.021-.011-.031-.003-.733.605-2.21.636-3.511.875-1.322.27-2.521.72-2.521 2.281 0 1.592 1.231 1.982 2.613 1.982 3.331 0 3.45-2.642 3.45-3.574v-1.561zm-6.145-3.18h-3.011c-.686 0-.65-.471-.61-.691.589-3.441 3.943-4.503 7.213-4.503 3.092 0 6.815.691 6.815 4.414v8.074c0 1.019.079 2.037.267 2.762.073.28.273.689-.419.689h-3.121c-.513 0-.644-.456-.693-.691-.057-.257-.095-.518-.113-.78 0-.031-.023-.008-.031.003-1.351 1.388-3.32 1.89-5.194 1.89-2.943 0-5.283-1.471-5.283-4.652 0-3.514 2.639-4.354 5.283-4.712 2.61-.391 5.043-.301 5.043-2.042 0-1.83-1.262-2.1-2.762-2.1-1.374 0-2.343.474-2.694 1.65-.064.204-.132.689-.69.689m27.75 3.18c0-.037-.021-.011-.034-.003-.73.605-2.207.636-3.511.875-1.32.27-2.518.72-2.518 2.281 0 1.592 1.231 1.982 2.61 1.982 3.333 0 3.453-2.642 3.453-3.574v-1.561h0zm-6.147-3.18h-3.008c-.689 0-.651-.471-.613-.691.592-3.441 3.943-4.503 7.216-4.503 3.092 0 6.815.691 6.815 4.414v8.074c0 1.019.079 2.037.267 2.762.073.28.273.689-.419.689h-3.123c-.51 0-.642-.456-.693-.691-.056-.257-.093-.518-.113-.78 0-.031-.021-.008-.031.003-1.349 1.388-3.317 1.89-5.192 1.89-2.943 0-5.283-1.471-5.283-4.652 0-3.514 2.639-4.354 5.283-4.712 2.608-.391 5.043-.301 5.043-2.042 0-1.83-1.262-2.1-2.765-2.1-1.374 0-2.341.474-2.692 1.65-.064.204-.132.689-.692.689m-61.535 10.053v-14.135c0-.693.687-.691.687-.691h2.673s.693-.003.693.691v2.16c0 .026.027.031.027.031.022 0 .041-.023.045-.034.793-1.935 2.882-3.27 4.94-3.27a3.23 3.23 0 0 1 .235.011c.241.023.696.136.696.696v2.715c0 .694-.433.61-.693.586-.279-.029-.558-.044-.838-.045-3.122 0-4.203 2.252-4.203 4.982v6.302c0 .692-.691.691-.691.691h-2.88c.001.001-.691.001-.691-.69m11.146 0v-14.138c0-.691.693-.689.693-.689h2.636s.692-.003.692.691v1.38c0 .031.028.031.028.031.034 0 .048-.026.057-.039 1.11-1.568 2.721-2.484 4.716-2.484 1.951 0 3.692.723 4.533 2.582.901-1.349 2.518-2.582 4.681-2.582 3.304 0 5.671 1.532 5.671 5.553v9.695c0 .693-.691.691-.691.691h-2.878s-.691.005-.691-.691v-8.103c0-2.071-.181-3.78-2.61-3.78-2.403 0-2.854 1.979-2.854 3.929v7.954c0 .696-.691.691-.691.691h-2.879s-.691.005-.691-.691v-8.014c0-1.802.121-3.87-2.581-3.87-.84 0-2.881.54-2.881 3.571v8.313c0 .689-.691.691-.691.691h-2.88c.002 0-.689.006-.689-.691m40.843 0V440.26s0-.691.691-.691h2.88c.689 0 .691.691.691.691v18.801c0 .691-.691.691-.691.691h-2.88s-.691.003-.691-.691m27.082-18.795v3.278s0 .691.691.691h1.738c.691 0 .691.689.691.689v1.471c0 .696-.691.691-.691.691h-1.738s-.691.003-.691.691v6.993c0 1.44.361 1.802 1.802 1.802.214 0 .422-.008.628-.023.639-.053.691-.087.691.691v1.937s.005.628-.691.691c-.574.055-1.21.065-1.802.065-2.61 0-4.891-.6-4.891-3.692v-8.465s0-.691-.691-.691h-1.199s-.691.005-.691-.691v-1.471s0-.689.691-.689h1.199c.691 0 .691-.691.691-.691v-3.278s0-.693.691-.693h2.88c.695-.001.692.694.692.694"/><path fill="#2d8cff" d="M418.146 432.289c.646 1.114.857 2.382.927 3.807l.092 1.9v13.283l.094 1.902c.187 3.105 2.478 5.402 5.607 5.597l1.892.094v-20.875l.094-1.9c.078-1.409.287-2.701.943-3.823a7.59 7.59 0 0 1 10.37-2.752c1.149.667 2.103 1.624 2.766 2.776.646 1.114.847 2.406.925 3.799l.094 1.894v13.289l.094 1.902c.195 3.121 2.468 5.418 5.607 5.597l1.892.094v-22.775a15.19 15.19 0 0 0-15.182-15.188c-4.361-.005-8.512 1.87-11.391 5.145a15.17 15.17 0 0 0-11.391-5.147c-3.153 0-6.079.957-8.503 2.609-1.479-1.65-4.788-2.609-6.687-2.609v37.965l1.9-.094c3.177-.209 5.473-2.444 5.597-5.597l.102-1.902v-13.283l.094-1.9c.08-1.433.279-2.693.927-3.815 1.361-2.341 3.864-3.782 6.572-3.783a7.59 7.59 0 0 1 6.565 3.79h0zm-129.965 26.49l1.9.092h28.473l-.094-1.894c-.257-3.121-2.468-5.402-5.599-5.605l-1.9-.094H293.88l22.775-22.783-.094-1.892c-.147-3.153-2.452-5.432-5.599-5.605l-1.9-.086-28.473-.008.094 1.9c.249 3.091 2.492 5.42 5.597 5.599l1.902.094h17.082l-22.775 22.783.094 1.9c.187 3.129 2.446 5.396 5.599 5.597v.002zm47.471-37.875a18.97 18.97 0 0 1 13.414 5.561c7.415 7.411 7.415 19.434 0 26.845a19 19 0 0 1-26.853 0c-7.413-7.413-7.413-19.434 0-26.847a18.97 18.97 0 0 1 13.414-5.559h.025 0zm8.043 10.931v.001a11.4 11.4 0 0 0-16.11 0 11.4 11.4 0 0 0 0 16.11 11.4 11.4 0 0 0 16.11 0 11.4 11.4 0 0 0 0-16.111zm31.638-10.913a18.97 18.97 0 0 1 13.414 5.561c7.415 7.411 7.415 19.434 0 26.845a19 19 0 0 1-26.853 0c-7.413-7.413-7.413-19.434 0-26.847a18.97 18.97 0 0 1 13.414-5.559h.025 0zm8.042 10.931v.001a11.4 11.4 0 0 0-16.11 0 11.4 11.4 0 0 0 0 16.11 11.4 11.4 0 0 0 16.11 0 11.4 11.4 0 0 0 0-16.111z"/><path fill="#ff0025" d="M689.338 417.96l4.577-.04-13.449 28.784h-3.733c-2.047-4.817-4.456-9.514-6.584-14.332a82.75 82.75 0 0 1 4.456 0c1.285 2.971 2.81 5.821 3.974 8.792l10.759-23.204z"/><path d="M574.402 422.055h8.832v7.868c-2.931-.04-5.901 0-8.872-.04l.04-7.828zm-44.44 11.241c6.022-3.412 14.773-2.248 18.828 3.653 2.489 3.493 3.212 7.909 3.171 12.084l-20.715.04c.321 2.128 1.245 4.376 3.212 5.5 2.81 1.646 7.226 1.164 8.631-2.088a150.94 150.94 0 0 1 8.511 0c-.883 3.252-3.252 6.022-6.222 7.547-3.212 1.766-7.066 2.088-10.638 1.485-3.774-.602-7.266-2.73-9.394-5.901-2.328-3.372-2.931-7.668-2.409-11.642.521-4.375 3.131-8.51 7.025-10.678h0zm4.697 5.018c-1.967.923-2.931 3.051-3.372 5.098h11.803c-.241-1.566-.803-3.212-2.007-4.296-1.687-1.645-4.377-1.685-6.424-.802zm87.877-6.544c4.737-.843 9.996.161 13.649 3.452 6.223 5.54 6.504 16.259.723 22.2-4.577 4.777-12.244 5.66-18.105 2.971-4.536-2.047-7.628-6.664-8.149-11.562-.201-2.85-.08-5.781 1.084-8.43 1.766-4.536 6.061-7.828 10.798-8.631h0zm1.004 6.544c-2.489.883-3.653 3.573-4.015 6.022-.281 3.051-.241 6.504 1.726 9.033 2.128 2.77 6.825 2.69 8.952-.04 1.766-2.208 2.047-5.219 1.847-7.949-.12-2.409-.964-4.978-2.971-6.463-1.605-1.085-3.732-1.245-5.539-.603h0zm30.51-4.898c2.931-2.288 7.106-2.529 10.478-1.164 2.409 1.044 4.215 3.171 5.058 5.62.964 2.529.682 5.259.682 7.909l.04 15.135-8.832.04v-17.343c0-1.485-.562-3.091-1.807-4.015-1.887-1.285-4.617-1.044-6.223.562-1.285 1.285-1.847 3.131-1.807 4.898v15.898c-2.89-.04-5.821 0-8.712-.04v-28.664l8.511.04-.08 3.974c.886-.963 1.608-2.047 2.692-2.85h0zm-158.894-1.084h9.153l5.54 18.467c2.128-6.062 3.733-12.325 5.741-18.467l8.832-.04-9.996 28.664c-3.051 0-6.102-.04-9.153.04l-10.117-28.664zm58.812-.04h8.43c-.04 1.606 0 3.212-.08 4.817.723-.803 1.245-1.807 2.007-2.569 1.887-2.088 4.978-2.931 7.708-2.208-.04 2.529-.04 5.058 0 7.547-2.168-.241-4.577-.161-6.423 1.164-1.967 1.365-2.85 3.894-2.81 6.223v13.69c-2.931 0-5.901-.04-8.832.04v-28.704h0zm20.434.04l8.872-.04v28.664c-2.931-.04-5.901 0-8.872 0v-28.624zm11.241-.04l23.927.04c-.08 2.208 0 4.376-.04 6.584-.281.562-.763.964-1.124 1.445l-12.284 13.689 14.091.04v6.905c-8.19-.04-16.379-.04-24.569 0v-6.664l12.887-14.372c.12-.241.642-.482.361-.803-4.416.12-8.832 0-13.248.08v-6.944z"/><path fill="#00acec" d="M808.737 439.706v-.002l-1.131-3.827c-1.331-3.832-2.713-8.054-6.814-8.091 0 0-2.356-.407-4.82-.043 0 0-7.787 1.497-12.279 4.792 3.893 0 8.984-.599 10.781.599 2.332 1.554 3.337 3.063 3.337 6.363a2.84 2.84 0 0 1-.007.209c-.044.63-.274 1.082-.419 1.708h-1.277c-1.225-.958-2.255-1.274-3.833-1.703-.007-.003-.014-.004-.022-.004v-.002c-2.705-.734-4.54-.892-7.197.001h-.005c-3.662 1.232-6.542 3.589-7.417 6.952a8.81 8.81 0 0 0-.264 2.635c.208 4.526 3.365 7.302 7.665 8.729 2.68.89 4.466.532 7.239 0 4.231-.811 5.909-3.301 9.794-5.11l.053 5.11h11.444v-2.981c-.893-.998-1.953-4.507-2.997-8.383l-1.831-6.952h0zm-8.795 9.585c-.247 2.764-2.763 4.595-5.536 4.471-2.758-.123-5.112-2.137-5.11-4.897a4.64 4.64 0 0 1 .548-2.206c.817-1.525 2.463-2.543 4.35-2.691a5.58 5.58 0 0 1 5.147 2.689c.453.78.685 1.681.601 2.634h0zm81.585-9.585c-.968-4.339-2.913-7.365-7.064-9.365-1.863-.852-2.706-1.912-4.685-2.555-3.317-1.077-5.599-.992-8.943 0-6.04 1.793-9.626 5.891-10.907 11.92v.001a22.55 22.55 0 0 0-.164.854c-.366 2.128-.372 3.409 0 5.536l.104.559c.572 2.905 1.476 4.717 3.481 7.079 4.344 5.119 9.931 6.822 16.43 5.137 6.412-1.663 10.511-5.82 11.817-12.216h0l.106-.559c.373-2.126.398-3.414 0-5.536l-.175-.855h0zm-11.77 17.324c-4.117 1.43-5.396-4.516-7.328-10.374l-.278-.824c-.233-.682-1.199-3.25-1.941-6.125h0c-1.066-4.131-1.667-8.89 1.043-9.567 3.83-.958 5.556 4.668 6.919 9.567l.985 3.429 1.23 3.524h.001c1.556 4.754 2.452 9.299-.631 10.37h0zm-26.205-29.243c-1.764-.477-2.873-.242-4.684 0-3.47.464-4.791 3.407-8.304 3.407-2.076 0-2.114-2.683-4.046-3.407-2.021-.757-5.536 0-5.536 0-3.106 1.612-5.376 2.715-8.516 4.684 2.342 0 5.962-.473 5.962 2.147v23.404h10.646v-21.718c0-1.704 1.491-2.981 3.194-2.981s3.193 1.277 3.193 2.981v21.718h10.646v-27.679c-.253-1.12-1.129-2.171-2.555-2.556h0zm70.527 0c-1.764-.477-2.875-.242-4.685 0-3.47.464-4.791 3.407-8.304 3.407-2.076 0-2.114-2.683-4.046-3.407-2.022-.757-5.536 0-5.536 0-3.106 1.612-5.377 2.715-8.517 4.684 2.342 0 5.962-.473 5.962 2.147v23.404h10.646v-21.718c0-1.704 1.49-2.981 3.193-2.981s3.194 1.277 3.194 2.981v21.718h10.646v-27.679c-.251-1.12-1.128-2.171-2.553-2.556zm-137.984 2.468c-1.807-2.389-3.078-3.612-5.536-5.323-3.924-2.732-6.769-3.547-11.498-4.258-3.449-.519-5.492-.508-8.943 0-3.431.505-5.497.85-8.517 2.555-6.561 3.703-10.113 8.861-10.22 16.395-.001.027-.001.054-.001.081v.001c-.025 2.559.489 4.877 1.428 6.951h.001c2.86 6.304 9.671 10.33 17.309 11.916 3.74.777 6.025.618 9.794 0 3.991-.654 6.373-1.25 9.794-3.407 2.438-1.538 3.713-2.665 5.536-4.897l-1.277-1.49c-1.676 1.98-2.861 2.967-5.11 4.258-3.284 1.886-5.589 2.794-9.368 2.555-5.804-.367-10.464-3.959-12.669-8.935h-.001c-.893-2.016-1.383-4.259-1.383-6.608l.004-.343v-.003c.184-8.889 7.458-16.049 16.391-16.049 3.353 0 5.908.745 7.878 3.407-3.141 3.886-6.814 11.072-6.814 11.072l13.202-7.878h0z"/><path d="M154.222 499.517s.818-8.918-9.146-8.918c0 0 3.019.819 4.581 2.457 0 0-6.355-3.731-13.271 2.002s-2.619 20.111-4.722 22.841-10.293 3.276-9.292 12.103 25.992 19.882 24.387 27.185c0 0 9.794-14.396 2.791-20.967 0 0 3.414 3.215 3.761 7.037 0 0 .926-7.461-3.822-9.848-4.202-2.112-7.644-9.836-7.28-11.217s12.013-22.675 12.013-22.675z" class="O"/><path d="M144.413 542.333s7.444 30.796 14.751 36.953c4.392 3.7 17.452 12.192 17.452 12.192l-5.432 1.971s-18.114-6.117-22.169-10.885-15.158-28.659-15.158-28.659l10.556-11.572z" class="M"/><path d="M74.452 596.437l.205.361c1.629 2.831 5.366 9.769 9.482 17.361l5.919 10.88 8.132 14.377 3.658 5.78c.165.257.2.553.178.849a44.17 44.17 0 0 0 .118 7.635c2.482 24.699 19.137 37.935 19.137 37.935l4.952.732s-7.008-25.962-9.072-40.64c-.349-2.487-.501-4.503-.379-5.819.366-3.824-.313-9.438-1.598-15.884-2.287-11.455-6.481-25.514-10.126-36.768-.231-.718-7.195-25.91-7.195-25.91-5.845 5.109-27.164 7.217-27.164 7.217s-3.616 8.788 3.753 21.894z" class="N"/><path d="M136.626 698.611h-20.668s-.495-3.15.584-5.54c1.034-2.293 2.509-2.366.188-5.96 1.314 1.352 5.535 1.912 8.523 1.51.366.594 2.36 4.576 3.583 5.454 1.351.97 7.374.625 7.79 4.536z" class="R"/><path fill="#1f3344" d="M74.452 596.437l.205.361c1.629 2.831 10.438 19.102 14.554 26.694-4.769-19.62-1.452-39.242-1.452-39.242l-13.307 12.187z"/><path d="M151.403 498.262c.135-.543-11.804 5.396-12.41 6.068-5.599 6.211-4.003 14.316-.799 14.394 2.055.05 1.657 3.466 1.657 3.466l22.892-9.684c.001.001-2.755-16.072-11.34-14.244z" class="O"/><path d="M143.711 537.709s3.484 6.959 3.049 12.607c0 0-4.201 6.631-15.095 8.31 0 0 9.366-20.922 12.046-20.917z" class="Q"/><path d="M90.564 576.082l.07-3.866c-7.702.971-26.555-9.203-26.555-9.203s-8.057 5.359-9.16 20.663c-.538 7.47-3.944 39.061-4.321 48.494l-.199 6.834c-.004.308-.143.57-.326.805a44.18 44.18 0 0 0-4.173 6.397c-11.752 21.865-5.606 51.576-5.606 51.576l2.729-.694s9.937-30.8 16.431-44.122c1.102-2.259 2.104-4.016 2.941-5.034 2.442-2.966 5.017-8.003 7.555-14.064 4.798-11.462 20.614-57.786 20.614-57.786z" class="N"/><path d="M56.729 698.611H36.061s-.496-3.15.584-5.54c1.034-2.293 2.655-3.335 2.267-6.11 1.313 1.352 3.454 2.867 6.442 2.465.366.593 2.363 3.77 3.586 4.649 1.35.97 7.373.625 7.789 4.536z" class="R"/><g class="Q"><path d="M130.269 563.064c-2.776.474.453 2.68-3.365 3.095-5.434.593-11.045.999-13.985 2.171-1.072.427-1.789.956-2.013 1.631-1.274 3.831-9.343 10.414-9.343 10.414-35.988-1.638-38.306-17.678-38.306-17.678 23.357-22.685 43.228-35.049 59.65-36.58 3.997-.372 9.384.127 11.912 1.253 5.744 2.557 8.891 10.339 8.891 10.339s-2.892 23.555-13.441 25.355z"/><path d="M126.904 566.159c-5.434.593-11.045.999-13.985 2.171-1.201-17.948 7.269-31.449 7.269-31.449l6.716 29.278z"/></g><path d="M134.512 528.851c1.027 3.218 4.452 12.387 9.199 8.858-.161-.684.836-2.674 2.012-4.695 1.503-2.582 3.293-5.222 3.293-5.222l-7.735-6.777-.462-.404c-2.023 3.532-4.012 5.232-5.754 6.532-.53.395-.754 1.078-.553 1.708z" class="M"/><path fill="#e27452" d="M149.015 527.795l-3.291 5.219c-4.808-2.964-4.813-8.916-4.442-11.999l7.733 6.78z"/><path d="M149.229 531.19s-11.673-6.496-7.517-13.703 5.45-12.9 13.079-9.057 7.478 7.421 6.676 10.164-9.094 14.1-12.238 12.596z" class="M"/><path d="M163.439 514.39c-.535-3.2-2.16-3.505-3.294-3.292-4.311-7.129-11.354-4.347-11.354-4.347-3.762 4.721-9.201 5.527-9.201 5.527s1.355 2.521 6.936 4.081c1.705.476 3.64.187 5.506-.441-3.872 2.159-7.922 2.986-7.922 2.986 7.355.673 14.353-6.051 15.079-6.771.339 1.042.934 3.224.578 4.819-.484 2.167-2.408 6.093-1.233 6.601.001 0 5.707-4.364 4.905-9.163z" class="O"/><g class="M"><path d="M142.545 611.349s.252 2.176 1.172 3.299 3.594 3.841 3.641 5.432c0 0-.135.706-.709.577s-2.565-2.101-3.588-1.96c0 0 .545 3.189 1.087 4.087s1.535 4.281 1.211 5.056-5.737-3.736-7.376-5.94-.026-11.149-.026-11.149l4.588.598z"/><path d="M131.593 533.842s-13.666-.746-16.095 7.834 4.556 42.829 6.061 46.364c2.74 6.435 16.081 24.802 16.081 24.802l4.906-1.493s-8.895-28.06-10.881-30.836c-3.118-4.36 4.019-42.938-.072-46.671z"/></g><path d="M112.803 553.151c.036.201 12.933 2.373 21-1.722 0 0 6.739-21.111-2.891-20.101s-15.333 4.044-15.576 8.653-2.533 13.17-2.533 13.17z" class="Q"/><defs><path id="A" d="M142.231 582.472h65.162v65.162h-65.162z"/></defs><clipPath id="B"><use xlink:href="#A"/></clipPath><g clip-path="url(#B)" fill="#00749a"><path d="M142.414 615.052c0 11.064 6.429 20.624 15.752 25.155l-13.333-36.53c-1.597 3.579-2.422 7.456-2.419 11.375h0zm46.819-1.41c0-3.454-1.241-5.846-2.305-7.708-1.417-2.302-2.744-4.252-2.744-6.554 0-2.569 1.948-4.961 4.693-4.961.124 0 .241.015.363.022-4.973-4.556-11.598-7.337-18.875-7.337-9.764 0-18.355 5.01-23.353 12.598l1.799.033c2.923 0 7.449-.355 7.449-.355 1.507-.089 1.684 2.124.18 2.302 0 0-1.515.178-3.2.266l10.178 30.275 6.117-18.345-4.355-11.931c-1.505-.088-2.931-.266-2.931-.266-1.506-.088-1.33-2.391.177-2.302 0 0 4.616.355 7.362.355 2.923 0 7.449-.355 7.449-.355 1.508-.089 1.685 2.124.179 2.302 0 0-1.517.178-3.199.266l10.101 30.046 2.787-9.316c1.208-3.866 2.128-6.642 2.128-9.035h0zm-18.379 3.855l-8.386 24.368a27.92 27.92 0 0 0 7.896 1.139 27.94 27.94 0 0 0 9.282-1.584 2.34 2.34 0 0 1-.199-.385l-8.593-23.538zm24.035-15.854c.12.89.188 1.846.188 2.874 0 2.836-.53 6.025-2.125 10.011l-8.538 24.684c8.309-4.846 13.898-13.848 13.898-24.16a27.77 27.77 0 0 0-3.423-13.409h0zm-24.525-19.171c-17.965 0-32.581 14.615-32.581 32.58s14.616 32.582 32.581 32.582 32.583-14.615 32.583-32.582-14.619-32.58-32.583-32.58zm0 63.669c-17.141 0-31.087-13.946-31.087-31.088s13.946-31.086 31.087-31.086 31.086 13.945 31.086 31.086-13.946 31.088-31.086 31.088h0z"/></g><path d="M405.636 131.27c0-1.731.233-3.331.7-4.801s1.168-2.733 2.102-3.794 2.104-1.889 3.511-2.487 3.054-.897 4.942-.897c1.837 0 3.458.289 4.864.866s2.582 1.394 3.526 2.448 1.658 2.316 2.141 3.785.725 3.097.725 4.88c0 1.753-.236 3.364-.709 4.833s-1.181 2.731-2.125 3.786-2.12 1.876-3.525 2.463-3.039.882-4.896.882c-1.815 0-3.424-.283-4.824-.85s-2.579-1.372-3.534-2.417-1.677-2.301-2.165-3.77-.733-3.11-.733-4.927zm6.123 0c0 2.604.415 4.568 1.244 5.896s2.125 1.991 3.888 1.991c1.731 0 3.022-.661 3.873-1.983s1.274-3.29 1.274-5.903c0-1.259-.102-2.379-.307-3.36s-.517-1.808-.937-2.479-.952-1.183-1.598-1.535-1.414-.527-2.307-.527c-.881 0-1.645.176-2.29.527s-1.179.863-1.598 1.535-.732 1.498-.937 2.479-.305 2.101-.305 3.359zm24.361 5.574c0 .493.065.923.197 1.29a2.62 2.62 0 0 0 .543.921 2.18 2.18 0 0 0 .811.552c.31.12.643.181.999.181a3.94 3.94 0 0 0 1.213-.188c.388-.126.731-.32 1.031-.583s.537-.593.716-.991.268-.866.268-1.401v-6.675c0-.997.181-1.763.543-2.298s.984-.803 1.865-.803c.935 0 1.604.268 2.008.803s.605 1.301.605 2.298v9.634c0 .998-.202 1.764-.605 2.299s-1.073.803-2.008.803c-.881 0-1.503-.268-1.865-.803s-.543-1.301-.543-2.299a5.36 5.36 0 0 1-.858 1.322 5.42 5.42 0 0 1-1.228 1.031 5.96 5.96 0 0 1-1.543.669c-.562.158-1.167.236-1.817.236a5.61 5.61 0 0 1-2.023-.37 4.85 4.85 0 0 1-1.708-1.102c-.493-.489-.887-1.094-1.181-1.818s-.44-1.568-.44-2.534v-7.068c0-.997.181-1.763.543-2.298s.984-.803 1.865-.803c.935 0 1.604.268 2.008.803s.605 1.301.605 2.298v6.894zm19.166 2.738c0 .998-.202 1.764-.605 2.299s-1.073.803-2.008.803c-.881 0-1.503-.268-1.865-.803s-.543-1.301-.543-2.299v-10.389c0-.389.071-.729.213-1.023s.33-.535.566-.725a2.7 2.7 0 0 1 .811-.44 2.95 2.95 0 0 1 .96-.157c.819 0 1.436.263 1.85.787s.622 1.307.622 2.346c.179-1.061.608-1.892 1.291-2.495s1.559-.905 2.629-.905c.325 0 .614.055.865.165s.462.255.63.433a1.78 1.78 0 0 1 .378.614 2.01 2.01 0 0 1 .126.692c0 .672-.233 1.168-.7 1.487s-1.095.507-1.882.56c-.472.042-.91.131-1.314.268s-.755.338-1.055.605-.535.612-.708 1.031-.26.935-.26 1.543v5.603zm17.033-8.138c0-1.91.281-3.618.843-5.124s1.346-2.778 2.354-3.817 2.206-1.834 3.597-2.385 2.914-.827 4.573-.827c1.312 0 2.452.082 3.424.244s1.775.386 2.416.669 1.117.62 1.433 1.008.472.809.472 1.26c0 .304-.063.569-.188.795a1.69 1.69 0 0 1-.496.559c-.204.146-.433.254-.685.322s-.504.103-.756.103a10.76 10.76 0 0 1-.44-.008 1.58 1.58 0 0 1-.425-.071l-1.142-.307-1.07-.26-1.055-.181a8.1 8.1 0 0 0-1.094-.071 6.91 6.91 0 0 0-2.228.354c-.698.236-1.305.653-1.818 1.251s-.921 1.409-1.22 2.433-.449 2.327-.449 3.912c0 1.217.121 2.312.362 3.282s.601 1.794 1.078 2.471 1.076 1.196 1.795 1.559 1.556.543 2.511.543a6.18 6.18 0 0 0 1.212-.126l1.291-.322 1.346-.449 1.361-.503a1.74 1.74 0 0 1 .504-.063c.263 0 .501.05.717.149a1.79 1.79 0 0 1 .559.401c.158.167.277.365.362.591s.126.464.126.716c0 .409-.134.785-.401 1.126s-.622.647-1.063.921a7.96 7.96 0 0 1-1.519.716 15 15 0 0 1-1.771.512c-.608.137-1.214.238-1.817.307s-1.163.103-1.677.103c-1.554 0-3.002-.26-4.345-.779s-2.509-1.28-3.495-2.282-1.763-2.235-2.329-3.699-.853-3.144-.853-5.033zm28.233 8.138c0 .998-.202 1.764-.605 2.299s-1.073.803-2.008.803c-.881 0-1.503-.268-1.865-.803s-.543-1.301-.543-2.299v-16.639c0-.997.181-1.763.543-2.298s.984-.803 1.865-.803c.935 0 1.604.268 2.008.803s.605 1.301.605 2.298v16.639zm8.635-18.339c0 .347-.079.653-.236.921s-.362.491-.614.669a2.68 2.68 0 0 1-.873.401 3.85 3.85 0 0 1-1.016.134c-.367 0-.716-.047-1.047-.142s-.622-.233-.873-.417a2.09 2.09 0 0 1-.599-.669c-.147-.263-.221-.562-.221-.897 0-.304.071-.585.213-.842a2.19 2.19 0 0 1 .574-.669c.241-.189.53-.336.866-.441a3.71 3.71 0 0 1 1.102-.157 3.7 3.7 0 0 1 1.016.142c.33.095.622.231.874.409a2.1 2.1 0 0 1 .605.661c.153.262.229.561.229.897zm-.236 18.339c0 .998-.202 1.764-.605 2.299s-1.073.803-2.008.803c-.881 0-1.503-.268-1.865-.803s-.543-1.301-.543-2.299v-9.634c0-.997.181-1.763.543-2.298s.984-.803 1.865-.803c.935 0 1.604.268 2.008.803s.605 1.301.605 2.298v9.634zm19.008-5.336c0 .431-.142.75-.426.96s-.677.315-1.181.315h-9.744c.053 1.27.418 2.253 1.095 2.951s1.708 1.047 3.093 1.047c.451 0 .874-.028 1.268-.087a10.72 10.72 0 0 0 1.157-.235l1.133-.339 1.181-.394a1.02 1.02 0 0 1 .362-.079c.347 0 .624.134.834.401s.315.58.315.938c0 .21-.037.409-.11.598-.21.504-.557.921-1.039 1.252s-1.039.593-1.669.787a10.5 10.5 0 0 1-1.999.401c-.703.073-1.375.109-2.015.109-1.207 0-2.333-.173-3.377-.52s-1.949-.86-2.715-1.542-1.367-1.537-1.803-2.566-.653-2.22-.653-3.573c0-1.133.21-2.193.63-3.18s1.005-1.842 1.755-2.565 1.643-1.297 2.676-1.716 2.17-.63 3.408-.63c1.344 0 2.503.207 3.479.621s1.783.972 2.424 1.669a6.8 6.8 0 0 1 1.433 2.44 9.37 9.37 0 0 1 .488 2.937zm-4.203-.96c-.031-.557-.129-1.07-.291-1.543a3.68 3.68 0 0 0-.693-1.228c-.299-.346-.666-.617-1.102-.812s-.942-.291-1.52-.291c-.524 0-.999.103-1.424.308a3.45 3.45 0 0 0-1.103.834 3.87 3.87 0 0 0-.724 1.228 5.21 5.21 0 0 0-.308 1.504h7.165zm6.919-3.338c0-.997.181-1.763.543-2.298s.983-.803 1.865-.803c.934 0 1.604.268 2.007.803s.606 1.301.606 2.298c.188-.504.462-.963.818-1.377a5.13 5.13 0 0 1 1.268-1.062c.489-.293 1.025-.522 1.613-.685a6.92 6.92 0 0 1 1.857-.244 5.48 5.48 0 0 1 1.96.361c.635.242 1.193.606 1.677 1.095s.871 1.102 1.165 1.842.44 1.603.44 2.589v7.115c0 .998-.202 1.764-.606 2.299s-1.073.803-2.007.803c-.882 0-1.503-.268-1.865-.803s-.543-1.301-.543-2.299v-6.895c0-.504-.065-.941-.197-1.314s-.313-.682-.543-.929a2.27 2.27 0 0 0-.811-.559 2.63 2.63 0 0 0-1-.189 3.66 3.66 0 0 0-1.251.213c-.394.142-.734.354-1.023.638a3.04 3.04 0 0 0-.685 1.055c-.168.42-.252.907-.252 1.464v6.517c0 .998-.202 1.764-.605 2.299s-1.073.803-2.008.803c-.881 0-1.503-.268-1.865-.803s-.543-1.301-.543-2.299l-.015-9.635zm20.677-3.164l.347-3.258c.031-.315.087-.63.165-.945s.205-.603.378-.865a1.96 1.96 0 0 1 .7-.638c.294-.163.678-.244 1.149-.244.692 0 1.193.241 1.504.725s.464 1.201.464 2.156v3.069h1.763c.536 0 .971.134 1.307.401s.504.69.504 1.268c0 .535-.179.937-.535 1.204s-.84.401-1.448.401h-1.59v5.95l.031 1.606c.021.44.089.8.205 1.078s.288.478.52.598.562.182.991.182l.89.039c.289.026.543.092.764.196a1.25 1.25 0 0 1 .527.465c.131.204.196.485.196.842 0 .399-.1.72-.299.961s-.485.428-.857.559-.819.221-1.339.268l-1.739.07c-.734-.01-1.403-.12-2.007-.33s-1.123-.543-1.559-1-.771-1.049-1.007-1.778-.354-1.624-.354-2.685v-7.021h-.725c-.566 0-1.039-.134-1.416-.401s-.567-.7-.567-1.299c0-.472.149-.853.449-1.141s.753-.434 1.361-.434h1.227zm14.537 4.282c0 .409.179.727.535.952s.851.412 1.48.559l1.842.394 1.842.434a13.46 13.46 0 0 1 1.684.574c.525.221.986.496 1.386.826a3.62 3.62 0 0 1 .944 1.196c.23.468.347 1.026.347 1.677 0 .818-.168 1.545-.504 2.181s-.811 1.172-1.425 1.613-1.346.781-2.196 1.023-1.789.367-2.817.377a21.35 21.35 0 0 1-2.817-.181c-.903-.12-1.703-.307-2.401-.559s-1.257-.564-1.676-.937-.63-.811-.63-1.314c0-.441.142-.782.425-1.023s.646-.362 1.086-.362c.168 0 .367.031.599.095l.756.236.873.307a10.24 10.24 0 0 0 .969.291c.419.116.853.208 1.298.275a9.25 9.25 0 0 0 1.378.103 4.24 4.24 0 0 0 .866-.087 2.73 2.73 0 0 0 .763-.268 1.73 1.73 0 0 0 .56-.464 1.38 1.38 0 0 0 .268-.692 1.37 1.37 0 0 0 .078-.189c.021-.063.031-.136.031-.22 0-.294-.134-.557-.401-.787s-.643-.415-1.125-.552l-2.314-.52-2.038-.503c-.625-.179-1.191-.384-1.7-.614s-.939-.514-1.291-.85-.624-.74-.818-1.213-.291-1.044-.291-1.716c0-.724.165-1.372.495-1.943s.806-1.053 1.425-1.44 1.37-.686 2.251-.89 1.879-.308 2.991-.308c1.994 0 3.513.239 4.558.717s1.566 1.1 1.566 1.865c0 .431-.143.759-.426.984s-.624.338-1.022.338c-.211 0-.428-.039-.653-.118l-.812-.268a9.3 9.3 0 0 0-1.125-.268c-.436-.078-.974-.118-1.613-.118l-1.314.063c-.393.042-.729.115-1.008.22s-.493.247-.646.426-.233.405-.233.678z" fill="#333"/><path d="M1069.446 706.334a7.5 7.5 0 0 1-7.5 7.5H7.5a7.5 7.5 0 0 1-7.5-7.5h0a7.5 7.5 0 0 1 7.5-7.5h1054.447a7.5 7.5 0 0 1 7.499 7.5h0z" class="Q"/><path fill="#15845a" d="M1042.529 72.388h-44.247c-6.564 0-11.876 5.313-11.876 11.876v44.247c0 6.564 5.313 11.876 11.876 11.876h44.247c6.564 0 11.876-5.313 11.876-11.876V84.264a11.87 11.87 0 0 0-11.876-11.876zm-36.644 46.608c0 1.511-1.228 2.715-2.715 2.715h-4.958c-1.511 0-2.715-1.228-2.715-2.715V93.779c0-1.511 1.228-2.715 2.715-2.715h4.958c1.511 0 2.715 1.228 2.715 2.715v25.217zm26.373 4.746c0 1.511-1.228 2.715-2.715 2.715h-18.275c-1.511 0-2.715-1.228-2.715-2.715V89.034c0-1.511 1.228-2.715 2.715-2.715h18.275c1.511 0 2.715 1.228 2.715 2.715v34.708zm13.057-4.746c0 1.511-1.228 2.715-2.715 2.715h-4.958c-1.511 0-2.715-1.228-2.715-2.715V93.779c0-1.511 1.228-2.715 2.715-2.715h4.958c1.511 0 2.715 1.228 2.715 2.715v25.217z"/></svg>