<svg xmlns="http://www.w3.org/2000/svg"  width="223.134px" height="37.202px"  xmlns:xlink="http://www.w3.org/1999/xlink" viewBox="0 0 259.9 41.88" xmlns:v="https://vecta.io/nano"><path d="M43.34.54H4.46c-.53 0-1.1.4-1.1.93v38.86c0 .54.57 1 1.1 1h38.88c.53 0 .82-.47.82-1V1.47c-.01-.53-.29-.93-.82-.93zM19.51 5.92h8.5v7.22h-8.5V5.92zm-10.48 0h8.5v7.22h-8.5V5.92zm13.31 30.17H9.03v-7.65h13.31v7.65zm0-10.34H9.03V18.1h13.31v7.65zm16.57 10.34H25.6v-7.65h13.31v7.65zm0-10.34H25.6V18.1h13.31v7.65zm0-12.6h-8.5V5.92h8.5v7.23z" fill="#f15d32"/><g fill="#373747"><path d="M55.95 28.73c.06-.54.24-1.1.54-1.65.3-.56.65-1 1.04-1.33 2.01 1.29 3.97 1.93 5.9 1.93.94 0 1.68-.22 2.22-.66s.82-.99.82-1.65c-.04-1.13-.79-2.02-2.25-2.66l-3.45-1.46c-1.36-.56-2.39-1.29-3.07-2.18s-1.02-1.9-1.02-3.05c0-.88.17-1.68.51-2.4s.83-1.34 1.46-1.86 1.38-.92 2.25-1.21 1.83-.44 2.88-.44c2.14 0 4.25.54 6.31 1.61-.06 1.19-.52 2.18-1.37 2.98-1.97-.92-3.68-1.37-5.14-1.37-.94 0-1.65.21-2.15.64s-.75.95-.75 1.57c0 .89.69 1.63 2.07 2.21l3.45 1.46c1.4.58 2.48 1.35 3.24 2.31s1.14 2.06 1.14 3.3c0 .88-.16 1.69-.47 2.44s-.78 1.39-1.42 1.93c-.63.54-1.42.96-2.37 1.26s-2.06.45-3.35.45c-2.48-.01-4.82-.73-7.02-2.17zm24.6-7.22c0-1.58-.51-2.37-1.52-2.37-.84.04-1.69.5-2.54 1.37v9.97c-.58.1-1.22.15-1.9.15a11.35 11.35 0 0 1-1.9-.15V16.01l.18-.2h1.43c1.15 0 1.85.6 2.1 1.81 1.36-1.27 2.72-1.9 4.06-1.9 1.6 0 2.73.7 3.39 2.1 1.5-1.4 3.02-2.1 4.56-2.1 1.25 0 2.2.42 2.85 1.27s.98 1.95.98 3.32v6.78c0 1.25.2 2.17.61 2.78-.68.54-1.44.82-2.26.82-.83 0-1.4-.19-1.71-.58s-.47-.98-.47-1.78v-6.84c0-1.56-.52-2.34-1.55-2.34-.78 0-1.62.47-2.51 1.4v9.94c-.58.1-1.22.15-1.9.15a11.35 11.35 0 0 1-1.9-.15v-8.98zm26.54 7.22c-.1.35-.27.72-.53 1.11s-.51.68-.76.88c-1.27-.16-2.19-.71-2.78-1.67-1.27 1.23-2.65 1.84-4.15 1.84-.76 0-1.43-.12-2-.37a4 4 0 0 1-1.43-.98c-.38-.41-.66-.88-.85-1.4a4.75 4.75 0 0 1-.28-1.64c0-.82.14-1.53.42-2.15.28-.61.68-1.13 1.2-1.54s1.12-.72 1.81-.93 1.45-.32 2.27-.32l2.45.09v-.79c0-1.48-.72-2.22-2.16-2.22-.97 0-2.45.34-4.44 1.02-.55-.6-.88-1.51-.99-2.72 2.06-.88 4.2-1.32 6.4-1.32 1.46 0 2.66.41 3.59 1.23s1.4 2.06 1.4 3.71v5.99c.01 1.05.28 1.77.83 2.18zM99.72 28c.97 0 1.89-.43 2.75-1.29v-2.54l-.91-.06-.85-.03c-.86 0-1.51.16-1.96.48s-.67.85-.67 1.59c0 .58.15 1.04.44 1.36.3.32.7.49 1.2.49zm8.74-10.26c.08-.35.24-.72.48-1.11s.49-.68.75-.88c1.58.19 2.66 1.07 3.24 2.63.74-1.73 1.98-2.6 3.71-2.6.64 0 1.23.07 1.75.2 0 1.36-.31 2.55-.94 3.57-.29-.1-.74-.17-1.34-.2-1.13 0-2.05.6-2.75 1.81v9.32c-.58.1-1.21.15-1.88.15s-1.32-.05-1.94-.15v-9.73c0-1.39-.36-2.39-1.08-3.01zm19.84-1.78a5.55 5.55 0 0 1 .18 1.37 5.49 5.49 0 0 1-.18 1.37l-3.54-.06v7.69c0 .9.42 1.34 1.26 1.34h1.81c.19.58.29 1.14.29 1.67s-.03.87-.09 1.02a23.42 23.42 0 0 1-3.51.26c-2.34 0-3.51-1.19-3.51-3.57v-8.39l-2.22.03c-.1-.39-.15-.85-.15-1.37s.05-.98.15-1.37l2.22.03v-2.1c0-.86.16-1.46.47-1.81s.85-.53 1.61-.53h1.46l.2.18v4.3l3.55-.06zm14.49 7.89h-2.68v6.63c-.55.1-1.21.15-1.97.15s-1.42-.05-1.97-.15V10.67l.2-.18 3.96-.09 2.44-.03c2.1 0 3.78.58 5.04 1.72 1.26 1.15 1.88 2.82 1.88 5 0 1.09-.17 2.06-.5 2.89-.33.84-.8 1.54-1.4 2.1-.6.57-1.33 1-2.17 1.3-.83.32-1.78.47-2.83.47zm-2.68-10.44v7.45l1.93-.03c.53 0 .99-.03 1.37-.1s.7-.19.96-.38c.26-.18.5-.46.71-.83.19-.33.34-.71.44-1.13s.15-.84.15-1.27a5.96 5.96 0 0 0-.15-1.33c-.1-.44-.26-.83-.49-1.18s-.54-.63-.93-.85-.87-.32-1.45-.32h-1.47l-1.07-.03z"/><use xlink:href="#B"/><path d="M164.13 29.46c.02-.43.14-.9.37-1.42.22-.52.48-.92.77-1.21 1.54.84 2.89 1.26 4.06 1.26.64 0 1.16-.13 1.56-.38s.6-.59.6-1.02c0-.68-.53-1.23-1.58-1.64l-1.64-.61c-2.46-.9-3.68-2.33-3.68-4.3 0-.7.13-1.33.39-1.89s.63-1.03 1.11-1.43a5.02 5.02 0 0 1 1.71-.92c.66-.21 1.4-.32 2.22-.32a9.64 9.64 0 0 1 1.24.09l1.39.25 1.34.37c.43.14.8.28 1.11.44 0 .49-.1.99-.29 1.52-.2.53-.46.92-.79 1.17-1.54-.68-2.87-1.02-4-1.02-.51 0-.91.12-1.2.37s-.44.56-.44.95c0 .6.49 1.08 1.46 1.43l1.78.64c1.29.45 2.24 1.06 2.86 1.84a4.25 4.25 0 0 1 .93 2.72c0 1.38-.52 2.49-1.55 3.32s-2.51 1.24-4.44 1.24c-1.86-.02-3.63-.5-5.29-1.45zm21.1-13.5a5.55 5.55 0 0 1 .18 1.37 5.49 5.49 0 0 1-.18 1.37l-3.54-.06v7.69c0 .9.42 1.34 1.26 1.34h1.81c.19.58.29 1.14.29 1.67s-.03.87-.09 1.02a23.42 23.42 0 0 1-3.51.26c-2.34 0-3.51-1.19-3.51-3.57v-8.39l-2.22.03c-.1-.39-.15-.85-.15-1.37s.05-.98.15-1.37l2.22.03v-2.1c0-.86.16-1.46.47-1.81s.85-.53 1.61-.53h1.46l.21.18v4.3l3.54-.06zm6.08 12.77c.06-.54.24-1.1.54-1.65.3-.56.65-1 1.04-1.33 2.01 1.29 3.97 1.93 5.9 1.93.94 0 1.68-.22 2.22-.66s.82-.99.82-1.65c-.04-1.13-.79-2.02-2.25-2.66l-3.45-1.46c-1.36-.56-2.39-1.29-3.07-2.18s-1.02-1.9-1.02-3.05c0-.88.17-1.68.51-2.4s.83-1.34 1.46-1.86 1.38-.92 2.25-1.21 1.83-.44 2.88-.44c2.14 0 4.25.54 6.31 1.61-.06 1.19-.52 2.18-1.37 2.98-1.97-.92-3.68-1.37-5.14-1.37-.94 0-1.65.21-2.15.64s-.75.95-.75 1.57c0 .89.69 1.63 2.08 2.21l3.45 1.46c1.4.58 2.48 1.35 3.24 2.31s1.14 2.06 1.14 3.3c0 .88-.16 1.69-.47 2.44s-.78 1.39-1.42 1.93c-.63.54-1.42.96-2.37 1.26s-2.06.45-3.35.45c-2.48-.01-4.83-.73-7.03-2.17zm28.7-8.01v6.37c0 1.25.21 2.17.61 2.78-.62.54-1.37.82-2.25.82-.84 0-1.41-.19-1.72-.57s-.47-.98-.47-1.8v-6.81c0-.88-.11-1.49-.32-1.84s-.61-.53-1.2-.53c-1.03 0-2 .47-2.89 1.4v9.94a6.57 6.57 0 0 1-.89.12l-.95.03a14.99 14.99 0 0 1-.94-.03c-.31-.02-.62-.06-.93-.12V9.17l.17-.2h1.49c.76 0 1.29.18 1.59.53s.45.96.45 1.84v6.17c1.36-1.19 2.74-1.78 4.12-1.78 1.4 0 2.44.45 3.11 1.36.68.9 1.02 2.11 1.02 3.63z"/><use xlink:href="#B" x="71.98"/><path d="M238.54 28.73l-2.92-12.54c.76-.31 1.45-.47 2.06-.47s1.06.13 1.34.39.47.67.57 1.21l1.11 5.38.85 4.71c.04.16.12.23.23.23l2.02-11.57c.6-.12 1.36-.18 2.28-.18s1.66.06 2.22.18l2.02 11.34c.02.16.1.23.23.23l.91-4.94 1.46-6.72c.41-.12.99-.18 1.74-.18s1.34.11 1.77.32l.12.23-3.51 14.12c-.64.1-1.48.15-2.5.15s-1.72-.12-2.09-.35-.61-.73-.73-1.49l-.64-3.59-.94-5.79h-.17l-.96 5.76-1.01 5.32c-.68.1-1.53.15-2.54.15s-1.71-.13-2.09-.38c-.38-.26-.66-.76-.83-1.52z"/></g><defs ><path id="B" d="M161.12 17.21c1.38 1.38 2.08 3.39 2.08 6.02 0 1.17-.15 2.23-.44 3.17-.29.95-.72 1.75-1.27 2.41s-1.24 1.17-2.06 1.53-1.74.54-2.78.54c-1.03 0-1.95-.18-2.76-.54s-1.49-.87-2.05-1.53-.98-1.47-1.27-2.41-.44-2-.44-3.17c0-2.36.57-4.22 1.7-5.6s2.74-2.06 4.82-2.06c1.83.01 3.32.55 4.47 1.64zm-4.47 1.23c-1.71 0-2.57 1.6-2.57 4.79 0 3.18.86 4.76 2.57 4.76 1.73 0 2.6-1.59 2.6-4.76 0-3.19-.87-4.79-2.6-4.79z"/></defs></svg>