<svg xmlns="http://www.w3.org/2000/svg" viewBox="0 0 128 128" width="100" height="100"  xmlns:v="https://vecta.io/nano"><linearGradient id="A" gradientUnits="userSpaceOnUse" x1="2.363" y1="125.638" x2="125.638" y2="2.363"><stop offset="0" stop-color="#f8f8f8"/><stop offset="1" stop-color="#f8f8f8"/></linearGradient><path d="M119.9 128H8.1c-4.5 0-8.1-3.6-8.1-8.1V8.1C0 3.6 3.6 0 8.1 0h111.8c4.5 0 8.1 3.6 8.1 8.1v111.8c0 4.5-3.6 8.1-8.1 8.1z" fill="url(#A)"/><path d="M19.8 19.4h25.1v21.4H19.8zm0 36h39.4V78H19.8zm0 30.5h39.4v22.6H19.8zm49 0h39.4v22.6H68.8zm0-30.4h39.4v22.6H68.8zM51.4 19.4h25.1v21.4H51.4zm31.5 0H108v21.4H82.9z" fill="#e96443"/></svg>