<svg xmlns="http://www.w3.org/2000/svg" height="300" width="300" fill="#f05d31" viewBox="0 0 100 100"  xmlns:v="https://vecta.io/nano"><path d="M32.164 21.198c0-3.697-2.991-6.688-6.688-6.688s-6.688 2.99-6.688 6.688v19.881h13.377V21.198zm-16.726 33.26h3.349v24.339c0 3.698 2.991 6.688 6.688 6.688s6.688-2.99 6.688-6.688V54.458h3.345v-8.919h-20.07v8.919zm41.252-33.26c0-3.697-2.991-6.688-6.688-6.688s-6.688 2.99-6.688 6.688V57.43H56.69V21.198zM39.969 70.811h3.345v7.99c0 3.699 2.991 6.688 6.688 6.688s6.688-2.989 6.688-6.688v-7.99h3.345v-8.917H39.969v8.917zm41.248-49.613c0-3.697-2.991-6.688-6.688-6.688s-6.688 2.99-6.688 6.688v7.617h13.377v-7.617zm3.345 12.076H64.495v8.921h3.345v36.602c0 3.697 2.991 6.688 6.688 6.688s6.688-2.991 6.688-6.688V42.195h3.345v-8.921z"/></svg>