<svg xmlns="http://www.w3.org/2000/svg" height="300" width="300" fill="#f05d31" viewBox="0 0 100 100"  xmlns:v="https://vecta.io/nano"><path d="M5273.1 2400.1v-2c0-2.8-5-4-9.7-4s-9.7 1.3-9.7 4v2c0 1.8.7 3.6 2 4.9l5 4.9c.3.3.4.6.4 1v6.4c0 .4.2.7.6.8l2.9.9c.5.1 1-.2 1-.8v-7.2c0-.4.2-.7.4-1l5.1-5c1.3-1.3 2-3.1 2-4.9zm-9.7-.1c-4.8 0-7.4-1.3-7.5-1.8h0c.1-.5 2.7-1.8 7.5-1.8s7.3 1.3 7.5 1.8c-.2.5-2.7 1.8-7.5 1.8zm5 10.3a1 1 0 1 0 0 2h4.3a1 1 0 1 0 0-2h-4.3zm4.3 3.4h-4.3a1 1 0 1 0 0 2h4.3a1 1 0 1 0 0-2zm0 3.3h-4.3a1 1 0 1 0 0 2h4.3a.94.94 0 0 0 1-1c0-.5-.4-1-1-1zM94.9 23H38.7c-1.4 0-2.6 1.1-2.6 2.6v19.3c.8-.3 1.6-.4 2.5-.4s1.8.2 2.7.5V28.2h51v43.5h-51V59.6l-5.2 2.7v12a2.65 2.65 0 0 0 2.6 2.6h56.2a2.65 2.65 0 0 0 2.6-2.6V25.6c0-1.5-1.1-2.6-2.6-2.6zM42.5 50.3c-1.1-2.1-3.7-3-5.8-1.9l-8.1 4.1-9.5-6.4c-.9-.6-1.9-1.2-2.6-1.4-2.9-.9-10.2-1.6-12.3 3.2C2.1 53 2.5 66.2 2.6 75.6c0 .8.5 1.5 1.4 1.5h15.6c.9 0 1.3-.5 1.4-1.3.1-.5.9-11.1.9-15.8v-1.6l4.1 2.8c.7.5 1.6.7 2.4.7.7 0 1.3-.2 2-.5l10.3-5.3c2-1.1 2.9-3.7 1.8-5.8z"/><circle cx="13.3" cy="32.4" r="9.4"/><path d="M49.6 47.8h11.5c.5 0 .8-.4.8-.8V35.4c0-.5-.4-.8-.8-.8H49.6c-.5 0-.8.4-.8.8V47c0 .4.3.8.8.8zM67.5 39H84c.5 0 .8-.4.8-.8v-2.8c0-.5-.4-.8-.8-.8H67.5c-.5 0-.8.4-.8.8v2.8c0 .4.3.8.8.8zm-.8 7.9c0 .5.4.8.8.8H80c.5 0 .8-.4.8-.8v-2.8c0-.5-.4-.8-.8-.8H67.5c-.5 0-.8.4-.8.8v2.8zM48.8 64.4c0 .5.4.8.8.8h11.5c.5 0 .8-.4.8-.8V52.9c0-.5-.4-.8-.8-.8H49.6c-.5 0-.8.4-.8.8v11.5zm17.9-8.7c0 .5.4.8.8.8H84c.5 0 .8-.4.8-.8v-2.8c0-.5-.4-.8-.8-.8H67.5c-.5 0-.8.4-.8.8v2.8zm0 8.7c0 .5.4.8.8.8H80c.5 0 .8-.4.8-.8v-2.8c0-.5-.4-.8-.8-.8H67.5c-.5 0-.8.4-.8.8v2.8z"/></svg>