<svg xmlns="http://www.w3.org/2000/svg" height="300" width="300" fill="#f05d31" viewBox="0 0 100 100"  xmlns:v="https://vecta.io/nano"><path d="M72.9 86.4c0 1-.8 1.7-1.7 1.7H12.5c-1 0-1.7-.8-1.7-1.7V34.3h35.3l22.5-22.5h-56c-5.5 0-10 4.5-10 10v64.5c0 5.5 4.5 10 10 10h58.6c5.5 0 10-4.5 10-10V40.7L72.9 49v37.4zM34 65c-.2 1.2.9 2.3 2.2 2.1L48 65.6c1.9-.2 3.6-1.1 4.9-2.4l.6-.6-14.9-15-.6.6c-1.3 1.3-2.2 3.1-2.4 4.9L34 65zm62.2-51.7L87.8 5c-.9-.9-2.1-1.4-3.3-1.4S82.1 4 81.3 5L41.5 44.8l14.9 14.9 39.8-39.8c1.7-1.8 1.7-4.8 0-6.6z"/></svg>