<svg xmlns="http://www.w3.org/2000/svg" height="300" width="300" fill="#f05d31" viewBox="0 0 100 100"  xmlns:v="https://vecta.io/nano"><path d="M86.805 13.194c-8.09-8.101-14.168-6.886-14.168-6.886L11.904 67.034 6.24 93.752l26.72-5.665 60.736-60.723c-.001 0 1.212-6.072-6.891-14.17zM31.369 84.873l-9.112 1.961c-.878-1.647-1.937-3.285-3.872-5.228-1.936-1.936-3.584-2.998-5.232-3.874l1.961-9.114 2.636-2.625s4.963.097 10.549 5.694c5.595 5.601 5.702 10.549 5.702 10.549l-2.632 2.637zm-7.307-37.632l3.828-3.827-17.375-17.376 15.523-15.523 3.587 3.587-4.836 4.836c-1.059 1.055-1.057 2.771 0 3.826a2.7 2.7 0 0 0 3.826 0l4.836-4.836 6.615 6.611-4.838 4.84c-1.057 1.055-1.057 2.771.002 3.826.58.581 1.355.811 2.116.753l9.893-9.895L29.521 6.345c-1.92-1.92-5.202-1.768-7.312.343L6.688 22.212c-2.109 2.11-2.262 5.388-.341 7.312l17.715 17.717zm69.59 23.235L75.945 52.769 65.812 62.902c.064.589.285 1.169.738 1.622a2.7 2.7 0 0 0 3.824 0l4.838-4.837 6.613 6.615-4.838 4.837c-1.057 1.055-1.057 2.771 0 3.825a2.7 2.7 0 0 0 3.828 0l4.836-4.836 3.832 3.833-15.522 15.524L56.596 72.12l-3.828 3.826 17.709 17.708c1.922 1.921 5.201 1.768 7.312-.339L93.31 77.792c2.114-2.114 2.264-5.393.342-7.316z"/></svg>