<svg xmlns="http://www.w3.org/2000/svg" height="300" width="300" fill="#f05d31" viewBox="0 0 10996 13036" fill-rule="evenodd"  shape-rendering="geometricPrecision" image-rendering="optimizeQuality" xmlns:v="https://vecta.io/nano"><path d="M1174 2985h8648v2899H1174V2985zm0 3759h8648v437H1174v-437zm0 1113h8648v437H1174v-437zm0 1113h2724v2899H1174V8970zm3467 0h5181v437H4641v-437zm0 2226h3888v437H4641v-437zm0-1113h5181v437H4641v-437zm6355-8159v11112H0V1924h10996zM1109 0h8778c610 0 1109 499 1109 1109v475H0v-475C0 499 499 0 1109 0zm3592 559h4811c373 0 373 522 0 522H4701c-374 0-374-522 0-522zm-3521 0c145 0 262 117 262 261s-117 261-262 261c-144 0-261-117-261-261s117-261 261-261zm1601 0c144 0 261 117 261 261s-117 261-261 261c-145 0-262-117-262-261s117-261 262-261zm-801 0c145 0 262 117 262 261s-117 261-262 261c-144 0-261-117-261-261s117-261 261-261zm8604 1777H412v10288h10172V2336z"/></svg>