<svg xmlns="http://www.w3.org/2000/svg" height="300" width="300" fill="#f05d31" viewBox="0 0 100 100"  xmlns:v="https://vecta.io/nano"><path d="M92.45,74.86,71.51,60.66a37.94,37.94,0,0,0-4.87-47.58h0a37.87,37.87,0,1,0-6,58.44l14.2,20.93a12.62,12.62,0,0,0,9.28,5.5q.61.06,1.21.06a12.66,12.66,0,0,0,7.1-23.14ZM59,59a27.09,27.09,0,1,1,0-38.33A26.93,26.93,0,0,1,59,59ZM54.23,31.5a2.46,2.46,0,0,1,.08,3.41L38.67,52A2.47,2.47,0,0,1,35,52L25.36,40.86a2.47,2.47,0,0,1,.12-3.36l2.74-2.74a2.47,2.47,0,0,1,3.26-.2l5.27,4.12,11.35-10a2.47,2.47,0,0,1,3.38.1Z"/></svg>