<svg xmlns="http://www.w3.org/2000/svg" height="300" width="300" fill="#f05d31" viewBox="0 0 26.458 26.458"  xmlns:v="https://vecta.io/nano"><path d="M9.992 2.905c-3.343 0-5.311 1.829-6.186 3.578S2.947 9.95 2.947 9.95h2.162s.014-1.265.631-2.498 1.63-2.385 4.252-2.385z"/><path d="M4.028 12.446L1.865 8.704h4.326zm8.461-8.46L8.747 6.149V1.823z" fill-rule="evenodd" stroke="#000" stroke-width=".433pt"/><path d="M14.467 1.323a1.1 1.1 0 0 0-1.1 1.101v15.872a1.1 1.1 0 0 0 1.1 1.103h9.524a1.1 1.1 0 0 0 1.101-1.103V2.424a1.1 1.1 0 0 0-1.101-1.101h-9.524zm1.102 2.201h7.323v13.673h-7.323V3.524zM2.466 13.412a1.1 1.1 0 0 0-1.1 1.099v9.523a1.1 1.1 0 0 0 1.1 1.101h15.872a1.1 1.1 0 0 0 1.101-1.101v-4.115h-2.202v3.017H3.567v-7.324h9.256v-2.2H2.466z" paint-order="normal"/></svg>