<svg xmlns="http://www.w3.org/2000/svg" height="300" width="300" fill="#f05d31" viewBox="0 0 100 100"  xmlns:v="https://vecta.io/nano"><path d="M50.006 5.041l-.088.001c-.561.014-13.853.414-23.205 6.41a3.52 3.52 0 0 0-1.064 4.865c1.05 1.637 3.228 2.113 4.865 1.064 7.469-4.788 18.836-5.272 19.547-5.297 20.897.029 37.888 17.039 37.888 37.943 0 20.921-17.021 37.942-37.942 37.942-10.406 0-20.467-4.191-27.601-11.499-6.906-7.073-10.579-16.434-10.343-26.331.222-6.954 3.798-13.155 8.696-15.08 3.498-1.375 7.408-.489 11.459 2.547-4.586 7.064-3.787 16.63 2.401 22.819l5.644 5.644c.661.66 1.556 1.031 2.49 1.031s1.829-.371 2.49-1.031l2.324-2.324 5.644 5.644c.688.687 1.589 1.031 2.49 1.031s1.802-.344 2.49-1.031c1.375-1.376 1.375-3.605 0-4.98l-5.644-5.644 6.197-6.197 5.644 5.644c.688.687 1.589 1.031 2.49 1.031s1.802-.344 2.49-1.031c1.375-1.376 1.375-3.605 0-4.98l-5.644-5.644 2.324-2.324c1.375-1.376 1.375-3.605 0-4.98l-5.644-5.645c-3.444-3.443-8.023-5.34-12.892-5.34-3.754 0-7.332 1.131-10.353 3.224-8.311-6.604-15.315-5.457-18.977-4.018-7.556 2.97-12.844 11.574-13.159 21.438-.284 11.837 4.1 23.006 12.342 31.447 8.452 8.656 20.349 13.621 32.64 13.621 24.805 0 44.985-20.18 44.985-44.985S74.811 5.041 50.006 5.041z"/></svg>