<svg xmlns="http://www.w3.org/2000/svg" xmlns:xlink="http://www.w3.org/1999/xlink" viewBox="0 0 1007 560.9" xmlns:v="https://vecta.io/nano"><style><![CDATA[.q{fill:#fff}.r{fill:#f06259}.s{fill:#f0676d}.t{fill:#ccb8c6}.u{fill:#cb4949}.v{fill:#dba585}.w{fill:#943838}.x{font-family:Lato-Bold}.y{font-size:10.334px}.z{fill:#404347}]]></style><path d="M820.9 328c.7-2.3 1.1-2.5 1.1-2.5l25.7 2.9c2.2.2 33-6.2 33-6.2l14.5 17.6s-42.8 1.6-48.4 1.1c-9.3-.9-26-9.5-26-9.5s-.5-1.6.1-3.4z" class="w"/><path d="M190.5 209.4c-3.2-3.4-5.3-7.6-7.8-11.5-7.1-11.1-17.5-20.1-29.5-25.4 20 3.6 41.6 7.9 55.3 22.9 9.3 10.2 16.3 23.9 30.8 26.7-16.1 3.2-37.1-.3-48.8-12.7zm-24.7-71.8c-1.6-4.4-1.9-9.1-2.6-13.7-2.1-13-8.1-25.4-17-35 17 11.2 35 23.8 41.6 43 4.5 13 5.5 28.4 17.7 36.8-16-3.5-33.9-15.1-39.7-31.1zm38.5 11c0-4.6 1.5-9.2 2.4-13.7 2.7-12.9 1.4-26.6-3.6-38.8 11.9 16.5 24.4 34.6 23.8 54.9-.4 13.8-4.9 28.5 3.6 40.6-13.7-8.8-26.4-25.9-26.2-43zm23.8 159.3c-4.4-1.4-9.2-1.4-13.8-2-13.1-1.5-25.7-6.9-35.7-15.4 12 16.4 25.4 33.9 44.9 39.6 13.2 3.9 28.6 4.2 37.5 16-4.3-15.8-16.6-33.1-32.9-38.2zm-60.1 9.5c-4.6.5-9 2.3-13.4 3.7-12.6 3.9-26.3 3.9-38.9.1 17.5 10.3 36.7 21 56.9 18.5 13.7-1.7 27.9-7.5 40.8-.2-10.2-12.8-28.4-23.8-45.4-22.1zm18.1 29.6c-4.2 2.1-7.6 5.3-11.3 8.2-10.4 8-23.3 12.9-36.4 13.8 20 3.5 41.8 6.7 59.8-2.7 12.2-6.4 23.5-16.9 38.1-14.6-14-8.4-34.9-12.3-50.2-4.7zM283 152.4l12.4 11.4c6.1 5.5 3.7-2.5 2.3-6.7-1-2.8-4.5-10.3-8.7-14.8-3.3-3.4-6.9-4.9-9.9-.9-1.3 1.7-1.1 4.1-.2 6.1s2.5 3.5 4.1 4.9zm.9-24l12.4 11.4c6.1 5.5 3.7-2.5 2.3-6.7-1-2.8-4.5-10.3-8.7-14.8-3.3-3.4-6.9-4.9-9.9-.9-1.3 1.7-1.1 4.1-.2 6.1s2.5 3.4 4.1 4.9zm62.5-106.7c-1.9-4.2-5.4-3.6-8.9-1.2-4.5 3.1-9.2 9-10.5 11.3-.9 1.4-2.1 3.5-2.6 5-4.2 5.5-7.7 11.6-10.7 18.4-.2-1.1-.4-2.3-.7-3.2-.6-2.5-3-9.2-6.2-13.4-2.5-3.2-5.5-4.8-8.4-1.6-1.2 1.3-1.3 3.5-.7 5.2s1.9 3.1 3.1 4.5l9.7 10.8a10.16 10.16 0 0 0 1.6 1.5c-1.6 4-3 8.2-4.2 12.7-.7 2.4-1.2 4.8-1.8 7.2-.5-2.7-2.3-9.3-5.1-13.4-2.2-3.4-5.1-5.2-8.3-2.2-1.3 1.2-1.6 3.3-1.1 5.1s1.6 3.3 2.7 4.7l8.8 11.6c.6.7 1 1.2 1.4 1.6a253.55 253.55 0 0 0-2.7 21.1c-.9-3.6-3-10-5.9-14.2-2.7-3.9-6-6-9.6-2.4-1.5 1.5-1.8 3.9-1.1 5.9.6 2 2 3.8 3.3 5.4l10.4 13.3c1 1.2 1.7 1.9 2.3 2.2-.3 5.1-.4 10.1-.5 14.9l-.1 14.5c0 14.4 0 28-3 41.9-.1-1.9-1-4.6-1.7-6.5-1-2.8-4.5-10.3-8.7-14.8-3.3-3.4-6.9-4.9-9.9-.9-1.3 1.7-1.1 4.1-.2 6.1.9 1.9 2.5 3.4 4.1 4.8l12.4 11.4c1.9 1.7 3 2.1 3.5 1.7-1.5 6.1-3.4 12.2-5.7 18.3-.4-1.5-.9-3.1-1.3-4.4-1-2.8-4.5-10.3-8.7-14.8-3.3-3.4-6.9-4.9-9.9-.9-1.3 1.7-1.1 4.1-.2 6.1.9 1.9 2.5 3.4 4.1 4.8l12.4 11.4a7.56 7.56 0 0 0 2.1 1.5c-2.2 5.5-4.8 11-7.8 16.7.1-1.8-1-5-1.7-7.2-1-2.8-4.5-10.3-8.7-14.8-3.3-3.4-6.9-4.9-9.9-.9-1.3 1.7-1.1 4.1-.2 6.1.9 1.9 2.5 3.4 4.1 4.8l12.4 11.4c1.6 1.5 2.7 2 3.3 1.8-5.2 9.8-11.6 19.9-19.3 30.6-.5.7-1.4 1.2-1.8 1.2 0 0-.1 0-.1-.1l-1.6.9a1.78 1.78 0 0 0 1.6 1c.3 0 .5 0 .8-.1 1-.3 2-1.1 2.5-1.9 6.7-9.4 12.5-18.4 17.4-27.1.5.3 1.7.3 3.6-.2l16.4-4.1c2.1-.5 4.2-1.1 5.9-2.3s3-3.3 2.7-5.4c-.7-5-4.6-5.4-9.1-4-5.8 1.9-12.5 6.8-14.7 8.8-.6.5-1.2 1.1-1.9 1.8 2.8-5.4 5.3-10.6 7.5-15.9.5.3 1.6.3 3.7-.1l16.4-4.1c2.1-.5 4.2-1.1 5.9-2.3s3-3.3 2.7-5.4c-.7-5-4.6-5.4-9.1-4-5.8 1.9-12.5 6.8-14.7 8.8-1 .9-2.3 2.2-3.4 3.4 2.5-6.5 4.5-12.9 6.1-19.4.6.2 1.7.2 3.5-.2l16.4-4.1c2.1-.5 4.2-1.1 5.9-2.3s3-3.3 2.7-5.4c-.7-5-4.6-5.4-9.1-4-5.8 1.9-12.5 6.8-14.7 8.8-1.2 1.1-2.9 2.7-4 4.1 1.5-7.1 2.2-14.2 2.5-21.3.6-.1 1.4-.4 2.5-1l14.9-7.9c1.9-1 3.8-2 5.2-3.6s2.2-3.9 1.4-5.9c-1.9-4.7-5.8-4.2-9.8-1.7-5.2 3.2-10.5 9.6-12.1 12.1-.6.8-1.2 1.9-1.8 2.9l.1-14.7v-4.1c.6 0 1.6-.3 3.1-1.1l14.9-7.9c1.9-1 3.8-2 5.2-3.6s2.2-3.9 1.4-5.9c-1.9-4.7-5.8-4.2-9.8-1.7-5.2 3.2-10.5 9.6-12.1 12.1-.8 1.2-1.8 2.8-2.6 4.3l.1-6.6c.1-5 .3-10 .6-14.9.6-.1 1.5-.4 2.7-1l14.9-7.9c1.9-1 3.8-2 5.2-3.6s2.2-3.9 1.4-5.9c-1.9-4.7-5.8-4.2-9.8-1.7-5.2 3.2-10.5 9.6-12.1 12.1-.6.9-1.3 1.9-1.9 3 .3-4.4.7-8.8 1.2-13.2l.8-6.5c.2-1.3.1-2.7.7-3.8.7-1.5 2.1-1.7 3.5-2.4l14.9-7.9c1.9-1 3.8-2 5.2-3.6s2.2-3.9 1.4-5.9c-1.9-4.7-5.8-4.2-9.8-1.7-5.2 3.2-10.5 9.6-12.1 12.1-.6.9-1.3 1.9-1.9 3 1.6-7.7 3.6-15.2 6.3-22.2.6.1 1.4 0 2.5-.3 5-1 9.9-2.2 14.8-3.3 1.9-.4 3.8-.9 5.4-1.9 1.6-1.1 2.8-2.9 2.6-4.8-.5-4.6-4-5-8.1-3.8-5.2 1.6-11.4 5.9-13.4 7.6-.5.5-1.1 1-1.7 1.5 1.6-3.5 3.3-6.9 5.3-10.1 2.1-3.4 3.5-5.5 7-7.2 4.4-2 8.6-5 12.8-7.4 1.7-1 3.4-1.9 4.6-3.4.9-1.4 1.5-3.5.7-5.2zM164.6 209.9l-3.1 16.6c-1.6 8.1-4.5.2-5.8-4-.9-2.8-2.5-11-1.8-17 .6-4.7 2.6-8.1 7.4-6.6 2 .6 3.4 2.7 3.7 4.8.4 1.9 0 4.1-.4 6.2zm-15-18.8l-3.1 16.6c-1.6 8.1-4.5.2-5.8-4-.9-2.8-2.5-11-1.8-17 .6-4.7 2.6-8.1 7.4-6.6 2 .6 3.4 2.7 3.7 4.8.4 2 0 4.2-.4 6.2zM35.7 143c-1-4.5 2.2-6.1 6.4-6.3 5.5-.3 12.7 1.7 15.2 2.7 1.6.6 3.7 1.5 5.1 2.5 6.6 1.9 13.1 4.7 19.6 8.3-.5-1-1-2.1-1.4-3-1-2.3-3.1-9.2-3-14.4.1-4.1 1.5-7.1 5.8-6.3 1.8.3 3.1 2 3.6 3.7.5 1.8.3 3.6.2 5.4L85.9 150c-.1.9-.2 1.6-.4 2.1a126.01 126.01 0 0 1 10.9 7.6l5.8 4.7c-1.2-2.5-3.7-8.8-4-13.8-.2-4.1.9-7.2 5.3-6.7 1.8.2 3.3 1.7 3.9 3.4s.6 3.6.6 5.4l-.1 14.5a10.61 10.61 0 0 1-.2 2.1c5.2 4.9 10.1 10.1 14.7 15.4-1.5-3.4-3.6-9.8-3.8-14.9-.2-4.7 1.2-8.4 6.3-7.7 2.1.3 3.8 2.1 4.5 4.1s.7 4.2.6 6.3l-.4 16.9c-.1 1.5-.2 2.5-.5 3.1a295.25 295.25 0 0 1 9.3 11.6c3 3.8 5.9 7.8 8.8 11.6 8.6 11.5 16.7 22.5 27.5 31.7-1-1.6-1.9-4.3-2.6-6.2-.9-2.8-2.5-11-1.8-17 .6-4.7 2.6-8.1 7.4-6.6 2 .6 3.4 2.7 3.7 4.8.4 2.1 0 4.2-.4 6.3l-3.1 16.6c-.5 2.5-1.1 3.5-1.8 3.5 4.8 4 10 7.8 15.5 11.3-.6-1.4-1.1-3-1.6-4.3-.9-2.8-2.5-11-1.8-17 .6-4.7 2.6-8.1 7.4-6.6 2 .6 3.4 2.7 3.7 4.8.4 2.1 0 4.2-.4 6.3l-3.1 16.6c-.2 1.1-.5 1.9-.7 2.5 5.1 3.1 10.5 5.9 16.2 8.7-1.1-1.4-2.2-4.6-2.9-6.8-.9-2.8-2.5-11-1.8-17 .6-4.7 2.6-8.1 7.4-6.6 2 .6 3.4 2.7 3.7 4.8.4 2.1 0 4.2-.4 6.3l-3.1 16.6c-.4 2.1-1 3.2-1.5 3.4 10.1 4.7 21.2 9 33.7 13 .8.3 1.8.2 2.1-.1v-.1l1.8-.2c.1.7-.2 1.3-.7 1.7-.2.2-.4.3-.7.4-1 .4-2.2.3-3.2 0-11-3.5-21-7.3-30.1-11.3-.3.6-1.2 1.2-3 2l-15.6 6.5c-2 .8-4 1.6-6.1 1.7s-4.4-.8-5.4-2.7c-2.4-4.5.5-7.1 4.9-8.6 5.8-2 14.1-2 17-1.7l2.6.3c-5.5-2.6-10.6-5.4-15.5-8.3-.2.6-1.1 1.3-3 2.1l-15.6 6.5c-2 .8-4 1.6-6.1 1.7s-4.4-.8-5.4-2.7c-2.4-4.5.5-7.1 4.9-8.6 5.8-2 14.1-2 17-1.7 1.4.1 3.2.4 4.7.7-5.9-3.7-11.4-7.7-16.4-11.9-.3.5-1.2 1.2-2.9 1.9l-15.6 6.5c-2 .8-4 1.6-6.1 1.7s-4.4-.8-5.4-2.7c-2.4-4.5.5-7.1 4.9-8.6 5.8-2 14.1-2 17-1.7 1.7.2 3.9.4 5.6.9-5.4-4.8-10.2-10.1-14.7-15.5-.6.3-1.4.5-2.6.7l-16.7 2.5c-2.1.3-4.3.6-6.3.2-2.1-.5-4.1-1.9-4.6-3.9-1.3-4.9 2.2-6.8 6.9-7.2 6.1-.5 14.2 1.5 17 2.5.9.3 2.1.8 3.2 1.2-3.1-3.9-6-7.8-8.9-11.7-.8-1.1-1.6-2.2-2.5-3.3-.5.4-1.5.7-3.1 1l-16.7 2.5c-2.1.3-4.3.6-6.3.2-2.1-.5-4.1-1.9-4.6-3.9-1.3-4.9 2.2-6.8 6.9-7.2 6.1-.5 14.2 1.5 17 2.5 1.4.5 3.1 1.2 4.6 1.9-1.3-1.7-2.6-3.5-4-5.2l-9.4-11.6c-.6.3-1.5.6-2.8.8l-16.7 2.5c-2.1.3-4.3.6-6.3.2-2.1-.5-4.1-1.9-4.6-3.9-1.3-4.9 2.2-6.8 6.9-7.2 6.1-.5 14.2 1.5 17 2.5 1 .4 2.2.8 3.3 1.3-2.9-3.4-5.8-6.6-8.9-9.9-1.5-1.6-3-3.2-4.6-4.7-.9-.9-1.7-2.1-2.8-2.7-1.5-.7-2.7-.1-4.2.2l-16.7 2.5c-2.1.3-4.3.6-6.3.2-2.1-.5-4.1-1.9-4.6-3.9-1.3-4.9 2.2-6.8 6.9-7.2 6.1-.5 14.2 1.5 17 2.5 1 .4 2.2.8 3.3 1.3-5.9-5.3-12-10-18.3-14-.4.4-1.1.8-2.2 1.3l-13.9 6.2c-1.7.8-3.5 1.6-5.5 1.7-1.9.1-4-.6-4.9-2.3-2.3-4 .3-6.4 4.3-7.9 5.1-1.9 12.7-2.1 15.3-1.9.7.1 1.5.1 2.3.2-3.3-1.9-6.8-3.5-10.3-5-3.7-1.5-6.1-2.4-9.9-1.5-4.7 1-9.8 1.1-14.7 1.7-1.9.2-3.9.4-5.7 0-1.9-1-3.6-2.4-4-4.2z" fill="#f27a70"/><linearGradient id="A" gradientUnits="userSpaceOnUse" x1="791.793" y1="118.186" x2="227.786" y2="498.564"><stop offset="0"/><stop offset="1" stop-color="#000003"/></linearGradient><path d="M773.9 123.1H244.6c-9.4 0-17 7.7-17 17V483c0 3.4 2.8 6.2 6.2 6.2h550.8c3.4 0 6.2-2.8 6.2-6.2V140.2c.1-9.4-7.6-17.1-16.9-17.1z" fill="url(#A)"/><path d="M784.7 489.5H233.8c-3.5 0-6.4-2.9-6.4-6.4V140.2c0-9.5 7.7-17.2 17.2-17.2h529.3c9.5 0 17.2 7.7 17.2 17.2v342.9c0 3.5-2.9 6.4-6.4 6.4zM244.6 123.3c-9.3 0-16.9 7.6-16.9 16.9v342.9c0 3.3 2.7 6.1 6.1 6.1h550.8c3.3 0 6.1-2.7 6.1-6.1V140.2c0-9.3-7.6-16.9-16.9-16.9H244.6z" fill="#414042"/><path d="M242.1 142.9h533.7V476H242.1z" fill="#efa19f"/><linearGradient id="B" gradientUnits="userSpaceOnUse" x1="226.022" y1="312.169" x2="799.109" y2="312.169"><stop offset=".055" stop-color="#8c8c8c"/><stop offset=".218" stop-color="#a0a0a0"/><stop offset=".4" stop-color="#787878"/><stop offset=".642" stop-color="#a0a0a0"/><stop offset=".836" stop-color="#787878"/><stop offset="1" stop-color="#a0a0a0"/></linearGradient><path d="M773.9 121.6H244.6c-10.2 0-18.6 8.3-18.6 18.6v349.4a13.19 13.19 0 0 0 13.2 13.2h540.1a13.19 13.19 0 0 0 13.2-13.2V140.2c-.1-10.3-8.4-18.6-18.6-18.6zm17 368a11.61 11.61 0 0 1-11.6 11.6H239.2a11.61 11.61 0 0 1-11.6-11.6V140.2c0-9.4 7.7-17 17-17h529.3c9.4 0 17 7.7 17 17v349.4z" fill="url(#B)"/><path d="M784.7 489.3H233.8c-3.4 0-6.2-2.8-6.2-6.2v6.5a11.61 11.61 0 0 0 11.6 11.6h540.1a11.61 11.61 0 0 0 11.6-11.6v-6.5c0 3.4-2.8 6.2-6.2 6.2z"/><path d="M240.5,489.5v0.3c0,6.4,5.2,11.6,11.6,11.6h514.2c6.4,0,11.6-5.2,11.6-11.6v-0.3H240.5z" fill="#231f20"/><linearGradient id="C" gradientUnits="userSpaceOnUse" x1="509.229" y1="497.54" x2="509.229" y2="489.458"><stop offset=".04" stop-color="#404040"/><stop offset=".54" stop-color="#3d3f42"/><stop offset=".832" stop-color="#0a0e11"/><stop offset=".985" stop-color="#070b0e"/></linearGradient><path d="M296.2 489.5h426.1v8.1H296.2z" fill="url(#C)"/><linearGradient id="D" gradientUnits="userSpaceOnUse" x1="163.432" y1="503.061" x2="853.788" y2="503.061"><stop offset="0" stop-color="#828387"/><stop offset=".006" stop-color="#d0d1d3"/><stop offset=".031" stop-color="#929397"/><stop offset=".054" stop-color="#d1d2d5"/><stop offset=".054" stop-color="#d1d2d5"/><stop offset=".337" stop-color="#eaeaec"/><stop offset=".509" stop-color="#f3f3f4"/><stop offset=".689" stop-color="#e8e8ea"/><stop offset=".936" stop-color="#d1d2d5"/><stop offset=".964" stop-color="#929397"/><stop offset=".985" stop-color="#e6e6e6"/><stop offset=".991" stop-color="#d0d1d3"/><stop offset="1" stop-color="#828387"/></linearGradient><path d="M163.4 497.5h690.4v11H163.4z" fill="url(#D)"/><linearGradient id="E" gradientUnits="userSpaceOnUse" x1="462.294" y1="501.485" x2="554.925" y2="501.485"><stop offset="0" stop-color="#95969b"/><stop offset=".079" stop-color="#d8d9db"/><stop offset=".546" stop-color="#d7d8db"/><stop offset=".921" stop-color="#d8d9db"/><stop offset="1" stop-color="#95969b"/></linearGradient><path d="M548.6 505.4h-80.4s-2.6-.4-4.4-3.1c-1.8-2.6-1.5-4.8-1.5-4.8h92.6s-.3 3.3-2.1 5.3c-2 2.2-4.2 2.6-4.2 2.6z" fill="url(#E)"/><linearGradient id="F" gradientUnits="userSpaceOnUse" x1="508.61" y1="517.175" x2="508.61" y2="508.573"><stop offset="0" stop-color="#525252"/><stop offset=".188" stop-color="#646464"/><stop offset=".444" stop-color="#888"/><stop offset=".802" stop-color="#b1b1b1"/><stop offset="1" stop-color="#b9b9b9"/></linearGradient><path d="M163.4 508.6s3.8 3.1 14.6 6.2c9 2.6 24.4 2.4 24.4 2.4h612.4s15.4.2 24.4-2.4c10.8-3.1 14.6-6.2 14.6-6.2H163.4z" fill="url(#F)"/><defs><filter id="G" filterUnits="userSpaceOnUse" x="163.4" y="517.2" width="690.4" height="8.6"><feFlood flood-color="#fff" flood-opacity="1"/><feBlend in="SourceGraphic"/></filter><path id="H" d="M381.5 270.6h-73.6a.68.68 0 0 1-.7-.7v-1.2a.68.68 0 0 1 .7-.7h73.6a.68.68 0 0 1 .7.7v1.2a.68.68 0 0 1-.7.7z"/><path id="I" d="M351.4 218.1c5.2 0 9.5-4.3 9.5-9.5s-4.3-9.5-9.5-9.5-9.5 4.3-9.5 9.5 4.3 9.5 9.5 9.5h0z"/><path id="J" d="M483.9 261.7h-59.3c-.6 0-1-.5-1-1v-3.3c0-.6.5-1 1-1h59.3c.6 0 1 .5 1 1v3.3a1.08 1.08 0 0 1-1 1z"/><path id="K" d="M491 270.6h-73.6a.68.68 0 0 1-.7-.7v-1.2a.68.68 0 0 1 .7-.7H491a.68.68 0 0 1 .7.7v1.2a.68.68 0 0 1-.7.7z"/><path id="L" d="M600.5 276.6h-73.6a.68.68 0 0 1-.7-.7v-1.2a.68.68 0 0 1 .7-.7h73.6a.68.68 0 0 1 .7.7v1.2c0 .3-.3.7-.7.7z"/><path id="M" d="M710 270h-73.6a.68.68 0 0 1-.7-.7v-1.2a.68.68 0 0 1 .7-.7H710a.68.68 0 0 1 .7.7v1.2a.68.68 0 0 1-.7.7z"/><path id="N" d="M491.6 404.4H418a.68.68 0 0 1-.7-.7v-1.2a.68.68 0 0 1 .7-.7h73.6a.68.68 0 0 1 .7.7v1.2a.68.68 0 0 1-.7.7z"/><path id="O" d="M710.6 403.8H637a.68.68 0 0 1-.7-.7v-1.2a.68.68 0 0 1 .7-.7h73.6a.68.68 0 0 1 .7.7v1.2a.68.68 0 0 1-.7.7z"/><path id="P" d="M814.3 353.8h-42.7a.68.68 0 0 1-.7-.7v-.4a.68.68 0 0 1 .7-.7h42.7a.68.68 0 0 1 .7.7v.4a.68.68 0 0 1-.7.7z"/></defs><mask maskUnits="userSpaceOnUse" x="163.4" y="517.2" width="690.4" height="8.6" id="Q"><g filter="url(#G)"><linearGradient id="R" gradientUnits="userSpaceOnUse" x1="507.436" y1="516.037" x2="507.436" y2="525.388"><stop offset="0" stop-color="#fff"/><stop offset="1"/></linearGradient><path d="M157.9 512.3h699V529h-699z" fill="url(#R)"/></g></mask><path d="M163.4 525.8s3.8-3.1 14.6-6.2c9-2.6 24.4-2.4 24.4-2.4h612.4s15.4-.2 24.4 2.4c10.8 3.1 14.6 6.2 14.6 6.2H163.4z" opacity=".55" mask="url(#Q)" fill="#6e7175"/><path d="M389 298.3h-88.6a1.79 1.79 0 0 1-1.8-1.8V182.7a1.79 1.79 0 0 1 1.8-1.8H389a1.79 1.79 0 0 1 1.8 1.8v113.9c0 .9-.8 1.7-1.8 1.7z" class="q"/><path d="M374.4 261.7H315c-.6 0-1-.5-1-1v-3.3c0-.6.5-1 1-1h59.3c.6 0 1 .5 1 1v3.3c.1.5-.4 1-.9 1z" class="s"/><g class="t"><use xlink:href="#H"/><path d="M381.5 276h-73.6a.68.68 0 0 1-.7-.7V274a.68.68 0 0 1 .7-.7h73.6a.68.68 0 0 1 .7.7v1.2c0 .4-.3.8-.7.8z"/><use xlink:href="#H" y="10.7"/><path d="M363.2 288.9h-36.9c-.5 0-1-.4-1-1v-1.6c0-.5.4-1 1-1h36.9c.5 0 1 .4 1 1v1.6c-.1.5-.5 1-1 1z"/></g><g class="r"><path d="M379.3 188.7H310c-1.6 0-2.9 1.3-2.9 2.9v54.7c0 1.6 1.3 2.9 2.9 2.9h69.3c1.6 0 2.9-1.3 2.9-2.9v-54.7c0-1.6-1.3-2.9-2.9-2.9zm-2.8 26.1l-24.6 14.4-18.1-15.8c-1-.9-2.5-1-3.6-.2l-17.3 12.6v-31.3h63.5v20.3z"/><use xlink:href="#I"/></g><path d="M498.5 298.3h-88.6a1.79 1.79 0 0 1-1.8-1.8V182.7a1.79 1.79 0 0 1 1.8-1.8h88.6a1.79 1.79 0 0 1 1.8 1.8v113.9c0 .9-.8 1.7-1.8 1.7z" class="q"/><use xlink:href="#J" class="s"/><g class="t"><use xlink:href="#K"/><path d="M491 276h-73.6a.68.68 0 0 1-.7-.7V274a.68.68 0 0 1 .7-.7H491a.68.68 0 0 1 .7.7v1.2c0 .4-.3.8-.7.8z"/><use xlink:href="#K" y="10.7"/><path d="M472.6 288.9h-36.9c-.5 0-1-.4-1-1v-1.6c0-.5.4-1 1-1h36.9c.5 0 1 .4 1 1v1.6c0 .5-.4 1-1 1z"/></g><g class="r"><path d="M488.8 188.7h-69.3c-1.6 0-2.9 1.3-2.9 2.9v54.7c0 1.6 1.3 2.9 2.9 2.9h69.3c1.6 0 2.9-1.3 2.9-2.9v-54.7c0-1.6-1.3-2.9-2.9-2.9zm-2.8 26.1l-24.6 14.4-18.1-15.8c-1-.9-2.5-1-3.6-.2l-17.3 12.6v-31.3H486v20.3z"/><use xlink:href="#I" x="109.5"/></g><path d="M608 298.9h-88.6a1.79 1.79 0 0 1-1.8-1.8V183.3a1.79 1.79 0 0 1 1.8-1.8H608a1.79 1.79 0 0 1 1.8 1.8v113.9c0 .9-.8 1.7-1.8 1.7z" class="q"/><path d="M593.3 262.3H534c-.6 0-1-.5-1-1V258c0-.6.5-1 1-1h59.3c.6 0 1 .5 1 1v3.3c.1.5-.4 1-1 1z" class="s"/><g class="t"><use xlink:href="#H" x="219" y="0.6"/><use xlink:href="#L"/><path d="M600.5 281.9h-73.6a.68.68 0 0 1-.7-.7V280a.68.68 0 0 1 .7-.7h73.6a.68.68 0 0 1 .7.7v1.2a.68.68 0 0 1-.7.7zm-18.4 7.6h-36.9c-.5 0-1-.4-1-1v-1.6c0-.5.4-1 1-1h36.9c.5 0 1 .4 1 1v1.6c0 .5-.4 1-1 1z"/></g><g class="r"><path d="M598.3 189.3H529c-1.6 0-2.9 1.3-2.9 2.9v54.7c0 1.6 1.3 2.9 2.9 2.9h69.3c1.6 0 2.9-1.3 2.9-2.9v-54.7c0-1.6-1.3-2.9-2.9-2.9zm-2.8 26.1l-24.6 14.4-18.2-15.8c-1-.9-2.5-1-3.6-.2l-17.3 12.6V195h63.5v20.4z"/><use xlink:href="#I" x="219" y="0.6"/></g><path d="M717.5 297.7h-88.6a1.79 1.79 0 0 1-1.8-1.8V182.1a1.79 1.79 0 0 1 1.8-1.8h88.6a1.79 1.79 0 0 1 1.8 1.8V296c0 .9-.8 1.7-1.8 1.7z" class="q"/><path d="M702.8 261.1h-59.3c-.6 0-1-.5-1-1v-3.3c0-.6.5-1 1-1h59.3c.6 0 1 .5 1 1v3.3a.94.94 0 0 1-1 1z" class="s"/><g class="t"><use xlink:href="#M"/><use xlink:href="#M" y="5.4"/><use xlink:href="#M" y="10.7"/><path d="M691.6 288.3h-36.9c-.5 0-1-.4-1-1v-1.6c0-.5.4-1 1-1h36.9c.5 0 1 .4 1 1v1.6a.94.94 0 0 1-1 1z"/></g><path d="M707.8 188.1h-69.3c-1.6 0-2.9 1.3-2.9 2.9v54.7c0 1.6 1.3 2.9 2.9 2.9h69.3c1.6 0 2.9-1.3 2.9-2.9V191c0-1.6-1.3-2.9-2.9-2.9zm-2.9 26.1l-24.6 14.4-18.1-15.8c-1-.9-2.5-1-3.6-.2l-17.3 12.6v-31.3h63.5v20.3zm-25 3.3c5.2 0 9.5-4.3 9.5-9.5s-4.3-9.5-9.5-9.5-9.5 4.3-9.5 9.5 4.2 9.5 9.5 9.5h0z" class="r"/><path d="M389.6 432.1H301a1.79 1.79 0 0 1-1.8-1.8V316.4a1.79 1.79 0 0 1 1.8-1.8h88.6a1.79 1.79 0 0 1 1.8 1.8v113.9a1.79 1.79 0 0 1-1.8 1.8z" class="q"/><path d="M375 395.5h-59.3c-.6 0-1-.5-1-1v-3.3c0-.6.5-1 1-1H375c.6 0 1 .5 1 1v3.3a1.08 1.08 0 0 1-1 1z" class="s"/><g class="t"><use xlink:href="#H" x="0.6" y="133.8"/><use xlink:href="#H" x="0.6" y="139.1"/><use xlink:href="#L" x="-218.4" y="138.5"/><path d="M363.8 422.6h-36.9c-.5 0-1-.4-1-1V420c0-.5.4-1 1-1h36.9c.5 0 1 .4 1 1v1.6c0 .6-.5 1-1 1z"/></g><g class="r"><path d="M380 322.5h-69.3c-1.6 0-2.9 1.3-2.9 2.9V380c0 1.6 1.3 2.9 2.9 2.9H380c1.6 0 2.9-1.3 2.9-2.9v-54.7c-.1-1.6-1.3-2.8-2.9-2.8zm-2.9 26.1L352.5 363l-18.1-15.8c-1-.9-2.5-1-3.6-.2l-17.3 12.6v-31.3H377v20.3z"/><use xlink:href="#I" x="0.6" y="133.7"/></g><path d="M499.1 432.1h-88.6a1.79 1.79 0 0 1-1.8-1.8V316.4a1.79 1.79 0 0 1 1.8-1.8h88.6a1.79 1.79 0 0 1 1.8 1.8v113.9a1.79 1.79 0 0 1-1.8 1.8z" class="q"/><use xlink:href="#J" x="0.6" y="133.8" class="s"/><g class="t"><use xlink:href="#N"/><use xlink:href="#N" y="5.3"/><path d="M491.6 415.1H418a.68.68 0 0 1-.7-.7v-1.2a.68.68 0 0 1 .7-.7h73.6a.68.68 0 0 1 .7.7v1.2c0 .3-.3.7-.7.7zm-18.3 7.5h-36.9c-.5 0-1-.4-1-1V420c0-.5.4-1 1-1h36.9c.5 0 1 .4 1 1v1.6c-.1.6-.5 1-1 1z"/></g><g class="r"><path d="M489.5 322.5h-69.3c-1.6 0-2.9 1.3-2.9 2.9V380c0 1.6 1.3 2.9 2.9 2.9h69.3c1.6 0 2.9-1.3 2.9-2.9v-54.7c-.1-1.6-1.4-2.8-2.9-2.8zm-2.9 26.1L462 363l-18.1-15.8c-1-.9-2.5-1-3.6-.2L423 359.5v-31.3h63.5v20.4z"/><use xlink:href="#I" x="110.1" y="133.7"/></g><path d="M608.6 432.7H520a1.79 1.79 0 0 1-1.8-1.8V317a1.79 1.79 0 0 1 1.8-1.8h88.6a1.79 1.79 0 0 1 1.8 1.8v113.9a1.79 1.79 0 0 1-1.8 1.8z" class="q"/><path d="M594 396h-59.3c-.6 0-1-.5-1-1v-3.3c0-.6.5-1 1-1H594c.6 0 1 .5 1 1v3.3c0 .6-.5 1-1 1z" class="s"/><g class="t"><path d="M601.1 405h-73.6a.68.68 0 0 1-.7-.7V403a.68.68 0 0 1 .7-.7h73.6a.68.68 0 0 1 .7.7v1.2c0 .4-.3.8-.7.8z"/><use xlink:href="#H" x="219.6" y="139.7"/><use xlink:href="#L" x="0.6" y="139.1"/><path d="M582.8 423.2h-36.9c-.5 0-1-.4-1-1v-1.6c0-.5.4-1 1-1h36.9c.5 0 1 .4 1 1v1.6c-.1.6-.5 1-1 1z"/></g><path d="M599 323h-69.3c-1.6 0-2.9 1.3-2.9 2.9v54.7c0 1.6 1.3 2.9 2.9 2.9H599c1.6 0 2.9-1.3 2.9-2.9v-54.7c-.1-1.6-1.4-2.9-2.9-2.9zm-2.9 26.1l-24.6 14.4-18.1-15.8c-1-.9-2.5-1-3.6-.2l-17.3 12.6v-31.3H596v20.3zm-25.1 3.3c5.2 0 9.5-4.3 9.5-9.5s-4.3-9.5-9.5-9.5-9.5 4.3-9.5 9.5c0 5.3 4.3 9.5 9.5 9.5h0z" class="r"/><path d="M718.1 431.5h-88.6a1.79 1.79 0 0 1-1.8-1.8V315.8a1.79 1.79 0 0 1 1.8-1.8h88.6a1.79 1.79 0 0 1 1.8 1.8v113.9a1.79 1.79 0 0 1-1.8 1.8z" class="q"/><use xlink:href="#J" x="219.6" y="133.2" class="s"/><g class="t"><use xlink:href="#O"/><use xlink:href="#O" y="5.3"/><path d="M710.6 414.5H637a.68.68 0 0 1-.7-.7v-1.2a.68.68 0 0 1 .7-.7h73.6a.68.68 0 0 1 .7.7v1.2c0 .3-.3.7-.7.7zm-18.4 7.5h-36.9c-.5 0-1-.4-1-1v-1.6c0-.5.4-1 1-1h36.9c.5 0 1 .4 1 1v1.6a.94.94 0 0 1-1 1z"/></g><path d="M708.4 321.9h-69.3c-1.6 0-2.9 1.3-2.9 2.9v54.7c0 1.6 1.3 2.9 2.9 2.9h69.3c1.6 0 2.9-1.3 2.9-2.9v-54.7c0-1.7-1.3-2.9-2.9-2.9zm-2.8 26.1L681 362.4l-18.1-15.8c-1-.9-2.5-1-3.6-.2L642 358.9v-31.3h63.5V348zm-25.1 3.2c5.2 0 9.5-4.3 9.5-9.5s-4.3-9.5-9.5-9.5-9.5 4.3-9.5 9.5c0 5.3 4.3 9.5 9.5 9.5h0z" class="r"/><path d="M957.8 540h-790c-5.7 0-10.2-3.5-10.2-7.9h0c0-4.4 4.5-7.9 10.2-7.9h790.1c5.7 0 10.2 3.5 10.2 7.9h0c-.1 4.4-4.6 7.9-10.3 7.9z" opacity=".85" enable-background="new"/><path d="M483.5 446.7h13.7v13.7h-13.7z" class="q"/><text transform="translate(486.968 457.024)" class="r x y">1</text><path d="M502.3 446.7H516v13.7h-13.7z" class="q"/><text transform="translate(505.805 457.024)" class="r x y">2</text><path d="M521.1 446.7h13.7v13.7h-13.7z" class="q"/><text transform="translate(524.643 457.024)" class="r x y">3</text><path d="M763.7 373.8h57.2c1.1 0 1.9-1.1 1.9-2.5v-73.6c0-1.4-.9-2.5-1.9-2.5h-57.2c-1.1 0-1.9 1.1-1.9 2.5v73.6c-.1 1.4.8 2.5 1.9 2.5z" class="q"/><path d="M811.9 347.7h-37.4c-.7 0-1.2-.8-1.2-1.7 0-1 .6-1.7 1.2-1.7h37.4c.7 0 1.2.8 1.2 1.7s-.6 1.7-1.2 1.7z" class="s"/><path d="M814 303.3h-42.2a1.79 1.79 0 0 0-1.8 1.8v33.3a1.79 1.79 0 0 0 1.8 1.8H814a1.79 1.79 0 0 0 1.8-1.8V305c-.1-.9-.9-1.7-1.8-1.7zm-1.8 15.9l-15 8.8-11.1-9.7c-.6-.5-1.5-.6-2.2-.1l-10.5 7.7v-19.1h38.7v12.4zm-15.2 2c3.2 0 5.8-2.6 5.8-5.8s-2.6-5.8-5.8-5.8-5.8 2.6-5.8 5.8 2.6 5.8 5.8 5.8h0z" class="r"/><g class="t"><use xlink:href="#P"/><use xlink:href="#P" y="3.8"/><path d="M814.3 361.5h-42.7a.68.68 0 0 1-.7-.7v-.4a.68.68 0 0 1 .7-.7h42.7a.68.68 0 0 1 .7.7v.4c0 .3-.3.7-.7.7zm-10.9 5.4h-20.9c-.5 0-1-.4-1-1v-.6c0-.5.4-1 1-1h20.9c.5 0 1 .4 1 1v.6c0 .6-.5 1-1 1z"/></g><path d="M776.2 161.9H241.8v-18.1c0-2 3-3.6 6.7-3.6h521.1c3.7 0 6.7 1.6 6.7 3.6v18.1z" fill="#395962"/><circle cx="260.2" cy="151.1" r="3.9" fill="#c83f68"/><circle cx="272.9" cy="151.1" r="3.9" fill="#f0c62f"/><circle cx="285.6" cy="151.1" r="3.9" fill="#75c64e"/><path d="M724.3 167s-1.7 1.5-3.3 3.8c-1.5 2.4-5.7 2.4-5.9 5.6s5.6 3.3 8.6 2.2c3.1-1 3.5-4.2 5.4-4.9 1.8-.8 2.8-1.4 2.6-2.9-.1-1.5-1.2-4-1.2-4l-1.8.4c-.6.2-2.9.2-4.4-.2z" class="z"/><path d="M745.1 80.6L743 92.1c-.3 1.9-.7 3.3-.9 3.8-.3.6-2.4 2.9-5.2 5.7L726 112.5l-2.4-4.6 9.3-10.8 3.3-3.8c.8-.7 1.7-7.6 3-13.2 1.3-5.7 3.8-8.8 3.8-8.8l2.1 9.3z" class="u"/><path d="M737 101.6l-10.9 10.9-2.4-4.6 9.3-10.8c1 .6 3.2 2 4 4.5z" class="v"/><path d="M767.1 165.1l2.5 2.9c1 1 4.5 3 4.6 6.1 0 3.4-2.6 3.1-5.1 3-2.4-.1-4.3-1.8-5.4-3.8-1-2-3.7-2.4-3.9-4s1.3-4.4 1.3-4.4l6 .2z" class="z"/><path d="M761.5 162l-.3 2.9s5 2.2 5.9.1l-.2-2.6-5.4-.4zm-37 2.9l-.3 2.1s3 1 6.3-.1l.1-1.9-6.1-.1z" fill="#5a554e"/><path d="M767.4 111.6c.1.6-32 0-32 0s8.9-6.5 9.5-8.2-2.2-12.1-2.6-15.5c-.3-2.7-1-14.8.8-16.6 1.9-2 8.6-4 8.6-4l9.8.3s1.6.3 2.8.9 7.7 2.9 8.8 6.2c1 3.3-6.5 13.9-6.5 13.9s0 .5-.1 1.3h0c0 1-.1 2.6-.1 4.3-.1 2.2-.1 4.7-.1 6.5-.2 4.2.9 10.3 1.1 10.9z" class="u"/><path d="M767.4 111.6s4.4 6.4 4.5 10.8-1.6 16.5-1.7 18.9-2.4 22.5-2.4 22.5-1.7 1.6-7-.4l-1.3-21c-.1-2-.1-11.4-1.3-12.7s-8.3-5.6-9.2-6.4-17.1 3.1-18.7 3.5c-4.4 1.1-2.4 8.8-1.4 12.2 1.6 5.7 3.1 26.3 3.1 26.3s-3.1 1.3-8.4.2l-10.6-41c-.3-3.7-.5-9.8 24.8-14.4l29.6 1.5z" class="z"/><g class="v"><path d="M754.3 46.2s-8.5-1.9-6.5 8.8 4 11.5 9.1 9.3 4.7-9.1 4.9-12.4c.1-3.4-4.9-5.6-7.5-5.7z"/><path d="M752 70.1s3.8 4 9.7.3c0 0-1.3-8.6-.6-12.8s-7.7 6.5-7.7 6.5c.1.1.2.5.2 1s0 1.1-.1 1.7c-.3 1.5-.7 3-1.5 3.3zm6.8-16.6c.1-1 2-1.3 2.1.1s-.8 3.9-1.5 3.6c-.7-.2-.7-2.4-.6-3.7z"/></g><path d="M761.3 57.3s-.2-3.3-1.5-3.5-1.4 1.3-1.4 1.3l-1.3.2s.4-2.9-.8-3.5c-1.3-.5-7.9 1.6-8.9.8s-.5-6.8 1.3-7.7c1.8-.8 6.7-2.6 10.3-.2 0 0 2.8-.3 3.2 2s-.1 8.9-.9 10.6z" fill="#3d4062"/><path d="M753.4 66.9c6.1-1.9 6.6-5.6 6.6-5.6-2 3.5-6.5 3.9-6.5 3.9 0 .5 0 1.1-.1 1.7z" fill="#997761"/><path d="M764.2 68.7s-4.5 8.9-11.7 8.4c-7.2-.6-1.3-9.5-.9-9.6.3-.2 7.4-2 12.6 1.2z" class="v"/><path d="M731.8 111.2s22.2 2.7 35.7.4l-25.7-3.2c-.1 0-.3.7-10 2.8z" class="u"/><path d="M748.3 107.4l-1.7.8s.3 2.6 1.3 3.4l1.9-.5c0 .1-.3-2.8-1.5-3.7z" class="v"/><path d="M774 102c-.3.3-4.7 2.2-9.6 4h0c-6.8 2.6-14.3 5-14.3 5l-1.7-3.7 13.3-7.4c2.5-1.5 4.5-2.6 4.8-2.9.8-.8 1.1-2.2.4-4.5-.6-2.3-2.1-12.9-2.2-14.1-.1-1.3.4-4.5 3.5-4.7 3.1-.1 4.7.7 4.7.7s.8.3 1.3 7.8c.5 7.8.6 18.9-.2 19.8z" class="u"/><path d="M766.3 89.7v.2l-.1 4.3c-3-7.4-1.3-13.3-1.3-13.4-.3 2.1 1.3 8.8 1.4 8.9zM743 92.1h0c-.3 1.9-.7 3.3-.9 3.8-1-4.9-.1-11.4-.1-11.4.1 3.1 1 7.6 1 7.6z" class="w"/><path d="M764.4 106.1h0c-6.8 2.6-14.6 5.2-14.6 5.2l-1.5-3.8 13.3-7.4c0 0 2 .9 2.8 6z" class="v"/><path d="M747.9 111.4l-31.6-.5 16 8.1z" fill="#5d5954"/><path d="M732.3 119l15.6-6v-1.6l-16.9 6.1z" fill="#8c867e"/><g class="v"><path d="M747 108.3l-3.3-.6c-1-.3-3.7.1-4.3.8-.7.7-2.8 5.4-3.2 5.6s.2 1 .9.6c0 0 .6 2.1 2.2 1.3s2.6-2.4 3.6-2.8c.8-.3 5.7-1.8 5.7-1.8s-.3-3.6-1.6-3.1z"/><path d="M739.8 108.2s-1.3.6-1.6.9-1.7 1.3-2 1.5.5.9 2.9-.1c2.4-1.2.7-2.3.7-2.3z"/></g><path d="M732.3 119l-9.4-25.6-30.3.5 9 23.6z" fill="#6c6760"/><path d="M713.2 104.7c.9 1.8.6 3.8-.6 4.5-1.3.6-3.1-.3-4-2.2-.9-1.8-.6-3.8.6-4.5 1.3-.6 3.1.4 4 2.2z" fill="#7b6f66"/><path d="M930 513.1c-.8 2.6-4.3 4.3-4.8 7.5-.2 1.6-.8 2.8-1.5 3.6h-11.1c.1-.6.6-1.3 2-1.6 3.1-.7 4.3-4.4 4.1-7.9-.1-1.5 0-3.1 0-4.6l.3-3.6 6.6-1.5 1.4 1.8c-.2 0 3.8 3.7 3 6.3zm-51.7 11.1h-22.5c.5-.6 1.4-1.2 2.8-1.4 3.5-.6 9.5-2.6 10.8-7 0-.1.1-.3.1-.4 1.1-4.7 8.8 1.4 8.8 1.4a1.75 1.75 0 0 0 .1.5c.1 1.3.4 5-.1 6.9z" fill="#2c3a64"/><path d="M859.6 398.9l2.6 32.2 4.3 58.8c.4 9.6 1.9 25.1 1.9 25.1s3.7 3.7 11 2.1c0 0 6.5-22 8.4-45.3 0-.4.1-.8.1-1.2l4.4-73.7-32.7 2z" fill="#3b3348"/><path d="M859.6 398.9l2.6 32.2 25.7 40.6c0-.4.1-.8.1-1.2l4.4-73.7-32.8 2.1z" fill="#1a1325"/><path d="M864.9 400.7s21.1 53 35 77.9l18.2 31.8s8-3.2 8.7-5.4c0 0-5.3-48.1-14.6-59.8-5.3-6.6-11.4-26.5-11.7-33.4s-1.9-20.7-1.9-20.7l-33.7 9.6z" fill="#3b3348"/><g fill="#e48c82"><path d="M875.7 318.9l-1-8.8 10.7-8.6c-.4 11.9 7.2 17.6 7.2 17.6s-14.3 7-22.5 4.4c.1 0 2.1-2.6 5.6-4.6z"/><path d="M872.3 309.9s13.6 2.3 14.9-6.2 3.9-14-4.8-15.8-10.8 1.2-12 3.9c-1.1 2.8-1.7 17.3 1.9 18.1z"/></g><path d="M900.2 393.8c0 .9-1.8 1.9-2.6 2.3-6.1 2.7-11.8 4.7-18.3 5.3-7.7.8-16.7-.9-19.8-.9-.3 0-.6-.1-.9-.3-.2-.2-.4-9.5-.2-21.3v-1.6c0-1.2 0-2.5.1-3.7l.4-10.5c.2-5.2.5-10.3 1-14.8.4-4.7 1-8.8 1.7-11.7 1.7-6.7 5.5-11 8.9-14.3l2.9-2.5c2.9.6 5.9.4 8.9-1.1 3.3-1.6 6.8-3.4 7.4-2.9 4.4 3.3 7.4 10.8 8.9 20.3.8 5.1 1.2 10.8 1.2 16.8 0 2.3-.1 4.6-.2 6.9-.7 12.6 0 23.4.5 29.8 0 1.8.1 3.2.1 4.2z" class="u"/><path d="M890 335.8s-6.6 30.9-31.4 37.7l.4-10.5c.2-5.2.5-10.3 1-14.8.4-.2.9-.4 1.2-.5 8.3-2.7 28.8-11.9 28.8-11.9z" class="w"/><g class="u"><path d="M824.5 347.3l-3.5-.6s-4-5.8-11.1-2.6c0 0-2.8 1.6-.9 3 1.8 1.5 1.4.7 3.9 2.8 2.6 2.1 5.9 3 8.1 1.9l2.8-.1.7-4.4z"/><path d="M821.7 349.1c.1-2.6 1.5-2.9 1.5-2.9l29.2-2.2c2.3-.4 23.7-18.2 23.7-18.2s8.3-7.4 14.1-4.9c5 2.2 6.6 6.5 6.9 10.4.3 4.7-2.4 9.1-6.6 11.1-9.6 4.5-28.8 13.3-33.2 14.1-9.7 1.7-34.8-3.7-34.8-3.7s-.8-1.6-.8-3.7z"/></g><path d="M870.5 291.8s-5.5-4.1-1.9-10.5c0 0 4.4 1.4 10.5 0 6.2-1.4 11.7.6 12.4 2.8 0 0 2.4 1 2.6 4.6s-7 15-7 15-1.5-1.9-1.1-3.2 1.7-4.3.1-4.3-2.2 2.4-2.8 1.4c-.7-1 .5-5-1.4-5.7-1.9-.6-9.3 1.1-11.4-.1z" fill="#2c3a64"/></svg>