<svg xmlns="http://www.w3.org/2000/svg" xmlns:xlink="http://www.w3.org/1999/xlink" viewBox="0 0 500.8 314.7" xmlns:v="https://vecta.io/nano"><path fill="#0f485d" d="M497.3 307.7H3.4a3.37 3.37 0 0 0-3.4 3.4v.2a3.37 3.37 0 0 0 3.4 3.4h493.9a3.37 3.37 0 0 0 3.4-3.4v-.2c.1-1.9-1.5-3.4-3.4-3.4z"/><g opacity=".4" fill="#00b18b"><use xlink:href="#B"/><use xlink:href="#B" opacity=".75"/></g><g fill="#00b18b"><use xlink:href="#C"/><use xlink:href="#C" opacity=".5"/></g><path d="M92.9 68.7h4v4h-4zm-8 0h4v4h-4zm-8 0h4v4h-4zm265.9 133.5h145v100h-145z" fill="#fff"/><circle fill="#00b18b" cx="430.3" cy="242.7" r="14.3"/><path opacity=".7" fill="#fff" d="M426.1 238.1v9.2c0 1.5 1.7 2.4 3 1.6l6.7-4.6c1.1-.8 1.1-2.4 0-3.1l-6.7-4.6c-1.3-.9-3 0-3 1.5z"/><path fill="#3098a1" d="M355.3 284.8h120v10h-120z"/><path fill="#7ed2ba" d="M365.3 288.8h100v2h-100z"/><path fill="#24759f" d="M365.3 288.8h52v2h-52z"/><path fill="#c6e1dd" d="M415.6 287.4v4.9a1 1 0 0 0 1.6.8l3.6-2.4a1.03 1.03 0 0 0 0-1.7l-3.6-2.4a1 1 0 0 0-1.6.8z"/><path fill="#7ed2ba" d="M342.8 192.2h145v10h-145z"/><path d="M471.8 195.2h4v4h-4zm-8 0h4v4h-4zm-8 0h4v4h-4z" fill="#fff"/><path opacity=".3" fill="#0e1738" d="M341.3 192.2h87.8V280h-87.8z"/><path fill="#fff" d="M91.1 28h330v244h-330z"/><path fill="#e8e9fd" d="M367.6 123.9c-.3 0-.5-.1-.7-.3l-8.7-8.7c-.4-.4-.4-1 0-1.4s1-.4 1.4 0l8.7 8.7c.4.4.4 1 0 1.4a1.08 1.08 0 0 1-.7.3z"/><path fill="#395962" d="M91.1 0h330v28h-330z"/><g fill="#fff"><path d="M365.1 10h8v8h-8zm16 0h8v8h-8zm16 0h8v8h-8zm-237 10.9c-3.8 0-6.9-3.1-6.9-6.9s3.1-6.9 6.9-6.9 6.9 3.1 6.9 6.9-3.1 6.9-6.9 6.9zm0-13A6.06 6.06 0 0 0 154 14a6.1 6.1 0 1 0 12.2 0 6.06 6.06 0 0 0-6.1-6.1zm0 11.5c-.2 0-.4-.2-.4-.4V9c0-.2.2-.4.4-.4s.4.2.4.4v10c0 .2-.2.4-.4.4z"/><path d="M165.1 14.4h-10c-.2 0-.4-.2-.4-.4s.2-.4.4-.4h10c.2 0 .4.2.4.4s-.1.4-.4.4z"/></g><path fill="#1c3137" d="M91.1 0h54v28h-54z"/><g fill="#fff"><path d="M127.7 18.9c-.1 0-.2 0-.3-.1-.2-.2-.2-.5 0-.7l8.8-8.8c.2-.2.5-.2.7 0s.2.5 0 .7l-8.8 8.8c-.2 0-.3.1-.4.1z"/><path d="M136.4 18.9c-.1 0-.2 0-.3-.1l-8.8-8.8c-.2-.2-.2-.5 0-.7s.5-.2.7 0l8.8 8.8c.2.2.2.5 0 .7-.1 0-.2.1-.4.1z"/></g><path fill="#5fd284" d="M13.8 307.7h40.1c4-3.3 1.4-9.1-3.2-7.7 0 0-1.1-4.1-4.6-5.1-.1 0-.2-.1-.4-.1-.7-.2-1.5-.2-2.4 0-.2 0-.4.1-.6.1-.7.2-1.5.5-2.3.9-.2.1-.3.2-.5.3l-1 .6s-6.2-8.1-13.7-1.7l-.4.4c-.6.5-1.1 1.1-1.7 1.8h-2.2c-.2 0-.4 0-.5.1h-1c-.1 0-.3 0-.4.1h-.2c-.1 0-.2 0-.3.1l-1.2.3c-3.6 1.1-7 3.6-3.5 9.9z"/><path opacity=".3" fill="#0e1738" d="M17.3 297.9c2.7 4 6.3 7.3 10.5 9.8h16.9c2.7-3.3 3.4-7.4 1.9-11.4-.2-.5-.4-.9-.6-1.4-.1 0-.2-.1-.4-.1-.7-.1-1.5-.2-2.4 0-.2 0-.4.1-.6.1-.7.2-1.5.5-2.3.9-.2.1-.3.2-.5.3-.3.2-.6.4-1 .6 0 0-6.2-8.1-13.7-1.7l-.4.4c-.6.5-1.1 1.1-1.7 1.8h-2.2c-.2 0-.4 0-.5.1h-1c-.1 0-.3 0-.4.1h-.2c-.1 0-.2 0-.3.1-.3.2-.7.3-1.1.4z"/><g fill="#38c092"><path d="M12.5 288.1h.1c.2-.1.4-.3.3-.6-.5-1.7-.9-3.4-1.2-5.1 0-.2-.3-.4-.5-.4s-.4.3-.4.5c.3 1.8.7 3.5 1.2 5.2.1.2.3.4.5.4zm-1.8-9.8a.47.47 0 0 0 .5-.5c-.7-8.6 1-15.6 2.9-18.4.1-.2.1-.5-.1-.6s-.5-.1-.6.1c-2 2.9-3.8 10.1-3.1 19-.1.3.1.4.4.4zm9 19.1c3.1 4.2 7.3 7.9 13.2 10.3h8.7c4.6-4.1 4.2-9.5 1.7-12.9h0c-1.6-2.1-4-3.5-6.5-3.3 0 0 1.1-8.4-6.2-9.8s-6.8-9.5-5.9-14.3-4.8-13.2-9.1-6.9c-3.3 4.8-5.4 23.7 4.1 36.9z"/><path d="M17.8 277.7c.6 4.1 1.8 8.2 3.6 11.9.1.2.2.5.3.7.2.5.5.9.7 1.4.1.2.2.5.4.7.2.4.4.7.6 1.1.1.1.1.2.2.3s.1.2.2.3c.2.3.4.7.6 1 .1.1.1.2.2.3h0c.1.1.1.2.2.3.1.2.3.4.4.6.2.2.3.5.5.7s.3.4.5.6c1.2 1.6 2.5 3.2 4 4.7.2.2.3.4.5.5l1.4 1.4c.2.1.3.3.5.4s.3.3.5.4c.3.3.7.6 1 .9.2.1.3.3.5.4.6.4 1.1.9 1.7 1.3l.1.1H38c-.5-.3-.9-.6-1.4-.9-.2-.1-.3-.2-.5-.4-.4-.3-.9-.6-1.3-1-.2-.2-.5-.4-.7-.6-1.7-1.4-3.3-2.9-4.8-4.6-.2-.2-.3-.4-.5-.6v-.1c-.3-.3-.6-.7-.9-1-.9-1-1.7-2.1-2.4-3.2-.1-.1-.2-.3-.3-.4-.2-.4-.5-.7-.7-1.1h0c-.1-.1-.2-.2-.2-.4h0c-.8-1.3-1.6-2.7-2.3-4.2-1.8-3.7-3.2-7.7-3.8-11.8a32.36 32.36 0 0 1 .3-12.4c-1.2 4.3-1.3 8.6-.7 12.7z"/><use xlink:href="#D"/><use xlink:href="#E"/></g><g opacity=".2" fill="#0e1738"><path d="M17.8 277.7c.6 4.1 1.8 8.2 3.6 11.9.1.2.2.5.3.7.2.5.5.9.7 1.4.1.2.2.5.4.7.2.4.4.7.6 1.1.1.1.1.2.2.3s.1.2.2.3c.2.3.4.7.6 1 .1.1.1.2.2.3s.1.2.2.3c.1.2.3.4.4.6.2.2.3.5.5.7s.3.4.5.6c1.2 1.6 2.5 3.2 4 4.7.2.2.3.4.5.5l1.4 1.4c.2.1.3.3.5.4s.3.3.5.4c.3.3.7.6 1 .9.2.1.3.3.5.4.6.4 1.1.9 1.7 1.3l.1.1H38c-.5-.3-.9-.6-1.4-.9-.2-.1-.3-.2-.5-.4-.4-.3-.9-.6-1.3-1-.2-.2-.5-.4-.7-.6-1.7-1.4-3.3-2.9-4.8-4.6-.2-.2-.4-.4-.5-.6v-.1c-.3-.3-.6-.7-.9-1-.9-1-1.7-2.1-2.4-3.2-.1-.1-.2-.3-.3-.4-.2-.4-.5-.7-.7-1.1h0c-.1-.1-.2-.2-.2-.4h0c-.8-1.3-1.6-2.7-2.3-4.2-1.8-3.7-3.2-7.7-3.8-11.8a32.36 32.36 0 0 1 .3-12.4c-1.2 4.3-1.3 8.6-.7 12.7z"/><use xlink:href="#D"/><use xlink:href="#E"/></g><path d="M141.8 55.7v188.7h228.6V55.7H141.8zM271 71.1h34.4v23.6H271V71.1zm-49.5 0h34.4v23.6h-34.4V71.1zM355 228.9H157.2V71.1h49.1v38.7h149v119.1h-.3zm0-134.5h-34.2V70.8h34.4v23.6h-.2zm-32.5 38.8H190.2c-3.3 0-6 2.4-6 5.4s2.7 5.4 6 5.4h132.3c3.3 0 6-2.4 6-5.4s-2.7-5.4-6-5.4zm-132.3 29.5h120.3c3.3 0 6-2.3 6-5.1s-2.7-5.1-6-5.1H190.2c-3.3 0-6 2.3-6 5.1s2.6 5.1 6 5.1zm128.7 9H190c-3.2 0-5.9 2-5.9 4.4s2.6 4.4 5.9 4.4h128.9c3.2 0 5.9-2 5.9-4.4s-2.6-4.4-5.9-4.4zm-67.3 17.9h-60.2c-3.3 0-6 2.2-6 4.9s2.7 4.9 6 4.9h60.2c3.3 0 6-2.2 6-4.9s-2.7-4.9-6-4.9z" fill="#00b18b"/><path fill="#ca9f66" d="M109.8 289l-2 20-10.9-.9L99 288z"/><g fill="#1a2e35"><path d="M102.5 307.8c-.1 0 .3-4.4 1-9.8l1.3-9.8c.1 0-.3 4.4-1 9.8l-1.3 9.8z"/><path d="M107.9 307.6l-10.8-.9-.2 1.4 10.9.9zm-10.3-5.9s.1-.2.3-.4.6-.6 1.1-.9 1.1-.7 1.9-1 1.7-.4 2.6-.3c1.9.2 3.3 1.3 4 2.3.4.5.6.9.7 1.3a1.75 1.75 0 0 1 .1.5c-.1 0-.2-.7-1-1.6-.7-.9-2.1-1.9-3.9-2.1s-3.3.5-4.3 1.2c-1 .5-1.5 1-1.5 1z"/></g><path d="M109.1 297.1l-.3 1.7-10.9-.6.2-1.8z" opacity=".3"/><path fill="#ca9f66" d="M144.4 289.2l-.6 20.2-10.9-.1.6-20.2z"/><g fill="#1a2e35"><path d="M138.5 308.6c-.1 0 0-4.4.3-9.8l.6-9.8c.1 0 0 4.4-.3 9.8l-.6 9.8z"/><path d="M143.9 308l-10.9-.2-.1 1.5 10.9.1zm-10.8-5.2s.1-.2.3-.4c.2-.3.5-.6 1-1s1.1-.8 1.8-1.1 1.6-.5 2.6-.5c1.9.1 3.4 1 4.2 2 .4.5.6.9.8 1.2.1.3.2.5.2.5-.1 0-.3-.7-1.1-1.6s-2.2-1.7-4-1.8-3.3.8-4.2 1.5c-1.1.7-1.5 1.2-1.6 1.2z"/></g><path d="M144.3 297.4l-.2 1.8-10.9.1.1-1.8z" opacity=".3"/><path fill="#064867" d="M101 196.7c-.3 0-.9 13.3-.5 17.7s1.7 38.3 1.7 38.3-2.3 1.6-2.2 3.7-3 39.6-3 39.6l12.5 1.7s10-41.2 10.1-46.9 6.9-44.8 6.9-44.8l3.9 42.4 1.4 49.2s9.2 1 13.6-.2c0 0 2.8-32.9 2.4-43.7l-.5-17.5 5.5-30.8c1.7-10.4-.6-20.1-.6-20.1l-37.2-3.7-14 15.1z"/><path d="M112.3 255.3c0 .1-2.1-.7-4.7-.3-2.6.3-4.5 1.5-4.5 1.4 0 0 .4-.4 1.2-.8s1.9-.8 3.3-1c1.3-.2 2.6 0 3.4.2s1.3.4 1.3.5zm.6-3.2c0 .1-1.6.1-3.5.1s-3.5-.1-3.5-.2 1.6-.1 3.5-.1c2 0 3.5.1 3.5.2zm25.6 6.9s-.1-.1-.4-.3l-.9-.9a13.14 13.14 0 0 1-2.2-3.6c-.6-1.5-.9-3-1-4.1v-1.3c0-.3 0-.5.1-.5s.1.7.2 1.7c.1 1.1.5 2.5 1.1 4s1.4 2.8 2.1 3.6l1 1.4zm-11.6-54.5s-.1.2-.3.5l-.5.5c-.2.2-.4.4-.7.6a13.73 13.73 0 0 1-4.7 2.2c-1.9.6-3.8.8-5.2.6-.2 0-.3 0-.5-.1-.1 0-.3-.1-.4-.1-.3-.1-.5-.1-.6-.2l-.5-.3c0-.1.8.3 2.1.4s3.1-.1 5-.7 3.6-1.4 4.7-2.1c.3-.2.5-.4.7-.5.2-.2.3-.3.5-.4.2-.2.3-.4.4-.4z" fill="#296f90"/><path fill="#ffbf9d" d="M168.7 100.2s-.2-2.6 1-5.2c1.2-2.5 4.8-6.8 4.8-6.8s5-4.2 5.6-3.9c.5.3.7.9 0 1.5s-3.4 3.9-3.4 3.9 1.2.4 1.2 1.2-.2 1.2-.2 1.2 1.1.5 1.4 1.1.3 1.1.3 1.1.6.1.7.9 0 1.5 0 1.5-1.9 2.3-2.7 2.6-1.9.6-1.9.6l-.7 1 .1 2.6-6.2-3.3z"/><g fill="#c82040"><path d="M90.2 122.4s-17.7 33.5-17.6 38.7c.1 9.2 26.5 15.8 26.5 15.8l3.4-10.6-13.6-8.8 9-21.3-7.7-13.8z"/><path d="M90.2 122.4s3.2-2.9 8.3-3.7 14.1-1.2 14.1-1.2 24.5-6.1 26.4-5.1 4.5 7.6 5.1 10.6c.6 3.1-1.1 32.5-1.1 32.5s12.1 33.8 11.3 34.9c-.4.5-13.5 5.6-26.9 7.1l-1.1-10-1.3 9.3c-12.5 1.3-26.6 2.2-26.6 2.2l8.4-35c-.4-.9-17.8-38.2-16.6-41.6z"/><path d="M139 112.4s9.2 4.8 10.3 4.7c1.1-.2 2.1-2 3.5-.6l7.9-1.7 7.5-14.7s4.7 1.5 8.1 4.6c0 0-3.9 15.2-6.6 17.6-2.7 2.3-12.9 10.5-27.6 11.1l-2.2-12-.9-9z"/></g><path d="M149 129.8s.4-.7.8-1.8l.7-2.1c.2-.8.3-1.7.4-2.6l-.1-2.6c-.1-.8-.3-1.5-.5-2.1l-.7-1.9s.1.2.3.5.4.8.6 1.4l.6 2.1c.1.8.2 1.7.2 2.7s-.2 1.9-.4 2.7-.5 1.5-.7 2.1l-.7 1.3c-.4.2-.5.3-.5.3zm15.1-12c0 .1-1-.4-2-1.2s-1.6-1.7-1.5-1.8.8.7 1.8 1.5c.9.9 1.8 1.5 1.7 1.5z" fill="#1a2e35"/><path fill="#ffbf9d" d="M99.3 176.3s.4 1.3 2.5-.2c0 0 3-.7 4.5-2.2s1.7-2.4 2.8-2.5 4.2-.6 4.2-.6c.1 0 .8-1.8-.2-2.1s-5.3.3-5.3.3l-1.3.1-.3-1.7.2-1.6s-2.6 1.1-2.6 1.8c0 0-1.9-.5-2.1.8l-2.4 7.9z"/><path d="M99.9 148.4s-.1-.2-.4-.6l-.9-1.8-2.6-5.9-2.2-6.1c-.3-.8-.4-1.4-.6-1.9l-.2-.7a10.59 10.59 0 0 0 .3.7l.7 1.8 2.3 6 2.5 6 .8 1.8.3.7zm31 16.2s-.1.3-.4.8l-1.3 2c-1.2 1.6-3 3.8-5.3 5.8s-4.7 3.5-6.4 4.5a17.8 17.8 0 0 1-2.1 1l-.8.3s.3-.2.8-.4 1.2-.6 2.1-1.1c1.7-1 4-2.5 6.3-4.5s4.1-4.1 5.3-5.7l1.4-1.9c.2-.5.4-.8.4-.8zm-41.2-7.1c0 .1-1.4.4-3 1.1l-2.9 1.4c0-.1 1.1-1 2.8-1.6 1.6-.8 3.1-1 3.1-.9z" fill="#1a2e35"/><path d="M96.3 140.2c-2-.8-3.9-3.2-4.4-5.3s.3-4.4.6-6.6c.9 3.8 2.3 8.3 3.8 11.9m20.2 40.6c3.4 1 7.2.5 10.2-1.3 3-1.9 5.1-5.1 5.6-8.6-4.8 3.5-10.5 7.3-15.8 9.9z" opacity=".3"/><path fill="#1a2e35" d="M143.6 119.1s.1.2.2.6.2 1 .3 1.8c.2 1.5.5 3.6.5 5.9a45.55 45.55 0 0 1-.4 5.9l-.3 1.8c-.1.4-.1.6-.2.6l.3-2.4c.2-1.5.3-3.6.3-5.9a45.55 45.55 0 0 0-.4-5.9c-.1-1.5-.3-2.4-.3-2.4z"/><path d="M132.9 109l-27.4 45.1c7.1 3.3 16 4.8 22.5.4 1.9 2.2 5.8 1.3 7.5-1.1s1.8-5.5 1.8-8.4c-.2-12.1-2.3-24.1-4.4-36z" opacity=".3"/><path fill="#1a2e35" d="M120.4 78c-3.1-.4-6.2 1-8.5 3.2-2.2 2.2-3.7 5.1-4.8 8-2.2 5.7-3.4 11.7-4.7 17.7-1.8 8.8-3.6 17.7-3.8 26.7-.3 9 2.6 14.2 6.7 22.2l13.6-2.3-.1-2.6 1.9 2.5 5.3-1 1.2-13.9 2.9 13.1 4.4-.5c3.9-17.6-1.5-28.9.5-46.8.5-4.3 1.3-8.5 1.1-12.8-.1-4.3-1.4-8.7-4.4-11.7s-8.2-4.1-11.7-1.7"/><g fill="#375a64"><path d="M126 152.3s0-.1-.1-.2c0-.1-.1-.3-.1-.6l-.5-2.3-1.5-8.4c-.5-3.6-1-7.8-1.1-12.6 0-2.4.1-4.9.3-7.5.3-2.6.7-5.2 1.4-7.9 1.4-5.3 3.3-10.2 4.2-14.9.5-2.3.7-4.6.6-6.7s-.4-4-1-5.7-1.4-3.1-2.3-4.2a14.84 14.84 0 0 0-2.6-2.5c-.8-.6-1.5-.9-2-1.2-.2-.1-.4-.2-.6-.2-.1-.1-.2-.1-.2-.1s.1 0 .2.1.3.1.6.2c.5.2 1.2.5 2 1.1s1.8 1.4 2.7 2.5 1.8 2.5 2.4 4.2 1 3.7 1.1 5.8-.1 4.4-.6 6.7c-.9 4.7-2.8 9.6-4.2 14.9-.6 2.7-1.1 5.3-1.4 7.9s-.4 5.1-.3 7.4c0 4.7.5 9 1 12.6s1 6.4 1.4 8.4c.2 1 .3 1.7.4 2.3 0 .2.1.4.1.6.1.2.1.3.1.3zm-19.5-8.5v-.2c0-.1 0-.3-.1-.5-.1-.5-.1-1.1-.3-1.9-.1-.4-.1-.9-.2-1.4s-.1-1-.1-1.6l-.3-4-.1-2.3v-2.5l.1-5.5c.2-3.9.6-8.2 1.3-12.6s1.7-8.6 2.7-12.4l1.7-5.3c.3-.8.5-1.6.8-2.4.3-.7.6-1.5.8-2.2.5-1.4 1.1-2.6 1.5-3.7.2-.5.4-1 .7-1.5.2-.4.4-.9.6-1.2.4-.7.6-1.3.8-1.7.1-.2.2-.3.2-.4l.1-.1s0 .1-.1.2-.1.3-.2.5c-.2.4-.4 1-.8 1.7L115 84l-.6 1.5c-.4 1.1-1 2.3-1.5 3.7-.3.7-.5 1.4-.8 2.2s-.5 1.5-.8 2.4c-.6 1.6-1.1 3.4-1.6 5.3-1 3.7-2 7.9-2.7 12.3s-1.1 8.7-1.3 12.6c-.1 1.9-.1 3.8-.1 5.5v2.5c0 .8.1 1.6.1 2.3 0 1.5.2 2.8.2 4 0 .6.1 1.1.1 1.6.1.5.1.9.1 1.4.1.8.1 1.4.2 1.9v.5c.2 0 .2.1.2.1z"/><path d="M114.4 154.1s0-.1-.1-.2c0-.1-.1-.3-.2-.5-.2-.5-.4-1.1-.6-1.9-.1-.4-.3-.9-.5-1.4s-.3-1.1-.5-1.6l-1-4-.5-2.4c-.2-.8-.3-1.7-.5-2.6l-.4-2.8-.3-3c-.4-4.1-.5-8.6-.3-13.3s.9-9.2 1.6-13.2l.6-2.9.6-2.7c.4-1.8.9-3.4 1.3-4.9s.9-2.8 1.2-4l1-3 .7-1.9c.1-.2.1-.4.2-.5 0-.1.1-.2.1-.2v.2c0 .1-.1.3-.2.5-.2.5-.4 1.1-.6 1.9-.3.8-.6 1.8-1 3-.3 1.2-.8 2.5-1.2 4s-.9 3.1-1.3 4.9l-.6 2.7-.6 2.9c-.7 4-1.3 8.4-1.6 13.1-.2 4.7-.1 9.2.3 13.2l.3 3c.1 1 .3 1.9.4 2.8.2.9.3 1.8.4 2.6.2.8.3 1.6.5 2.4.3 1.5.7 2.8 1 4 .2.6.3 1.1.4 1.6.2.5.3 1 .4 1.4.2.8.4 1.4.6 1.9.1.2.1.4.1.5.3.3.3.4.3.4zm19-9s0-.1-.1-.2-.2-.3-.3-.5-.3-.5-.4-.8c-.2-.3-.3-.7-.5-1.2-.8-1.8-1.8-4.3-2.5-7.7-.8-3.3-1.3-7.4-1.1-12 .1-2.3.4-4.6.9-7s1.2-4.9 1.9-7.4a113.27 113.27 0 0 0 1.8-7.4c.5-2.4.7-4.8.7-7s-.3-4.4-.8-6.3-1.4-3.6-2.4-5c-2-2.8-4.4-4.3-6.1-5-.9-.3-1.6-.5-2.1-.6-.2 0-.4-.1-.6-.1h-.2.2a1.76 1.76 0 0 1 .6.1c.5.1 1.2.2 2.1.6 1.8.7 4.3 2.2 6.3 5 1 1.4 1.9 3.1 2.5 5s.9 4.1.9 6.4-.3 4.6-.7 7.1a113.27 113.27 0 0 1-1.8 7.4c-.7 2.5-1.4 5-1.9 7.4s-.8 4.7-.9 7c-.2 4.5.3 8.6 1 11.9s1.7 5.9 2.4 7.7c.2.4.4.8.5 1.2.2.3.3.6.4.8s.2.4.2.5v.1z"/></g><g fill="#3098a1"><path d="M446.3 66.8h26.6v5.5h-26.6z"/><path d="M446.3 59.4h5.5v8.4h-5.5zm12.4.3h5.5v8.1h-5.5z"/><path d="M477.5 95.1h-47V55.5h47v39.6zm-41.3-5.7h35.7V61.2h-35.7v28.2z"/></g><defs ><path id="B" d="M78.9 81.2c-7.6 0-13.8-6.2-13.8-13.8s6.2-13.8 13.8-13.8 13.8 6.2 13.8 13.8-6.2 13.8-13.8 13.8zm26-18.6l-5.5-2.1a13.9 13.9 0 0 0-1.2-2.8l2.4-5.3c.3-.6.1-1.3-.3-1.7L95.6 46c-.5-.5-1.1-.6-1.7-.3l-5.3 2.4-2.8-1.2-2.1-5.5c-.2-.6-.8-1-1.4-1h-6.7c-.6 0-1.2.4-1.4 1l-2.1 5.5a13.9 13.9 0 0 0-2.8 1.2L64 45.7c-.6-.3-1.3-.1-1.7.3l-4.8 4.8c-.5.5-.6 1.1-.3 1.7l2.4 5.3-1.2 2.8-5.5 2.1c-.6.2-1 .8-1 1.4v6.7c0 .6.4 1.2 1 1.4l5.5 2.1a13.9 13.9 0 0 0 1.2 2.8l-2.4 5.3c-.3.6-.1 1.3.3 1.7l4.8 4.8c.5.5 1.1.6 1.7.3l5.3-2.4 2.8 1.2 2.1 5.5c.2.6.8 1 1.4 1h6.7c.6 0 1.2-.4 1.4-1l2.1-5.5a13.9 13.9 0 0 0 2.8-1.2l5.3 2.4c.6.3 1.3.1 1.7-.3l4.8-4.8c.5-.5.6-1.1.3-1.7l-2.4-5.3 1.2-2.8 5.5-2.1c.6-.2 1-.8 1-1.4v-6.7a1.92 1.92 0 0 0-1.1-1.5z"/><path id="C" d="M49.4 243.6c-6.1 0-11.1-5-11.1-11.1s5-11.1 11.1-11.1 11.1 5 11.1 11.1-5 11.1-11.1 11.1zm20.9-14.9l-4.4-1.7c-.3-.8-.6-1.5-.9-2.2l2-4.3c.2-.5.1-1-.3-1.4l-3.8-3.8c-.4-.4-.9-.5-1.4-.3l-4.3 2c-.7-.4-1.5-.7-2.2-.9l-1.7-4.4c-.2-.5-.6-.8-1.2-.8h-5.4a1.3 1.3 0 0 0-1.2.8l-1.7 4.4c-.8.3-1.5.6-2.2.9l-4.3-2c-.5-.2-1-.1-1.4.3l-3.8 3.8c-.4.4-.5.9-.3 1.4l2 4.3c-.4.7-.7 1.5-.9 2.2l-4.4 1.7c-.5.2-.8.6-.8 1.2v5.4a1.3 1.3 0 0 0 .8 1.2l4.4 1.7c.3.8.6 1.5.9 2.2l-2 4.3c-.2.5-.1 1 .3 1.4l3.8 3.8c.4.4.9.5 1.4.3l4.3-2c.7.4 1.5.7 2.2.9l1.7 4.4c.2.5.6.8 1.2.8h5.4a1.3 1.3 0 0 0 1.2-.8l1.7-4.4c.8-.3 1.5-.6 2.2-.9l4.3 2c.5.2 1 .1 1.4-.3l3.8-3.8c.4-.4.5-.9.3-1.4l-2-4.3c.4-.7.7-1.5.9-2.2l4.4-1.7c.5-.2.8-.6.8-1.2v-5.4c0-.6-.3-1.1-.8-1.2z"/><path id="D" d="M35.5 295.7c.1.8.3 1.7.3 2.5s-.1 1.7-.2 2.5l-.7 2.4c-.3.8-.6 1.5-1.1 2.2l.3-.2h-1.7c-.6-.1-1.1-.1-1.7-.3-.6-.1-1.1-.3-1.6-.6-.5-.2-1-.6-1.5-.9.3.5.8.9 1.3 1.3a11.94 11.94 0 0 0 1.6.8c.6.2 1.2.4 1.8.4.6.1 1.2.1 1.9.1h.2l.1-.2c.5-.8.9-1.5 1.2-2.4.3-.8.5-1.7.6-2.6s.1-1.8 0-2.6-.4-1.6-.8-2.4z"/><path id="E" d="M26.8 284.4l-.4 2.5c-.1.8-.3 1.7-.5 2.5l-.7 2.4c-.2.4-.3.8-.5 1.1-.1.2-.2.3-.3.5-.1.1-.3.3-.4.3h.2l-2.7-1.3c-.9-.5-1.7-1.1-2.4-1.7s-1.4-1.4-2-2.2c-.5-.8-.9-1.8-1.2-2.7.1 1 .5 2 1 2.9s1.2 1.7 1.9 2.4 1.6 1.3 2.4 1.8l2.7 1.4h.2c.2-.1.2-.1.3-.2s.2-.2.2-.3c.1-.2.3-.4.4-.6.2-.4.4-.8.5-1.2.3-.8.5-1.6.7-2.5.1-.8.3-1.7.3-2.5.2-.9.2-1.7.3-2.6z"/></defs></svg>