<svg xmlns="http://www.w3.org/2000/svg" xmlns:xlink="http://www.w3.org/1999/xlink" viewBox="0 0 920 540" xmlns:v="https://vecta.io/nano"><style><![CDATA[.B{fill:#fff}.C{stroke-miterlimit:10}.D{opacity:.19}.E{fill:#2d7c99}.F{stroke-linecap:round}.G{fill:#00b18b}.H{stroke-linecap:square}]]></style><path d="M0 0h920v540H0z" class="B"/><circle fill="#ff6d53" cx="290" cy="528.5" r=".5"/><circle fill="#02c7a8" cx="241.7" cy="423.4" r=".5"/><path d="M416.7 444.2l-15-5.6 15-5.6h165.6v11.2z" class="D E"/><path fill="#3d5473" d="M583.553 430.328v11.2h-165.6v-11.2z"/><path opacity=".17" fill="#081b33" d="M418 441.6V436h165.6v5.6H418z"/><path d="M403 436.5v-1.2l15-4.2v9.7z" class="B"/><path fill="#42474d" d="M401.2 435.9h0c0-.1.1-.2.2-.2l4.2-1.2v2.9l-4.2-1.2c-.1-.1-.2-.2-.2-.3z"/><circle cx="700.1" cy="141.3" r="57" class="D E"/><circle fill="#f2f2f2" cx="693.5" cy="133.3" r="57"/><g class="B"><path stroke="#fff" stroke-width="26.397" d="M722.7 154.8l16.9 12.1" class="C F"/><circle transform="matrix(.2202 -.9755 .9755 .2202 410.7374 780.4654)" cx="693.5" cy="133.3" r="38"/></g><circle fill="#b38a5d" cx="693.5" cy="133.3" r="31.7"/><path fill="#61370b" d="M724.1 136.5c0 15.2-13.7 27.6-30.6 27.6s-30.6-12.3-30.6-27.6c0-10.1 4.3-16.7 13.2-21.5 4.6-2.5 13.2 0 19 0 7.1 0 9.9-3.1 15.1.6 2.5 1.8 4.6 3.2 6.4 5.7 3.2 4.3 7.5 9.5 7.5 15.2z"/><g fill="#b38a5d"><circle cx="677" cy="126.4" r="3.8"/><circle cx="684.8" cy="122.6" r="2.5"/></g><circle transform="matrix(.3827 -.9239 .9239 .3827 293.9349 690.0476)" opacity=".23" cx="663.3" cy="125.1" r="24.4" class="B"/><path d="M734.9 356.1l-88.2-38.3a3.26 3.26 0 0 1-1.7-4.4l39-89.8 94.3 40.9-39 89.8c-.8 1.8-2.7 2.6-4.4 1.8z" class="D E"/><path fill="#f8f8f8" d="M734.7 352.9L640.4 312l40.9-94.4 94.3 41-40.9 94.3z"/><linearGradient id="A" gradientUnits="userSpaceOnUse" x1="706.019" y1="238.433" x2="800.341" y2="279.368"><stop offset="0" stop-color="#eda03c"/><stop offset="1" stop-color="#f5211b"/></linearGradient><path fill="url(#A)" d="M768.3 275.5l-94.4-40.9 7.4-17 94.3 41z"/><path opacity=".38" fill="none" stroke="#fadda3" stroke-width="11.345" d="M708.5 240l32.2 14" class="C H"/><path d="M697 234.5l-4.8-2.1L698 219l4.8 2.1-5.8 13.4zm60.4 26.2l-4.8-2.1 5.8-13.3 4.8 2-5.8 13.4z" fill="#3c3542"/><g fill="#d8cce8"><use xlink:href="#C"/><use xlink:href="#C" x="19.594" y="8.51"/><use xlink:href="#C" x="39.19" y="17.019"/><use xlink:href="#C" x="-27.309" y="9.411"/><use xlink:href="#C" x="-7.807" y="17.881"/><use xlink:href="#C" x="11.788" y="26.391"/><path d="M730.166 296.748L742 301.884l-5.135 11.833-11.833-5.135z"/><use xlink:href="#C" x="-35.116" y="27.292"/><use xlink:href="#C" x="-15.521" y="35.802"/></g><use xlink:href="#C" x="4.076" y="44.31" fill="#ff4f70"/><path d="M754.368 330.202l3.289 2.922-5.247 5.906-3.289-2.922z" class="B"/><path fill="#4b67a6" d="M721.8 371.7h0l37.6-42.3 1.5 1.3-36.2 40.8c-.7.9-2 .9-2.9.2z"/><path opacity=".15" fill="#36367d" d="M677.3 421.5l-12.1 5.2 3.7-12.6 84-94.5c2.1-2.3 5.6-2.5 7.9-.5h0c2.3 2.1 2.5 5.6.5 7.9l-84 94.5z"/><path fill="#4b67a6" d="M677.2 417l-8.4-7.4 84-94.5c2.1-2.3 5.6-2.5 7.9-.5h0c2.3 2.1 2.5 5.6.5 7.9l-84 94.5z"/><path opacity=".17" fill="#175196" d="M677.2 417l-4.2-3.7 87.7-98.7c2.3 2.1 2.5 5.6.5 7.9l-84 94.5z"/><path d="M720.328 351.658l8.373 7.439-1.86 2.093-8.373-7.439zM665.5 422.6l-.9-.8 4.8-11.7 7.2 6.4z" class="B"/><path opacity=".09" fill="#36367d" d="M665.5 422.6l-.9-.8 9.2-7.8 2.8 2.5z"/><path fill="#177fff" d="M664.1 423.3h0c-.1-.1-.1-.2-.1-.3l1.3-3.3 2.1 1.9-3.1 1.7c0 .1-.1.1-.2 0z"/><path d="M244.8 392.5l367.3-.1c4.4 0 8-3.6 8-8l-.2-238.3c0-4.4-3.6-8-8-8l-367.3.1c-4.4 0-8 3.6-8 8l.2 238.3c-.1 4.4 3.5 8 8 8z" class="D E"/><path fill="#48404e" d="M235.8 384l367.3-.1c4.4 0 8-3.6 8-8l-.1-238.3c0-4.4-3.6-8-8-8l-367.3.1c-4.4 0-8 3.6-8 8l.2 238.3c-.1 4.4 3.5 8 7.9 8z"/><path fill="#f06698" stroke="#fff" stroke-width="10.904" d="M490.5 367.5H348.3" opacity=".23" class="C F"/><defs><filter id="B" filterUnits="userSpaceOnUse" x="375" y="136.7" width="229.3" height="240.4"><feFlood flood-color="#fff" flood-opacity="1"/><feBlend in="SourceGraphic"/></filter><path id="C" d="M698.783 261.848l11.833 5.135-5.135 11.833-11.833-5.135z"/><path id="D" d="M243 429c-1 13.5-12.7 23.6-26.2 22.6s-23.6-12.7-22.6-26.2 12.7-23.6 26.2-22.6c6.7.5 12.6 3.7 16.7 8.4 4.1 4.8 6.3 11.1 5.9 17.8z"/></defs><mask maskUnits="userSpaceOnUse" x="375" y="136.7" width="229.3" height="240.4" id="G"><g filter="url(#B)"><defs><filter  filterUnits="userSpaceOnUse" x="368" y="136.7" width="236.4" height="240.4"><feFlood flood-color="#fff" flood-opacity="1"/><feBlend in="SourceGraphic"/></filter></defs><mask maskUnits="userSpaceOnUse" x="368" y="136.7" width="236.4" height="240.4" id="G"/><linearGradient id="H" gradientUnits="userSpaceOnUse" x1="532.971" y1="179.841" x2="475.415" y2="422.294"><stop offset="0" stop-color="#fff"/><stop offset="1"/></linearGradient><path mask="url(#G)" fill="url(#H)" d="M604.3 377.1H368l118.1-240.4h118.2z"/></g></mask><linearGradient id="I" gradientUnits="userSpaceOnUse" x1="535.998" y1="180.701" x2="478.885" y2="421.289"><stop offset="0" stop-color="#fff"/></linearGradient><path opacity=".06" fill="url(#I)" d="M601.5 377.1H375l137.1-240.4h89.3c1.6 0 2.9 1.3 2.9 2.9v234.6c0 1.6-1.2 2.9-2.8 2.9z"/><path opacity=".25" fill="#063438" d="M257.2 129.6h347.3V361H257.2z"/><path fill="#dff4ef" d="M244 108.8h349.5v239.1H244z"/><path fill="#334763" d="M593.5,127.5H244V107c0-2.8,2.2-5,5-5h339.5c2.8,0,5,2.2,5,5V127.5z"/><circle transform="matrix(.2312 -.9729 .9729 .2312 91.3676 344.5001)" fill="#fd4961" cx="263.7" cy="114.4" r="3.5"/><circle transform="matrix(.9253 -.3792 .3792 .9253 -22.8942 112.6261)" fill="#fec81a" cx="274.5" cy="114.4" r="3.5"/><circle transform="matrix(.3862 -.9224 .9224 .3862 69.5463 333.3871)" fill="#35e135" cx="285.3" cy="114.4" r="3.5"/><g class="C"><path opacity=".33" stroke="#fff" stroke-width="14.846" d="M365.9 114.1h112.5" class="B H"/><g fill="none" stroke="#626b82" stroke-width="4.5" class="F"><path d="M190.4 418.9l108.7 7.9 19.6 21.4"/><path d="M320.1 428.4l-108.7-8-22.5 18.3"/></g></g><g opacity=".51" class="B"><use xlink:href="#D"/><circle transform="matrix(.9652 -.2614 .2614 .9652 -102.924 91.4391)" cx="292.3" cy="432.6" r="24.4"/></g><g fill="none" stroke="#626b82" stroke-width="4.5"><use xlink:href="#D" class="C"/><circle transform="matrix(.9652 -.2614 .2614 .9652 -102.924 91.4391)" cx="292.3" cy="432.6" r="24.4"/><path d="M237.1 411.3l1.5-.6c11.3-5 27-3.2 36.8 4.4h0" class="C F"/></g><path d="M350.2 188.2h28.2v4.5h-28.2z" class="G"/><path opacity=".25" d="M412.3 188.2h28.2v4.5h-28.2zm45.1 0h28.2v4.5h-28.2zM392 233.1h95.9v4.5H392zm0 11.3h73.3v4.5H392zm0 11.3h95.9v4.5H392zm0 22.5h95.9v4.5H392zm0-11.3h73.3v4.5H392zm-62.1 11.3H375v-45.1h-45.1v45.1zm4.5-40.6h36.1v36.1h-36.1v-36.1zM306 152.8V322h225.6V152.8H306zm221.1 164.7H310.5V203.6h28.2V181h53v22.6h135.4v113.9zm0-118.4H396.2v-22.6h-62v22.6h-23.7v-41.7h216.6v41.7z" fill="#063438"/><g class="G"><path d="M181.9 173.4h23.9v4.9h-23.9z"/><path d="M181.9 166.7h4.9v7.6h-4.9zm11.2.3h4.9v7.3h-4.9z"/><path d="M210.1 198.8h-42.4v-35.7h42.4v35.7zm-37.3-5H205v-25.5h-32.2v25.5z"/></g><g opacity=".5" class="G"><path d="M349.5 417.7H362v2.6h-12.5z"/><path d="M349.5 414.3h2.6v3.9h-2.6zm5.8.1h2.6v3.8h-2.6z"/><path d="M364.1 431h-22v-18.6h22V431zm-19.3-2.7h16.7V415h-16.7v13.3z"/></g><path d="M144.6 0H0v29.8c.1.8.1 1.5.1 2.3L0 34.7v63.1s29.2 3.4 34.8 2c8.7-2.1 26.9-15.2 34.1-20 3-2 6.1-3.6 9.4-5 5.9-2.5 12.4-4.4 17.6-8.2 5.9-4.4 7.6-11.4 8.2-18.3.7-7.5 2.9-10.8 8.1-16.3 10.9-11.7 18.5-12.9 22.1-14.8C148.9 10 148.9 0 148.9 0h-4.3zm775.3 538.5V403.8a1.54 1.54 0 0 0-1.5-1.5h-37c-5.4 3.3-11.8 13.7-13.6 19.4-3 9.8-9.5 16.6-12.8 18.4-8.6 4.7-18.4 3.6-27.8 5.8-10.1 2.4-19.6 8.5-24.1 17.6-4.3 8.8-3.1 16.2-5.6 25.2-2.5 9.2-11.7 16.3-20.4 19.6-9.2 3.5-18.1 6.2-19.8 16.1-.9 5.1-.4 10.4 1.1 15.5h159.8c1.1.1 1.7-.6 1.7-1.4z" class="G"/></svg>