<svg xmlns="http://www.w3.org/2000/svg" xmlns:xlink="http://www.w3.org/1999/xlink" viewBox="0 0 920 540" xmlns:v="https://vecta.io/nano"><style><![CDATA[.d{fill:#fff}.e{fill:#f0676d}.f{fill:#ccb8c6}.g{fill:#f06259}.h{fill:#ff6d53}.i{font-family:Lato-Bold}.j{font-size:4.625px}]]></style><ellipse cx="465.1" cy="430.2" rx="118.6" ry="12.8" fill="#efa19f"/><linearGradient id="A" gradientUnits="userSpaceOnUse" x1="0" y1="454.607" x2="920" y2="454.607"><stop offset="0" stop-color="#b15676"/><stop offset="1" stop-color="#e96443"/></linearGradient><path d="M920 374.6V540H0V390.2c108.5-16.7 174.1-8.1 214.6 3.5 29.2 8.4 51.2 20 94.4 23 52.6 3.6 65.2-10.6 123.1-15.9 85.3-7.9 148.5 31.9 250.9 15.3 67.8-11 69.5-39.6 147.2-45.8 36-3 66.3.8 89.8 4.3z" opacity=".54" fill="url(#A)"/><path d="M625.8,366.9H307.6V185.5c0-4.2,3.4-7.6,7.6-7.6h303c4.2,0,7.6,3.4,7.6,7.6V366.9z" fill="#010b15"/><path d="M307.6,366.9V186.1c0-4.5,3.7-8.2,8.2-8.2h301.8c4.5,0,8.2,3.7,8.2,8.2L307.6,366.9z" fill="#143544" opacity=".5"/><path d="M307.6 366.9h318.2v21.8a7.6 7.6 0 0 1-7.6 7.6h-303a7.6 7.6 0 0 1-7.6-7.6v-21.8z" fill="#d7e8e8"/><path d="M319.7 190h294.1v165.2H319.7z" fill="#e8f7f8"/><circle cx="466.7" cy="183.6" r="1.8" class="d"/><g fill="#d7e8e8"><path d="M515.1 431.4s-9.4-2.7-11.8-3.6c-1.3-.5-1.7-3-1.9-4.1l-2.9-27.5h-63.6l-2.9 27.5c-.1 1.1-.6 3.6-1.9 4.1-2.3.9-11.8 3.6-11.8 3.6-.5 0-.8.4-.8.8 0 .5.4.8.8.8H515c.5 0 .8-.4.8-.8.1-.4-.3-.8-.7-.8z"/><path d="M499.1 402.1l-65.8 9.6 1.6-15.4h63.6z"/></g><path d="M277.2 265.9c5-.9 8.9-4.9 9.8-9.8 0-.2.4-.2.4 0 .9 5 4.9 8.9 9.8 9.8.2 0 .2.4 0 .4-5 .9-8.9 4.9-9.8 9.8 0 .2-.4.2-.4 0-.9-5-4.9-8.9-9.8-9.8-.3-.1-.3-.4 0-.4zm360.1 21.8c5-.9 8.9-4.9 9.8-9.8 0-.2.4-.2.4 0 .9 5 4.9 8.9 9.8 9.8.2 0 .2.4 0 .4-5 .9-8.9 4.9-9.8 9.8 0 .2-.4.2-.4 0-.9-5-4.9-8.9-9.8-9.8-.2-.1-.2-.4 0-.4z" fill="#c8417d"/><use xlink:href="#I" class="h"/><path d="M655.6 252.9a7.04 7.04 0 0 0 5.6-5.6c0-.1.2-.1.2 0a7.04 7.04 0 0 0 5.6 5.6c.1 0 .1.2 0 .2a7.04 7.04 0 0 0-5.6 5.6c0 .1-.2.1-.2 0a7.04 7.04 0 0 0-5.6-5.6c-.1 0-.1-.2 0-.2z" fill="#02c7a8"/><g fill="#f5a31e"><use xlink:href="#I" x="367.7" y="-30"/><circle cx="261.2" cy="289.9" r="1.5"/></g><g class="h"><circle cx="299.2" cy="312.1" r="1.5"/><circle cx="637.1" cy="258.8" r="1.5"/><circle cx="565.7" cy="404.8" r="1.5"/></g><circle cx="374.6" cy="407" r="1.5" fill="#f5a31e"/><g fill="#02c7a8"><circle cx="682.2" cy="320.3" r="1.5"/><circle cx="272.3" cy="196.3" r="1.5"/></g><path d="M608.1,202.2v147.5c0,3-2.5,5.2-5.7,5.2H331.1c-3.1,0-5.7-2.4-5.7-5.2V202.2H608.1z" class="d"/><path d="M602.5 191.3H331.1c-3.1 0-5.7 2-5.7 4.5v6.7H608v-6.7c.1-2.5-2.4-4.5-5.5-4.5z" fill="#395962"/><circle cx="336" cy="196.9" r="2.1" fill="#e83d6a"/><circle cx="344.3" cy="196.9" r="2.1" fill="#ffc800"/><circle cx="352.6" cy="196.9" r="2.1" fill="#27c840"/><path d="M235.6 140.6a18.85 18.85 0 0 0 11.2 16.3l-10-24c-.9 2.5-1.3 5-1.2 7.7h0zm31.1-2.3c-.1-2.3-1-3.9-1.8-5-1.1-1.5-2-2.8-2-4.3-.1-1.7 1.2-3.4 3-3.5h.2c-3.4-2.9-7.9-4.5-12.8-4.3-6.5.3-12.1 3.8-15.2 9.1h1.2c2-.1 4.9-.4 4.9-.4 1-.1 1.2 1.4.2 1.6 0 0-1 .2-2.1.3l7.7 19.8 3.5-12.3-3.3-7.8c-.9 0-2-.1-2-.1-.9 0-.9-1.5.1-1.6 0 0 3.1.1 4.9 0 2-.1 4.9-.4 4.9-.4 1-.1 1.2 1.4.2 1.6 0 0-1 .2-2.1.3l7.6 19.7 1.6-6.2c.9-3 1.4-4.9 1.3-6.5h0zm-12.1 3.2l-4.8 16.4c1.7.4 3.5.7 5.2.6 2.2-.1 4.3-.6 6.2-1.3-.1-.1-.2-.2-.1-.3l-6.5-15.4zm15.5-11.3l.3 1.9c.1 1.8-.2 4-1.1 6.7l-4.9 16.7c5.3-3.5 8.8-9.6 8.6-16.4-.3-3.3-1.4-6.3-2.9-8.9h0zm-16.9-12.1c-11.9.6-21.2 10.7-20.7 22.6.6 11.9 10.7 21.2 22.6 20.7 11.9-.6 21.2-10.7 20.7-22.6s-10.7-21.2-22.6-20.7h0zm1.8 42.4c-11.4.5-21.1-8.4-21.6-19.7-.5-11.4 8.4-21.1 19.7-21.6 11.4-.5 21.1 8.4 21.6 19.7.7 11.4-8.2 21.1-19.7 21.6h0z" fill="#464342"/><linearGradient id="B" gradientUnits="userSpaceOnUse" x1="734.019" y1="245.303" x2="770.219" y2="245.303"><stop offset="0" stop-color="#b15676"/><stop offset="1" stop-color="#e96443"/></linearGradient><path d="M766.2 258.7s0 .1 0 0 0-.3.1-.5v.2c.1-.2.1-.3.2-.5 0 .1-.1.1-.1.1.1-.1.2-.3.3-.4 0 0 0 .1-.1.1.1-.1.3-.2.4-.3l-.1.1c.2-.1.3-.1.5-.2h-.2c.2 0 .4 0 .5-.1h-31.1c.2 0 .4 0 .5.1h-.2c.2.1.3.1.5.2-.1 0-.1-.1-.1-.1.1.1.3.2.4.3 0 0-.1 0-.1-.1.1.1.2.3.3.4l-.1-.1c.1.2.1.3.2.5v-.2c0 .2 0 .4.1.5V232c0 .2 0 .4-.1.5v-.2c-.1.2-.1.3-.2.5 0-.1.1-.1.1-.1-.1.1-.2.3-.3.4 0 0 0-.1.1-.1-.1.1-.3.2-.4.3l.1-.1c-.2.1-.3.1-.5.2h.2c-.2 0-.4 0-.5.1h31.1c-.2 0-.4 0-.5-.1h.2c-.2-.1-.3-.1-.5-.2.1 0 .1.1.1.1-.1-.1-.3-.2-.4-.3 0 0 .1 0 .1.1-.1-.1-.2-.3-.3-.4l.1.1c-.1-.2-.1-.3-.2-.5v.2c0-.2 0-.4-.1-.5v26.7c0 .5.2 1.1.6 1.4.3.3.9.6 1.4.6s1.1-.2 1.4-.6c.4-.4.6-.9.6-1.4v-26.6c0-1.5-1.1-2.6-2.6-2.7h-31c-1.5 0-2.6 1.1-2.7 2.6v26.5c0 1.5 1.1 2.6 2.6 2.7h31.1c.7 0 1.3-.3 1.8-.7.5-.5.8-1.2.8-1.9 0-.5-.2-1.1-.6-1.4-.3-.3-.9-.6-1.4-.6-1.1.2-1.9 1-2 2.1z" fill="url(#B)"/><linearGradient id="C" gradientUnits="userSpaceOnUse" x1="734.017" y1="237.503" x2="770.222" y2="237.503"><stop offset="0" stop-color="#b15676"/><stop offset="1" stop-color="#e96443"/></linearGradient><path d="M736.1 239.5h32.4c.5 0 1.1-.2 1.4-.6.3-.3.6-.9.6-1.4s-.2-1.1-.6-1.4c-.4-.4-.9-.6-1.4-.6h-32.4c-.5 0-1.1.2-1.4.6-.3.3-.6.9-.6 1.4s.2 1.1.6 1.4c.3.4.8.6 1.4.6h0z" fill="url(#C)"/><linearGradient id="D" gradientUnits="userSpaceOnUse" x1="758.164" y1="244.803" x2="775.11" y2="244.803"><stop offset="0" stop-color="#b15676"/><stop offset="1" stop-color="#e96443"/></linearGradient><path d="M761.6 252.7l13-13c.4-.4.6-.9.6-1.4s-.2-1.1-.6-1.4c-.4-.4-.9-.6-1.4-.6s-1 .2-1.4.6l-13 13c-.4.4-.6.9-.6 1.4s.2 1.1.6 1.4c.4.4.9.6 1.4.6s1-.2 1.4-.6h0z" fill="url(#D)"/><linearGradient id="E" gradientUnits="userSpaceOnUse" x1="740.853" y1="245.003" x2="751.053" y2="245.003"><stop offset="0" stop-color="#b15676"/><stop offset="1" stop-color="#e96443"/></linearGradient><path d="M742.9 247h6.2c.5 0 1.1-.2 1.4-.6.3-.3.6-.9.6-1.4s-.2-1.1-.6-1.4c-.4-.4-.9-.6-1.4-.6h-6.2c-.5 0-1.1.2-1.4.6-.3.3-.6.9-.6 1.4s.2 1.1.6 1.4c.4.4.8.6 1.4.6h0z" fill="url(#E)"/><linearGradient id="F" gradientUnits="userSpaceOnUse" x1="740.853" y1="251.903" x2="755.853" y2="251.903"><stop offset="0" stop-color="#b15676"/><stop offset="1" stop-color="#e96443"/></linearGradient><path d="M742.9 253.9h11c.5 0 1.1-.2 1.4-.6.3-.3.6-.9.6-1.4s-.2-1.1-.6-1.4c-.4-.4-.9-.6-1.4-.6h-11c-.5 0-1.1.2-1.4.6-.3.3-.6.9-.6 1.4s.2 1.1.6 1.4.8.6 1.4.6h0z" fill="url(#F)"/><path d="M143.6 250.238c-1.4 0-2.5 1.1-2.5 2.5v29.7l15.9-16.9c.2-.2.4-.3.7-.4.4-.1.9.1 1.1.4l12.9 14.5 9-9.5c.2-.2.4-.3.7-.4.4-.1.9.1 1.1.4l12.1 13.5v-31.4c0-1.4-1.1-2.5-2.5-2.5h-48.5v.1zm28.6 8.7c2.1 0 3.7 1.7 3.7 3.7a3.76 3.76 0 0 1-3.7 3.7c-2.1 0-3.7-1.7-3.7-3.7a3.76 3.76 0 0 1 3.7-3.7zm-14.3 9.3l-16.8 17.8v1.5c0 1.4 1.1 2.5 2.5 2.5h33.7l-19.4-21.8zm23.7 5l-8.2 8.7 7.3 8.2h11.5c1.3 0 2.4-1 2.5-2.3l-13.1-14.6z" opacity=".62" class="h"/><use xlink:href="#J" class="d"/><path d="M406.2 257.1h-25.4c-.6 0-1-.5-1-1v-.4c0-.6.5-1 1-1h25.4c.6 0 1 .5 1 1v.4c.1.5-.4 1-1 1z" class="e"/><g class="f"><use xlink:href="#K"/><use xlink:href="#K" y="2.4"/><use xlink:href="#K" y="4.8"/><use xlink:href="#L"/></g><g class="g"><use xlink:href="#M"/><use xlink:href="#N"/></g><use xlink:href="#J" x="49" class="d"/><use xlink:href="#O" class="e"/><g class="f"><use xlink:href="#K" x="49"/><use xlink:href="#K" x="49" y="2.4"/><use xlink:href="#K" x="49" y="4.8"/><use xlink:href="#L" x="49"/></g><g class="g"><use xlink:href="#M" x="49"/><use xlink:href="#N" x="49"/></g><use xlink:href="#J" x="98" y="0.2" class="d"/><path d="M504.2 257.3h-25.4c-.6 0-1-.5-1-1v-.3c0-.6.5-1 1-1h25.4c.6 0 1 .5 1 1v.4c0 .5-.4.9-1 .9z" class="e"/><g class="f"><use xlink:href="#P"/><use xlink:href="#P" y="2.4"/><use xlink:href="#P" y="4.8"/><use xlink:href="#L" x="98" y="0.3"/></g><path d="M507 224.7h-31c-.7 0-1.3.6-1.3 1.3v24.5c0 .7.6 1.3 1.3 1.3h31c.7 0 1.3-.6 1.3-1.3V226c0-.7-.6-1.3-1.3-1.3zm-1.3 11.7l-11 6.4-8.1-7.1c-.4-.4-1.1-.4-1.6-.1l-7.7 5.6v-14h28.4v9.2zm-11.2 1.4c2.3 0 4.3-1.9 4.3-4.3 0-2.3-1.9-4.3-4.3-4.3-2.3 0-4.3 1.9-4.3 4.3.1 2.4 2 4.3 4.3 4.3h0z" class="g"/><use xlink:href="#J" x="147" y="-0.3" class="d"/><use xlink:href="#Q" class="e"/><g class="f"><use xlink:href="#K" x="147" y="-0.3"/><use xlink:href="#K" x="147" y="2.1"/><use xlink:href="#K" x="147" y="4.5"/><path d="M548.4 269h-15.8c-.4 0-.8-.4-.8-.8h0c0-.4.4-.8.8-.8h15.8c.4 0 .8.4.8.8h0c0 .4-.3.8-.8.8z"/></g><g class="g"><use xlink:href="#M" x="147" y="-0.3"/><path d="M543.5 237.3c2.3 0 4.3-1.9 4.3-4.3s-1.9-4.3-4.3-4.3c-2.3 0-4.3 1.9-4.3 4.3s2 4.3 4.3 4.3h0z"/></g><path d="M412.6 333.3H375a1.79 1.79 0 0 1-1.8-1.8v-49a1.79 1.79 0 0 1 1.8-1.8h37.7a1.79 1.79 0 0 1 1.8 1.8v49c-.1 1-.9 1.8-1.9 1.8z" class="d"/><use xlink:href="#Q" x="-146.7" y="60.1" class="e"/><g class="f"><use xlink:href="#R"/><use xlink:href="#R" y="2.4"/><path d="M410 325.7h-32.4a.65.65 0 0 1-.6-.6h0a.65.65 0 0 1 .6-.6H410a.65.65 0 0 1 .6.6h0a.65.65 0 0 1-.6.6z"/><use xlink:href="#S"/></g><path d="M409.3 284.3h-31c-.7 0-1.3.6-1.3 1.3V310c0 .7.6 1.3 1.3 1.3h31c.7 0 1.3-.6 1.3-1.3v-24.5c0-.7-.6-1.2-1.3-1.2zm-1.3 11.6l-11 6.4-8.1-7.1c-.4-.4-1.1-.4-1.6-.1l-7.7 5.6v-14H408v9.2zm-11.2 1.5c2.3 0 4.3-1.9 4.3-4.3s-1.9-4.3-4.3-4.3-4.3 1.9-4.3 4.3 2 4.3 4.3 4.3h0z" class="g"/><path d="M461.6 333.3H424a1.79 1.79 0 0 1-1.8-1.8v-49a1.79 1.79 0 0 1 1.8-1.8h37.7a1.79 1.79 0 0 1 1.8 1.8v49c-.1 1-.9 1.8-1.9 1.8z" class="d"/><use xlink:href="#Q" x="-97.7" y="60.1" class="e"/><g class="f"><use xlink:href="#T"/><use xlink:href="#T" y="2.4"/><path d="M459 325.7h-32.4a.65.65 0 0 1-.6-.6h0a.65.65 0 0 1 .6-.6H459a.65.65 0 0 1 .6.6h0a.65.65 0 0 1-.6.6z"/><use xlink:href="#S" x="49"/></g><path d="M458.3 284.3h-31c-.7 0-1.3.6-1.3 1.3V310c0 .7.6 1.3 1.3 1.3h31c.7 0 1.3-.6 1.3-1.3v-24.5c0-.7-.6-1.2-1.3-1.2zm-1.3 11.6l-11 6.4-8.1-7.1c-.4-.4-1.1-.4-1.6-.1l-7.7 5.6v-14H457v9.2zm-11.2 1.5c2.3 0 4.3-1.9 4.3-4.3 0-2.3-1.9-4.3-4.3-4.3-2.3 0-4.3 1.9-4.3 4.3s2 4.3 4.3 4.3h0z" class="g"/><path d="M510.6 333.6H473a1.79 1.79 0 0 1-1.8-1.8v-49a1.79 1.79 0 0 1 1.8-1.8h37.7a1.79 1.79 0 0 1 1.8 1.8v49c-.1 1-.9 1.8-1.9 1.8z" class="d"/><use xlink:href="#O" x="49.3" y="60.1" class="e"/><g class="f"><use xlink:href="#U"/><use xlink:href="#U" y="2.4"/><use xlink:href="#U" y="4.8"/><use xlink:href="#S" x="98" y="0.3"/></g><path d="M507.3 284.5h-31c-.7 0-1.3.6-1.3 1.3v24.5c0 .7.6 1.3 1.3 1.3h31c.7 0 1.3-.6 1.3-1.3v-24.5c0-.7-.6-1.3-1.3-1.3zm-1.3 11.7l-11 6.4-8.1-7.1c-.4-.4-1.1-.4-1.6-.1l-7.7 5.6v-14H506v9.2zm-11.2 1.5c2.3 0 4.3-1.9 4.3-4.3 0-2.3-1.9-4.3-4.3-4.3-2.3 0-4.3 1.9-4.3 4.3s2 4.3 4.3 4.3h0z" class="g"/><path d="M559.6 333.1h-37.7a1.79 1.79 0 0 1-1.8-1.8v-49a1.79 1.79 0 0 1 1.8-1.8h37.7a1.79 1.79 0 0 1 1.8 1.8v49a1.79 1.79 0 0 1-1.8 1.8z" class="d"/><use xlink:href="#O" x="98.3" y="59.6" class="e"/><g class="f"><use xlink:href="#V"/><use xlink:href="#V" y="2.4"/><path d="M557 325.4h-32.4a.65.65 0 0 1-.6-.6h0a.65.65 0 0 1 .6-.6H557a.65.65 0 0 1 .6.6h0c0 .4-.3.6-.6.6zm-8.3 3.4h-15.8c-.4 0-.8-.4-.8-.8h0c0-.4.4-.8.8-.8h15.8c.4 0 .8.4.8.8h0c0 .5-.4.8-.8.8z"/></g><path d="M556.3 284h-31c-.7 0-1.3.6-1.3 1.3v24.5c0 .7.6 1.3 1.3 1.3h31c.7 0 1.3-.6 1.3-1.3v-24.5c0-.7-.6-1.3-1.3-1.3zm-1.3 11.7l-11 6.4-8.1-7.1c-.4-.4-1.1-.4-1.6-.1l-7.7 5.6v-14H555v9.2zm-11.2 1.4c2.3 0 4.3-1.9 4.3-4.3 0-2.3-1.9-4.3-4.3-4.3-2.3 0-4.3 1.9-4.3 4.3s1.9 4.3 4.3 4.3h0z" class="g"/><path d="M455.6 339.9h6.2v6.2h-6.2z" class="h"/><text transform="translate(457.187 344.484)" class="d i j">1</text><path d="M464 339.9h6.2v6.2H464z" class="h"/><text transform="translate(465.616 344.484)" class="d i j">2</text><path d="M472.5 339.9h6.2v6.2h-6.2z" class="h"/><text transform="translate(474.046 344.484)" class="d i j">3</text><linearGradient id="G" gradientUnits="userSpaceOnUse" x1="475.601" y1="140.547" x2="537.091" y2="79.056"><stop offset="0" stop-color="#b15676"/><stop offset="1" stop-color="#e96443"/></linearGradient><path d="M534.2 141.7h-55.8c-2.2 0-4-1.8-4-4V81.9c0-2.2 1.8-4 4-4h55.8c2.2 0 4 1.8 4 4v55.8c.1 2.2-1.7 4-4 4z" fill="url(#G)"/><path d="M484.3 87.6h12.5v10.7h-12.5zm0 17.9h19.6v11.3h-19.6zm0 15.2h19.6V132h-19.6zm24.5 0h19.6V132h-19.6zm0-15.1h19.6v11.3h-19.6zm-8.8-18h12.5v10.7H500zm15.8 0h12.5v10.7h-12.5z" class="d"/><defs ><path id="I" d="M266.3 249.3a7.04 7.04 0 0 0 5.6-5.6c0-.1.2-.1.2 0a7.04 7.04 0 0 0 5.6 5.6c.1 0 .1.2 0 .2a7.04 7.04 0 0 0-5.6 5.6c0 .1-.2.1-.2 0a7.04 7.04 0 0 0-5.6-5.6c-.2 0-.2-.2 0-.2z"/><path id="J" d="M412.4 273.5h-37.7a1.79 1.79 0 0 1-1.8-1.8v-49a1.79 1.79 0 0 1 1.8-1.8h37.7a1.79 1.79 0 0 1 1.8 1.8v49c-.1 1-.9 1.8-1.8 1.8z"/><path id="K" d="M409.7 261.1h-32.4a.65.65 0 0 1-.6-.6h0a.65.65 0 0 1 .6-.6h32.4a.65.65 0 0 1 .6.6h0a.65.65 0 0 1-.6.6z"/><path id="L" d="M401.4 269.2h-15.8c-.4 0-.8-.4-.8-.8h0c0-.4.4-.8.8-.8h15.8c.4 0 .8.4.8.8h0c0 .5-.3.8-.8.8z"/><path id="M" d="M409 224.4h-31c-.7 0-1.3.6-1.3 1.3v24.5c0 .7.6 1.3 1.3 1.3h31c.7 0 1.3-.6 1.3-1.3v-24.5c0-.7-.6-1.3-1.3-1.3zm-1.3 11.7l-11 6.4-8.1-7.1c-.4-.4-1.1-.4-1.6-.1l-7.7 5.6v-14h28.4v9.2z"/><path id="N" d="M396.5 237.6c2.3 0 4.3-1.9 4.3-4.3 0-2.3-1.9-4.3-4.3-4.3-2.3 0-4.3 1.9-4.3 4.3.1 2.3 2 4.3 4.3 4.3h0z"/><path id="O" d="M455.2 257.1h-25.4c-.6 0-1-.5-1-1v-.4c0-.6.5-1 1-1h25.4c.6 0 1 .5 1 1v.4c0 .5-.4 1-1 1z"/><path id="P" d="M507.7 261.3h-32.4a.65.65 0 0 1-.6-.6h0a.65.65 0 0 1 .6-.6h32.4a.65.65 0 0 1 .6.6h0c0 .4-.3.6-.6.6z"/><path id="Q" d="M553.2 256.8h-25.4c-.6 0-1-.5-1-1v-.4c0-.6.5-1 1-1h25.4c.6 0 1 .5 1 1v.4a.94.94 0 0 1-1 1z"/><path id="R" d="M410 320.9h-32.4a.65.65 0 0 1-.6-.6h0a.65.65 0 0 1 .6-.6H410a.65.65 0 0 1 .6.6h0c0 .4-.3.6-.6.6z"/><path id="S" d="M401.7 329.1h-15.8c-.4 0-.8-.4-.8-.8h0c0-.4.4-.8.8-.8h15.8c.4 0 .8.4.8.8h0c0 .4-.4.8-.8.8z"/><path id="T" d="M459 320.9h-32.4a.65.65 0 0 1-.6-.6h0a.65.65 0 0 1 .6-.6H459a.65.65 0 0 1 .6.6h0c0 .4-.3.6-.6.6z"/><path id="U" d="M508 321.2h-32.4a.65.65 0 0 1-.6-.6h0a.65.65 0 0 1 .6-.6H508a.65.65 0 0 1 .6.6h0a.65.65 0 0 1-.6.6z"/><path id="V" d="M557 320.7h-32.4a.65.65 0 0 1-.6-.6h0a.65.65 0 0 1 .6-.6H557a.65.65 0 0 1 .6.6h0a.65.65 0 0 1-.6.6z"/></defs></svg>