<?xml version="1.0" encoding="utf-8"?>
<!-- Generator: Adobe Illustrator 25.2.3, SVG Export Plug-In . SVG Version: 6.00 Build 0)  -->
<svg version="1.1" id="Layer_1" xmlns="http://www.w3.org/2000/svg" xmlns:xlink="http://www.w3.org/1999/xlink" x="0px" y="0px"
	 viewBox="0 0 151 91" style="enable-background:new 0 0 151 91;" xml:space="preserve">
<style type="text/css">
	.st0{fill:#F7F8F9;stroke:#D2D2D2;stroke-miterlimit:10;}
	.st1{fill:#BDC5CB;}
</style>
<rect x="0.5" y="0.5" class="st0" width="150" height="90"/>
<g>
	<rect x="17.5" y="33" class="st1" width="26" height="25"/>
	<rect x="47.5" y="33" class="st1" width="26" height="25"/>
	<rect x="77.5" y="33" class="st1" width="26" height="25"/>
	<rect x="107.5" y="33" class="st1" width="26" height="25"/>
	<g>
		<g>
			<path class="st1" d="M11.5,45.5l3.2-3.2c0.1-0.1,0.1-0.2,0.1-0.3s0-0.2-0.1-0.3l-0.3-0.3c-0.1-0.1-0.2-0.1-0.3-0.1
				s-0.2,0-0.3,0.1l-3.9,3.9c-0.1,0.1-0.1,0.2-0.1,0.3s0,0.2,0.1,0.3l3.9,3.9c0.1,0.1,0.2,0.1,0.3,0.1s0.2,0,0.3-0.1l0.3-0.3
				c0.2-0.2,0.2-0.5,0-0.7L11.5,45.5z"/>
		</g>
	</g>
	<g>
		<g>
			<path class="st1" d="M139.5,45.5l-3.2,3.2c-0.1,0.1-0.1,0.2-0.1,0.3s0,0.2,0.1,0.3l0.3,0.3c0.1,0.1,0.2,0.1,0.3,0.1
				s0.2,0,0.3-0.1l3.9-3.9c0.1-0.1,0.1-0.2,0.1-0.3s0-0.2-0.1-0.3l-3.9-3.9c-0.1-0.1-0.2-0.1-0.3-0.1s-0.2,0-0.3,0.1l-0.3,0.3
				c-0.2,0.2-0.2,0.5,0,0.7L139.5,45.5z"/>
		</g>
	</g>
</g>
<g>
	<circle class="st1" cx="70.5" cy="63.4" r="1.8"/>
	<circle class="st1" cx="75.5" cy="63.4" r="1.8"/>
	<circle class="st1" cx="80.5" cy="63.4" r="1.8"/>
</g>
</svg>
