<?xml version="1.0" encoding="utf-8"?>
<!-- Generator: Adobe Illustrator 25.2.3, SVG Export Plug-In . SVG Version: 6.00 Build 0)  -->
<svg version="1.1" id="Layer_1" xmlns="http://www.w3.org/2000/svg" xmlns:xlink="http://www.w3.org/1999/xlink" x="0px" y="0px"
	 viewBox="0 0 151 91" style="enable-background:new 0 0 151 91;" xml:space="preserve">
<style type="text/css">
	.st0{fill:#F7F8F9;stroke:#D2D2D2;stroke-miterlimit:10;}
	.st1{fill:#BDC5CB;}
	.st2{fill:#FFFFFF;}
</style>
<g>
	<rect x="0.5" y="0.5" class="st0" width="150" height="90"/>
	<g>
		<g>
			<path class="st1" d="M21.4,24.1h108.2c0.1,0,0.3,0.2,0.3,0.4v11.2c0,0.2-0.1,0.4-0.3,0.4H21.4c-0.1,0-0.3-0.2-0.3-0.4V24.5
				C21.1,24.2,21.2,24.1,21.4,24.1z"/>
			<path class="st2" d="M30.2,29.5h-1.7v-1.7c0-0.2-0.2-0.4-0.4-0.4h-0.4c-0.2,0-0.4,0.2-0.4,0.4v1.7h-1.7c-0.2,0-0.4,0.2-0.4,0.4
				v0.4c0,0.2,0.2,0.4,0.4,0.4h1.7v1.7c0,0.2,0.2,0.4,0.4,0.4h0.4c0.2,0,0.4-0.2,0.4-0.4v-1.7h1.7c0.2,0,0.4-0.2,0.4-0.4v-0.4
				C30.6,29.7,30.4,29.5,30.2,29.5z"/>
		</g>
		<g>
			<path class="st1" d="M21.4,39.5h108.2c0.1,0,0.3,0.2,0.3,0.4v11.2c0,0.2-0.1,0.4-0.3,0.4H21.4c-0.1,0-0.3-0.2-0.3-0.4V39.9
				C21.1,39.7,21.2,39.5,21.4,39.5z"/>
			<path class="st2" d="M30.2,44.9h-1.7v-1.7c0-0.2-0.2-0.4-0.4-0.4h-0.4c-0.2,0-0.4,0.2-0.4,0.4v1.7h-1.7c-0.2,0-0.4,0.2-0.4,0.4
				v0.4c0,0.2,0.2,0.4,0.4,0.4h1.7v1.7c0,0.2,0.2,0.4,0.4,0.4h0.4c0.2,0,0.4-0.2,0.4-0.4v-1.7h1.7c0.2,0,0.4-0.2,0.4-0.4v-0.4
				C30.6,45.1,30.4,44.9,30.2,44.9z"/>
		</g>
		<g>
			<path class="st1" d="M21.4,54.9h108.2c0.1,0,0.3,0.2,0.3,0.4v11.2c0,0.2-0.1,0.4-0.3,0.4H21.4c-0.1,0-0.3-0.2-0.3-0.4V55.3
				C21.1,55.1,21.2,54.9,21.4,54.9z"/>
			<path class="st2" d="M30.2,60.4h-1.7v-1.7c0-0.2-0.2-0.4-0.4-0.4h-0.4c-0.2,0-0.4,0.2-0.4,0.4v1.7h-1.7c-0.2,0-0.4,0.2-0.4,0.4
				v0.4c0,0.2,0.2,0.4,0.4,0.4h1.7v1.7c0,0.2,0.2,0.4,0.4,0.4h0.4c0.2,0,0.4-0.2,0.4-0.4v-1.7h1.7c0.2,0,0.4-0.2,0.4-0.4v-0.4
				C30.6,60.5,30.4,60.4,30.2,60.4z"/>
		</g>
	</g>
</g>
</svg>
