<?xml version="1.0" encoding="utf-8"?>
<!-- Generator: Adobe Illustrator 24.3.0, SVG Export Plug-In . SVG Version: 6.00 Build 0)  -->
<svg version="1.1" id="Layer_1" xmlns="http://www.w3.org/2000/svg" xmlns:xlink="http://www.w3.org/1999/xlink" x="0px" y="0px"
	 viewBox="0 0 259.9 41.88" style="enable-background:new 0 0 259.9 41.88;" xml:space="preserve">
<style type="text/css">
	.st0{fill:#FFFFFF;}
</style>
<g>
	<path class="st0" d="M43.34,0.54H4.46c-0.53,0-1.1,0.4-1.1,0.93v38.86c0,0.54,0.57,1,1.1,1h38.88c0.53,0,0.82-0.47,0.82-1V1.47
		C44.15,0.94,43.87,0.54,43.34,0.54z M19.51,5.92h8.5v7.22h-8.5V5.92z M9.03,5.92h8.5v7.22h-8.5C9.03,13.14,9.03,5.92,9.03,5.92z
		 M22.34,36.09H9.03v-7.65h13.31V36.09z M22.34,25.75H9.03V18.1h13.31V25.75z M38.91,36.09H25.6v-7.65h13.31V36.09z M38.91,25.75
		H25.6V18.1h13.31V25.75z M38.91,13.15h-8.5V5.92h8.5V13.15z"/>
	<g>
		<path class="st0" d="M55.95,28.73c0.06-0.54,0.24-1.1,0.54-1.65c0.3-0.56,0.65-1,1.04-1.33c2.01,1.29,3.97,1.93,5.9,1.93
			c0.94,0,1.68-0.22,2.22-0.66s0.82-0.99,0.82-1.65c-0.04-1.13-0.79-2.02-2.25-2.66l-3.45-1.46c-1.36-0.56-2.39-1.29-3.07-2.18
			s-1.02-1.9-1.02-3.05c0-0.88,0.17-1.68,0.51-2.4s0.83-1.34,1.46-1.86c0.63-0.52,1.38-0.92,2.25-1.21s1.83-0.44,2.88-0.44
			c2.14,0,4.25,0.54,6.31,1.61c-0.06,1.19-0.52,2.18-1.37,2.98c-1.97-0.92-3.68-1.37-5.14-1.37c-0.94,0-1.65,0.21-2.15,0.64
			s-0.75,0.95-0.75,1.57c0,0.89,0.69,1.63,2.07,2.21l3.45,1.46c1.4,0.58,2.48,1.35,3.24,2.31c0.76,0.96,1.14,2.06,1.14,3.3
			c0,0.88-0.16,1.69-0.47,2.44s-0.78,1.39-1.42,1.93c-0.63,0.54-1.42,0.96-2.37,1.26c-0.95,0.3-2.06,0.45-3.35,0.45
			C60.49,30.89,58.15,30.17,55.95,28.73z"/>
		<path class="st0" d="M80.55,21.51c0-1.58-0.51-2.37-1.52-2.37c-0.84,0.04-1.69,0.5-2.54,1.37v9.97c-0.58,0.1-1.22,0.15-1.9,0.15
			s-1.31-0.05-1.9-0.15V16.01l0.18-0.2h1.43c1.15,0,1.85,0.6,2.1,1.81c1.36-1.27,2.72-1.9,4.06-1.9c1.6,0,2.73,0.7,3.39,2.1
			c1.5-1.4,3.02-2.1,4.56-2.1c1.25,0,2.2,0.42,2.85,1.27s0.98,1.95,0.98,3.32v6.78c0,1.25,0.2,2.17,0.61,2.78
			c-0.68,0.54-1.44,0.82-2.26,0.82c-0.83,0-1.4-0.19-1.71-0.58s-0.47-0.98-0.47-1.78v-6.84c0-1.56-0.52-2.34-1.55-2.34
			c-0.78,0-1.62,0.47-2.51,1.4v9.94c-0.58,0.1-1.22,0.15-1.9,0.15s-1.31-0.05-1.9-0.15L80.55,21.51L80.55,21.51z"/>
		<path class="st0" d="M107.09,28.73c-0.1,0.35-0.27,0.72-0.53,1.11s-0.51,0.68-0.76,0.88c-1.27-0.16-2.19-0.71-2.78-1.67
			c-1.27,1.23-2.65,1.84-4.15,1.84c-0.76,0-1.43-0.12-2-0.37c-0.58-0.24-1.05-0.57-1.43-0.98s-0.66-0.88-0.85-1.4
			s-0.28-1.07-0.28-1.64c0-0.82,0.14-1.53,0.42-2.15c0.28-0.61,0.68-1.13,1.2-1.54s1.12-0.72,1.81-0.93
			c0.69-0.21,1.45-0.32,2.27-0.32c1.05,0,1.87,0.03,2.45,0.09v-0.79c0-1.48-0.72-2.22-2.16-2.22c-0.97,0-2.45,0.34-4.44,1.02
			c-0.55-0.6-0.88-1.51-0.99-2.72c2.06-0.88,4.2-1.32,6.4-1.32c1.46,0,2.66,0.41,3.59,1.23s1.4,2.06,1.4,3.71v5.99
			C106.27,27.6,106.54,28.32,107.09,28.73z M99.72,28c0.97,0,1.89-0.43,2.75-1.29v-2.54c-0.31-0.02-0.61-0.04-0.91-0.06
			c-0.29-0.02-0.58-0.03-0.85-0.03c-0.86,0-1.51,0.16-1.96,0.48s-0.67,0.85-0.67,1.59c0,0.58,0.15,1.04,0.44,1.36
			C98.82,27.83,99.22,28,99.72,28z"/>
		<path class="st0" d="M108.46,17.74c0.08-0.35,0.24-0.72,0.48-1.11c0.24-0.39,0.49-0.68,0.75-0.88c1.58,0.19,2.66,1.07,3.24,2.63
			c0.74-1.73,1.98-2.6,3.71-2.6c0.64,0,1.23,0.07,1.75,0.2c0,1.36-0.31,2.55-0.94,3.57c-0.29-0.1-0.74-0.17-1.34-0.2
			c-1.13,0-2.05,0.6-2.75,1.81v9.32c-0.58,0.1-1.21,0.15-1.88,0.15s-1.32-0.05-1.94-0.15v-9.73
			C109.54,19.36,109.18,18.36,108.46,17.74z"/>
		<path class="st0" d="M128.3,15.96c0.12,0.47,0.18,0.93,0.18,1.37s-0.06,0.91-0.18,1.37l-3.54-0.06v7.69c0,0.9,0.42,1.34,1.26,1.34
			h1.81c0.19,0.58,0.29,1.14,0.29,1.67s-0.03,0.87-0.09,1.02c-1.19,0.18-2.36,0.26-3.51,0.26c-2.34,0-3.51-1.19-3.51-3.57v-8.39
			l-2.22,0.03c-0.1-0.39-0.15-0.85-0.15-1.37s0.05-0.98,0.15-1.37l2.22,0.03v-2.1c0-0.86,0.16-1.46,0.47-1.81
			c0.31-0.35,0.85-0.53,1.61-0.53h1.46l0.2,0.18v4.3L128.3,15.96z"/>
		<path class="st0" d="M142.79,23.85h-2.68v6.63c-0.55,0.1-1.21,0.15-1.97,0.15s-1.42-0.05-1.97-0.15V10.67l0.2-0.18
			c1.58-0.04,2.9-0.07,3.96-0.09c1.06-0.02,1.88-0.03,2.44-0.03c2.1,0,3.78,0.58,5.04,1.72c1.26,1.15,1.88,2.82,1.88,5
			c0,1.09-0.17,2.06-0.5,2.89c-0.33,0.84-0.8,1.54-1.4,2.1c-0.6,0.57-1.33,1-2.17,1.3C144.79,23.7,143.84,23.85,142.79,23.85z
			 M140.11,13.41v7.45c0.76-0.02,1.4-0.03,1.93-0.03s0.99-0.03,1.37-0.1c0.38-0.07,0.7-0.19,0.96-0.38c0.26-0.18,0.5-0.46,0.71-0.83
			c0.19-0.33,0.34-0.71,0.44-1.13s0.15-0.84,0.15-1.27c0-0.45-0.05-0.89-0.15-1.33c-0.1-0.44-0.26-0.83-0.49-1.18
			c-0.23-0.35-0.54-0.63-0.93-0.85s-0.87-0.32-1.45-0.32c-0.56,0-1.05,0-1.47,0C140.75,13.44,140.4,13.43,140.11,13.41z"/>
		<path class="st0" d="M161.12,17.21c1.38,1.38,2.08,3.39,2.08,6.02c0,1.17-0.15,2.23-0.44,3.17c-0.29,0.95-0.72,1.75-1.27,2.41
			s-1.24,1.17-2.06,1.53s-1.74,0.54-2.78,0.54c-1.03,0-1.95-0.18-2.76-0.54s-1.49-0.87-2.05-1.53s-0.98-1.47-1.27-2.41
			c-0.29-0.94-0.44-2-0.44-3.17c0-2.36,0.57-4.22,1.7-5.6s2.74-2.06,4.82-2.06C158.48,15.58,159.97,16.12,161.12,17.21z
			 M156.65,18.44c-1.71,0-2.57,1.6-2.57,4.79c0,3.18,0.86,4.76,2.57,4.76c1.73,0,2.6-1.59,2.6-4.76
			C159.25,20.04,158.38,18.44,156.65,18.44z"/>
		<path class="st0" d="M164.13,29.46c0.02-0.43,0.14-0.9,0.37-1.42c0.22-0.52,0.48-0.92,0.77-1.21c1.54,0.84,2.89,1.26,4.06,1.26
			c0.64,0,1.16-0.13,1.56-0.38s0.6-0.59,0.6-1.02c0-0.68-0.53-1.23-1.58-1.64l-1.64-0.61c-2.46-0.9-3.68-2.33-3.68-4.3
			c0-0.7,0.13-1.33,0.39-1.89s0.63-1.03,1.11-1.43s1.05-0.71,1.71-0.92c0.66-0.21,1.4-0.32,2.22-0.32c0.37,0,0.78,0.03,1.24,0.09
			s0.92,0.14,1.39,0.25c0.47,0.11,0.92,0.23,1.34,0.37c0.43,0.14,0.8,0.28,1.11,0.44c0,0.49-0.1,0.99-0.29,1.52
			c-0.2,0.53-0.46,0.92-0.79,1.17c-1.54-0.68-2.87-1.02-4-1.02c-0.51,0-0.91,0.12-1.2,0.37s-0.44,0.56-0.44,0.95
			c0,0.6,0.49,1.08,1.46,1.43l1.78,0.64c1.29,0.45,2.24,1.06,2.86,1.84s0.93,1.69,0.93,2.72c0,1.38-0.52,2.49-1.55,3.32
			s-2.51,1.24-4.44,1.24C167.56,30.89,165.79,30.41,164.13,29.46z"/>
		<path class="st0" d="M185.23,15.96c0.12,0.47,0.18,0.93,0.18,1.37s-0.06,0.91-0.18,1.37l-3.54-0.06v7.69
			c0,0.9,0.42,1.34,1.26,1.34h1.81c0.19,0.58,0.29,1.14,0.29,1.67s-0.03,0.87-0.09,1.02c-1.19,0.18-2.36,0.26-3.51,0.26
			c-2.34,0-3.51-1.19-3.51-3.57v-8.39l-2.22,0.03c-0.1-0.39-0.15-0.85-0.15-1.37s0.05-0.98,0.15-1.37l2.22,0.03v-2.1
			c0-0.86,0.16-1.46,0.47-1.81c0.31-0.35,0.85-0.53,1.61-0.53h1.46l0.21,0.18v4.3L185.23,15.96z"/>
		<path class="st0" d="M191.31,28.73c0.06-0.54,0.24-1.1,0.54-1.65c0.3-0.56,0.65-1,1.04-1.33c2.01,1.29,3.97,1.93,5.9,1.93
			c0.94,0,1.68-0.22,2.22-0.66c0.54-0.44,0.82-0.99,0.82-1.65c-0.04-1.13-0.79-2.02-2.25-2.66l-3.45-1.46
			c-1.36-0.56-2.39-1.29-3.07-2.18c-0.68-0.89-1.02-1.9-1.02-3.05c0-0.88,0.17-1.68,0.51-2.4s0.83-1.34,1.46-1.86
			s1.38-0.92,2.25-1.21s1.83-0.44,2.88-0.44c2.14,0,4.25,0.54,6.31,1.61c-0.06,1.19-0.52,2.18-1.37,2.98
			c-1.97-0.92-3.68-1.37-5.14-1.37c-0.94,0-1.65,0.21-2.15,0.64s-0.75,0.95-0.75,1.57c0,0.89,0.69,1.63,2.08,2.21l3.45,1.46
			c1.4,0.58,2.48,1.35,3.24,2.31c0.76,0.96,1.14,2.06,1.14,3.3c0,0.88-0.16,1.69-0.47,2.44s-0.78,1.39-1.42,1.93
			c-0.63,0.54-1.42,0.96-2.37,1.26c-0.95,0.3-2.06,0.45-3.35,0.45C195.86,30.89,193.51,30.17,191.31,28.73z"/>
		<path class="st0" d="M220.01,20.72v6.37c0,1.25,0.21,2.17,0.61,2.78c-0.62,0.54-1.37,0.82-2.25,0.82c-0.84,0-1.41-0.19-1.72-0.57
			s-0.47-0.98-0.47-1.8v-6.81c0-0.88-0.11-1.49-0.32-1.84s-0.61-0.53-1.2-0.53c-1.03,0-2,0.47-2.89,1.4v9.94
			c-0.29,0.06-0.59,0.1-0.89,0.12s-0.62,0.03-0.95,0.03c-0.31,0-0.62-0.01-0.94-0.03c-0.31-0.02-0.62-0.06-0.93-0.12V9.17l0.17-0.2
			h1.49c0.76,0,1.29,0.18,1.59,0.53c0.3,0.35,0.45,0.96,0.45,1.84v6.17c1.36-1.19,2.74-1.78,4.12-1.78c1.4,0,2.44,0.45,3.11,1.36
			C219.67,17.99,220.01,19.2,220.01,20.72z"/>
		<path class="st0" d="M233.1,17.21c1.38,1.38,2.08,3.39,2.08,6.02c0,1.17-0.15,2.23-0.44,3.17c-0.29,0.95-0.72,1.75-1.27,2.41
			s-1.24,1.17-2.06,1.53s-1.74,0.54-2.78,0.54c-1.03,0-1.95-0.18-2.76-0.54s-1.49-0.87-2.05-1.53s-0.98-1.47-1.27-2.41
			c-0.29-0.94-0.44-2-0.44-3.17c0-2.36,0.57-4.22,1.7-5.6s2.74-2.06,4.82-2.06C230.46,15.58,231.95,16.12,233.1,17.21z
			 M228.63,18.44c-1.71,0-2.57,1.6-2.57,4.79c0,3.18,0.86,4.76,2.57,4.76c1.73,0,2.6-1.59,2.6-4.76
			C231.23,20.04,230.36,18.44,228.63,18.44z"/>
		<path class="st0" d="M238.54,28.73l-2.92-12.54c0.76-0.31,1.45-0.47,2.06-0.47s1.06,0.13,1.34,0.39s0.47,0.67,0.57,1.21l1.11,5.38
			c0.39,1.91,0.67,3.48,0.85,4.71c0.04,0.16,0.12,0.23,0.23,0.23l2.02-11.57c0.6-0.12,1.36-0.18,2.28-0.18s1.66,0.06,2.22,0.18
			l2.02,11.34c0.02,0.16,0.1,0.23,0.23,0.23c0.35-2.03,0.65-3.67,0.91-4.94l1.46-6.72c0.41-0.12,0.99-0.18,1.74-0.18
			s1.34,0.11,1.77,0.32l0.12,0.23l-3.51,14.12c-0.64,0.1-1.48,0.15-2.5,0.15s-1.72-0.12-2.09-0.35s-0.61-0.73-0.73-1.49l-0.64-3.59
			c-0.39-2.24-0.7-4.17-0.94-5.79h-0.17c-0.14,1.01-0.46,2.93-0.96,5.76L244,30.48c-0.68,0.1-1.53,0.15-2.54,0.15
			s-1.71-0.13-2.09-0.38C238.99,29.99,238.71,29.49,238.54,28.73z"/>
	</g>
</g>
</svg>
