<?xml version="1.0" encoding="utf-8"?>
<!-- Generator: Adobe Illustrator 24.3.0, SVG Export Plug-In . SVG Version: 6.00 Build 0)  -->
<svg version="1.1" id="Layer_1" xmlns="http://www.w3.org/2000/svg" xmlns:xlink="http://www.w3.org/1999/xlink" x="0px" y="0px"
	 viewBox="0 0 240.04 42.42" style="enable-background:new 0 0 240.04 42.42;" xml:space="preserve">
<style type="text/css">
	.st0{fill:#E1624B;}
	.st1{fill:#ffffff;}
	.st2{font-family:'BerkshireSwash-Regular';}
	.st3{font-size:29.5846px;}
</style>
<g>
	<path class="st0" d="M43.33,1.6H5.95C5.44,1.6,4.9,1.99,4.9,2.5v37.35c0,0.51,0.55,0.97,1.06,0.97h37.37
		c0.51,0,0.78-0.45,0.78-0.97V2.5C44.11,1.99,43.84,1.6,43.33,1.6z M20.42,6.78h8.17v6.94h-8.17V6.78z M10.34,6.78h8.17v6.94h-8.17
		V6.78z M23.14,35.78h-12.8v-7.35h12.8V35.78z M23.14,25.84h-12.8v-7.35h12.8V25.84z M39.07,35.78h-12.8v-7.35h12.8V35.78z
		 M39.07,25.84h-12.8v-7.35h12.8V25.84z M39.07,13.72H30.9V6.78h8.17V13.72z"/>
	<text transform="matrix(1 0 0 1 56.9799 31.4383)" class="st1 st2 st3">Smart Post Show</text>
</g>
</svg>
