<?xml version="1.0" encoding="utf-8"?>
<!-- Generator: Adobe Illustrator 25.2.3, SVG Export Plug-In . SVG Version: 6.00 Build 0)  -->
<svg version="1.1" id="Layer_1" xmlns="http://www.w3.org/2000/svg" xmlns:xlink="http://www.w3.org/1999/xlink" x="0px" y="0px"
	 viewBox="0 0 151 91" style="enable-background:new 0 0 151 91;" xml:space="preserve">
<style type="text/css">
	.st0{fill:#F7F8F9;stroke:#D2D2D2;stroke-miterlimit:10;}
	.st1{fill:#BDC5CB;}
</style>
<rect x="0.5" y="0.5" class="st0" width="150" height="90"/>
<g>
	<path class="st1" d="M74.6,13.8h2c0.2,0,0.4,0.2,0.4,0.4v62.6c0,0.2-0.2,0.4-0.4,0.4h-2c-0.2,0-0.4-0.2-0.4-0.4V14.2
		C74.2,14,74.4,13.8,74.6,13.8z"/>
	<rect x="82.1" y="13.8" class="st1" width="26" height="25"/>
	<polygon class="st1" points="78.2,22.3 82.1,19.6 82.1,25 	"/>
	<polygon class="st1" points="78.2,50.5 82.1,47.8 82.1,53.2 	"/>
	<rect x="82.1" y="42" class="st1" width="26" height="25"/>
	<rect x="42.9" y="24" class="st1" width="26" height="25"/>
	<polygon class="st1" points="68.9,35.2 68.9,29.8 72.8,32.5 	"/>
	<polygon class="st1" points="68.9,64.4 68.9,59 72.8,61.7 	"/>
	<rect x="42.9" y="52.2" class="st1" width="26" height="25"/>
</g>
</svg>
