<?xml version="1.0" encoding="utf-8"?>
<!-- Generator: Adobe Illustrator 25.2.3, SVG Export Plug-In . SVG Version: 6.00 Build 0)  -->
<svg version="1.1" id="Layer_1" xmlns="http://www.w3.org/2000/svg" xmlns:xlink="http://www.w3.org/1999/xlink" x="0px" y="0px"
	 viewBox="0 0 151 91" style="enable-background:new 0 0 151 91;" xml:space="preserve">
<style type="text/css">
	.st0{fill:#F7F8F9;stroke:#D2D2D2;stroke-miterlimit:10;}
	.st1{fill:#BDC5CB;}
</style>
<rect x="0.5" y="0.5" class="st0" width="150" height="90"/>
<rect x="28" y="11" class="st1" width="26" height="20"/>
<g>
	<rect x="58" y="17" class="st1" width="68" height="2"/>
	<rect x="58" y="20" class="st1" width="68" height="2"/>
	<rect x="58" y="12" class="st1" width="22" height="3"/>
	<rect x="58" y="25" class="st1" width="20" height="2"/>
</g>
<g>
	<rect x="100" y="36" class="st1" width="26" height="20"/>
	<g>
		<rect x="28" y="42" class="st1" width="68" height="2"/>
		<rect x="28" y="45" class="st1" width="68" height="2"/>
		<rect x="74" y="37" class="st1" width="22" height="3"/>
		<rect x="76" y="50" class="st1" width="20" height="2"/>
	</g>
</g>
<rect x="28" y="61" class="st1" width="26" height="20"/>
<g>
	<rect x="58" y="67" class="st1" width="68" height="2"/>
	<rect x="58" y="70" class="st1" width="68" height="2"/>
	<rect x="58" y="62" class="st1" width="22" height="3"/>
	<rect x="58" y="75" class="st1" width="20" height="2"/>
</g>
</svg>
