<?xml version="1.0" encoding="utf-8"?>
<!-- Generator: Adobe Illustrator 25.2.3, SVG Export Plug-In . SVG Version: 6.00 Build 0)  -->
<svg version="1.1"
	 id="Layer_1" xmlns:cc="http://creativecommons.org/ns#" xmlns:dc="http://purl.org/dc/elements/1.1/" xmlns:inkscape="http://www.inkscape.org/namespaces/inkscape" xmlns:rdf="http://www.w3.org/1999/02/22-rdf-syntax-ns#" xmlns:sodipodi="http://sodipodi.sourceforge.net/DTD/sodipodi-0.dtd" xmlns:svg="http://www.w3.org/2000/svg"
	 xmlns="http://www.w3.org/2000/svg" xmlns:xlink="http://www.w3.org/1999/xlink" x="0px" y="0px" viewBox="0 0 97 95"
	 style="enable-background:new 0 0 97 95;" xml:space="preserve">
<style type="text/css">
	.st0{fill:#FFFFFF;stroke:#D2D2D2;stroke-miterlimit:10;}
	.st1{fill:#8C9599;}
	.st2{fill:#FFFFFF;}
</style>
<g>
	<rect x="0.5" y="0.5" class="st0" width="96" height="94"/>
	<g>
		<path class="st1" d="M67.3,77H29.7c-0.6,0-1.1-0.5-1.1-1.1V19.2c0-0.6,0.5-1.1,1.1-1.1h37.7c0.6,0,1.1,0.5,1.1,1.1v56.6
			C68.5,76.5,68,77,67.3,77z"/>
		<g>
			<g transform="translate(0,-952.36218)">
				<path class="st2" d="M33.8,974c-0.8,0-1.5,0.7-1.5,1.5v18l9.6-10.2c0.1-0.1,0.3-0.2,0.4-0.2c0.3,0,0.5,0.1,0.7,0.2l7.8,8.8
					l5.4-5.8c0.1-0.1,0.3-0.2,0.4-0.2c0.3,0,0.5,0.1,0.7,0.2l7.4,8.2v-19.1c0-0.8-0.7-1.5-1.5-1.5L33.8,974z M51.1,979.3
					c1.3,0,2.3,1,2.3,2.3s-1,2.3-2.3,2.3s-2.3-1-2.3-2.3S49.9,979.3,51.1,979.3z M42.4,984.9l-10.2,10.8v0.9c0,0.8,0.7,1.5,1.5,1.5
					h20.5L42.4,984.9z M56.8,988l-5,5.3l4.4,4.9h7c0.8,0,1.4-0.6,1.5-1.4L56.8,988z"/>
			</g>
			<rect x="32.2" y="49.5" class="st2" width="32.5" height="3"/>
			<rect x="40.9" y="55.4" class="st2" width="15.1" height="2.2"/>
			<rect x="32.3" y="60.4" class="st2" width="32.4" height="2"/>
			<rect x="32.3" y="63.9" class="st2" width="32.4" height="2"/>
			<rect x="32.3" y="67.4" class="st2" width="29.4" height="2"/>
			<rect x="32.3" y="71.4" class="st2" width="13.6" height="2"/>
		</g>
	</g>
</g>
</svg>
