<?xml version="1.0" encoding="utf-8"?>
<!-- Generator: Adobe Illustrator 25.2.3, SVG Export Plug-In . SVG Version: 6.00 Build 0)  -->
<svg version="1.1"
	 id="Layer_1" xmlns:cc="http://creativecommons.org/ns#" xmlns:dc="http://purl.org/dc/elements/1.1/" xmlns:inkscape="http://www.inkscape.org/namespaces/inkscape" xmlns:rdf="http://www.w3.org/1999/02/22-rdf-syntax-ns#" xmlns:sodipodi="http://sodipodi.sourceforge.net/DTD/sodipodi-0.dtd" xmlns:svg="http://www.w3.org/2000/svg"
	 xmlns="http://www.w3.org/2000/svg" xmlns:xlink="http://www.w3.org/1999/xlink" x="0px" y="0px" viewBox="0 0 97 95"
	 style="enable-background:new 0 0 97 95;" xml:space="preserve">
<style type="text/css">
	.st0{fill:#FFFFFF;stroke:#D2D2D2;stroke-miterlimit:10;}
	.st1{fill:#ABB4BA;}
	.st2{fill:#BDC5CB;}
</style>
<g>
	<rect x="0.5" y="0.5" class="st0" width="96" height="94"/>
	<g transform="translate(0,-952.36218)">
		<path class="st1" d="M22.4,962.2c-1.5,0-2.7,1.2-2.7,2.7v31.9l17.1-18.1c0.2-0.2,0.5-0.4,0.8-0.4c0.4-0.1,0.9,0.1,1.2,0.4
			l13.8,15.5l9.6-10.2c0.2-0.2,0.5-0.4,0.8-0.4c0.4-0.1,0.9,0.1,1.2,0.4l13,14.5v-33.7c0-1.5-1.2-2.7-2.7-2.7L22.4,962.2z
			 M53.2,971.6c2.2,0,4,1.8,4,4c0,2.2-1.8,4-4,4c-2.2,0-4-1.8-4-4C49.2,973.4,51,971.6,53.2,971.6z M37.8,981.6l-18,19.1v1.6
			c0,1.5,1.2,2.7,2.7,2.7h36.2L37.8,981.6z M63.2,986.9l-8.8,9.3l7.8,8.8h12.4c1.4,0,2.5-1.1,2.7-2.4L63.2,986.9z"/>
	</g>
	<rect x="20.5" y="57.6" class="st1" width="56" height="3.5"/>
	<rect x="34.9" y="63.9" class="st2" width="27.3" height="3"/>
	<rect x="20.5" y="70.7" class="st2" width="56" height="2"/>
	<rect x="20.5" y="74.7" class="st2" width="56" height="2"/>
	<rect x="20.5" y="78.7" class="st2" width="51.9" height="2"/>
	<rect x="20.5" y="83.7" class="st1" width="21" height="2"/>
</g>
</svg>
