<?xml version="1.0" encoding="utf-8"?>
<!-- Generator: Adobe Illustrator 25.2.3, SVG Export Plug-In . SVG Version: 6.00 Build 0)  -->
<svg version="1.1"
	 id="Layer_1" xmlns:cc="http://creativecommons.org/ns#" xmlns:dc="http://purl.org/dc/elements/1.1/" xmlns:inkscape="http://www.inkscape.org/namespaces/inkscape" xmlns:rdf="http://www.w3.org/1999/02/22-rdf-syntax-ns#" xmlns:sodipodi="http://sodipodi.sourceforge.net/DTD/sodipodi-0.dtd" xmlns:svg="http://www.w3.org/2000/svg"
	 xmlns="http://www.w3.org/2000/svg" xmlns:xlink="http://www.w3.org/1999/xlink" x="0px" y="0px" viewBox="0 0 97 95"
	 style="enable-background:new 0 0 97 95;" xml:space="preserve">
<style type="text/css">
	.st0{fill:#FFFFFF;stroke:#D2D2D2;stroke-miterlimit:10;}
	.st1{fill:#ABB4BA;}
	.st2{fill:#BDC5CB;}
</style>
<g>
	<rect x="0.5" y="0.5" class="st0" width="96" height="94"/>
	<g>
		<g transform="translate(0,-952.36218)">
			<path class="st1" d="M10.8,986.9c-0.9,0-1.6,0.7-1.6,1.6v19.4l10.4-11c0.1-0.1,0.3-0.2,0.5-0.3c0.3,0,0.6,0.1,0.7,0.3l8.4,9.4
				l5.8-6.2c0.1-0.1,0.3-0.2,0.5-0.3c0.3,0,0.6,0.1,0.7,0.3l7.9,8.8v-20.5c0-0.9-0.7-1.6-1.6-1.6H10.8z M29.5,992.5
				c1.3,0,2.4,1.1,2.4,2.4s-1.1,2.4-2.4,2.4S27,996.3,27,995S28.1,992.5,29.5,992.5z M20.1,998.6l-11,11.6v1c0,0.9,0.7,1.6,1.6,1.6
				h22L20.1,998.6z M35.5,1001.9l-5.3,5.7l4.7,5.3h7.5c0.8,0,1.5-0.6,1.6-1.5L35.5,1001.9z"/>
		</g>
		<rect x="48.5" y="36.8" class="st1" width="28.3" height="3"/>
		<rect x="48.5" y="42.4" class="st2" width="15.1" height="2.2"/>
		<rect x="48.5" y="47.8" class="st2" width="39.3" height="2"/>
		<rect x="48.5" y="51.8" class="st2" width="39.3" height="2"/>
		<rect x="48.5" y="56.8" class="st1" width="15.5" height="2"/>
	</g>
</g>
</svg>
