<?xml version="1.0" encoding="utf-8"?>
<!-- Generator: Adobe Illustrator 25.2.3, SVG Export Plug-In . SVG Version: 6.00 Build 0)  -->
<svg version="1.1"
	 id="Layer_1" xmlns:cc="http://creativecommons.org/ns#" xmlns:dc="http://purl.org/dc/elements/1.1/" xmlns:inkscape="http://www.inkscape.org/namespaces/inkscape" xmlns:rdf="http://www.w3.org/1999/02/22-rdf-syntax-ns#" xmlns:sodipodi="http://sodipodi.sourceforge.net/DTD/sodipodi-0.dtd" xmlns:svg="http://www.w3.org/2000/svg"
	 xmlns="http://www.w3.org/2000/svg" xmlns:xlink="http://www.w3.org/1999/xlink" x="0px" y="0px" viewBox="0 0 97 95"
	 style="enable-background:new 0 0 97 95;" xml:space="preserve">
<style type="text/css">
	.st0{fill:#FFFFFF;stroke:#D2D2D2;stroke-miterlimit:10;}
	.st1{fill:#ABB4BA;}
	.st2{opacity:0.5;}
	.st3{fill:#FFFFFF;}
</style>
<rect x="0.5" y="0.5" class="st0" width="96" height="94"/>
<g transform="translate(0,-952.36218)">
	<path class="st1" d="M10.7,967.8c-2.1,0-3.9,1.7-3.9,3.9v46.2l24.7-26.2c0.3-0.3,0.7-0.5,1.1-0.6c0.6-0.1,1.3,0.1,1.8,0.6l20,22.5
		l13.9-14.8c0.3-0.3,0.7-0.5,1.1-0.6c0.6-0.1,1.3,0.1,1.8,0.6l18.9,21.1v-48.8c0-2.1-1.7-3.9-3.9-3.9L10.7,967.8z M55.3,981.4
		c3.2,0,5.8,2.6,5.8,5.8c0,3.2-2.6,5.8-5.8,5.8c-3.2,0-5.8-2.6-5.8-5.8C49.5,984,52.1,981.4,55.3,981.4z M33,995.8l-26.1,27.7v2.4
		c0,2.1,1.7,3.9,3.9,3.9h52.4L33,995.8z M69.8,1003.6L57,1017.1l11.3,12.7h17.9c2,0,3.7-1.5,3.8-3.5L69.8,1003.6z"/>
</g>
<g>
	<path class="st2" d="M79.9,69.3H17.1c-0.2,0-0.3-0.1-0.3-0.3V26c0-0.2,0.1-0.3,0.3-0.3h62.9c0.2,0,0.3,0.1,0.3,0.3V69
		C80.2,69.1,80.1,69.3,79.9,69.3z"/>
	<g>
		<rect x="23.1" y="36.4" class="st3" width="50.9" height="3.5"/>
		<rect x="36.1" y="42.7" class="st3" width="24.8" height="3"/>
		<rect x="39.2" y="30.5" class="st3" width="18.5" height="2.6"/>
		<rect x="23.1" y="49.5" class="st3" width="50.9" height="2"/>
		<rect x="23.1" y="53.5" class="st3" width="50.9" height="2"/>
		<rect x="23.1" y="57.5" class="st3" width="47.2" height="2"/>
		<rect x="38.9" y="62.5" class="st3" width="19.1" height="2"/>
	</g>
</g>
</svg>
