<?xml version="1.0" encoding="utf-8"?>
<!-- Generator: Adobe Illustrator 25.2.3, SVG Export Plug-In . SVG Version: 6.00 Build 0)  -->
<svg version="1.1"
	 id="Layer_1" xmlns:cc="http://creativecommons.org/ns#" xmlns:dc="http://purl.org/dc/elements/1.1/" xmlns:inkscape="http://www.inkscape.org/namespaces/inkscape" xmlns:rdf="http://www.w3.org/1999/02/22-rdf-syntax-ns#" xmlns:sodipodi="http://sodipodi.sourceforge.net/DTD/sodipodi-0.dtd" xmlns:svg="http://www.w3.org/2000/svg"
	 xmlns="http://www.w3.org/2000/svg" xmlns:xlink="http://www.w3.org/1999/xlink" x="0px" y="0px" viewBox="0 0 97 95"
	 style="enable-background:new 0 0 97 95;" xml:space="preserve">
<style type="text/css">
	.st0{fill:#FFFFFF;stroke:#D2D2D2;stroke-miterlimit:10;}
	.st1{fill:#ABB4BA;}
	.st2{fill:#BDC5CB;}
</style>
<g>
	<rect x="0.5" y="0.5" class="st0" width="96" height="94"/>
	<g>
		<g transform="translate(0,-952.36218)">
			<path class="st1" d="M54.5,986.9c-0.9,0-1.6,0.7-1.6,1.6v20.5l7.9-8.8c0.2-0.2,0.5-0.3,0.7-0.3c0.2,0,0.3,0.1,0.5,0.3l5.8,6.2
				l8.4-9.4c0.2-0.2,0.5-0.3,0.7-0.3c0.2,0,0.3,0.1,0.5,0.3l10.4,11v-19.4c0-0.9-0.7-1.6-1.6-1.6H54.5z M70,995
				c0,1.3-1.1,2.4-2.4,2.4s-2.4-1.1-2.4-2.4s1.1-2.4,2.4-2.4S70,993.6,70,995z M64.2,1012.9h22c0.9,0,1.6-0.7,1.6-1.6v-1l-11-11.6
				L64.2,1012.9z M52.9,1011.4c0.1,0.8,0.8,1.5,1.6,1.5h7.5l4.7-5.3l-5.3-5.7L52.9,1011.4z"/>
		</g>
		
			<rect x="20.2" y="36.8" transform="matrix(-1 -4.490465e-11 4.490465e-11 -1 68.6225 76.5491)" class="st1" width="28.3" height="3"/>
		
			<rect x="33.3" y="42.4" transform="matrix(-1 -4.489221e-11 4.489221e-11 -1 81.8037 86.9363)" class="st2" width="15.1" height="2.2"/>
		
			<rect x="9.1" y="47.8" transform="matrix(-1 -4.491175e-11 4.491175e-11 -1 57.6107 97.6064)" class="st2" width="39.3" height="2"/>
		
			<rect x="9.1" y="51.8" transform="matrix(-1 -4.491175e-11 4.491175e-11 -1 57.6107 105.5874)" class="st2" width="39.3" height="2"/>
		
			<rect x="33" y="56.8" transform="matrix(-1 -4.494772e-11 4.494772e-11 -1 81.4379 115.5494)" class="st1" width="15.5" height="2"/>
	</g>
</g>
</svg>
