<svg width="20" height="24" viewBox="0 0 20 24" fill="none" xmlns="http://www.w3.org/2000/svg">
<path d="M19.9736 5.99579V5.98038C19.9613 5.31875 19.949 4.69307 19.949 4.08589C19.9487 3.95246 19.8956 3.82457 19.8012 3.73022C19.7069 3.63587 19.579 3.58275 19.4455 3.58248C15.6545 3.58248 12.7676 2.48934 10.3512 0.142808C10.2573 0.0512495 10.1314 0 10.0003 0C9.86923 0 9.74332 0.0512495 9.64948 0.142808C7.23514 2.48934 4.34615 3.58248 0.556142 3.58248C0.422533 3.58247 0.294382 3.63548 0.19981 3.72986C0.105238 3.82424 0.051971 3.95228 0.0516989 4.08589C0.0516989 4.70232 0.0403977 5.33108 0.0270418 5.99682C-0.0325462 9.13649 -0.102408 12.6964 1.11195 15.9758C2.5133 19.7658 5.36634 22.3609 9.83544 23.9102C9.94226 23.9472 10.0584 23.9472 10.1652 23.9102C14.6343 22.3609 17.4874 19.7658 18.8887 15.9758C20.102 12.6953 20.0342 9.13649 19.9736 5.99579ZM10.1231 22.8571L9.99982 22.9013L9.87756 22.8571C0.776002 19.55 0.912643 12.3594 1.03387 6.01531V6.00504C1.04004 5.63518 1.04723 5.27765 1.05237 4.92629V4.58623L1.39243 4.57184C4.78278 4.42904 7.44267 3.42323 9.75838 1.40546L9.99468 1.19998L10.231 1.40546C12.5477 3.42323 15.2056 4.42904 18.599 4.57184L18.938 4.58623L18.9432 4.92629C18.9432 5.28073 18.9545 5.64545 18.9617 6.01531C19.088 12.3594 19.2257 19.55 10.1231 22.8571Z" fill="#34C636" stroke="#34C636" stroke-width="0.5"/>
<path d="M13.5824 9.07788C13.5164 9.07765 13.4509 9.09052 13.3899 9.11574C13.3289 9.14096 13.2735 9.17803 13.2269 9.2248L8.80917 13.6425L6.77496 11.6093C6.6796 11.5148 6.55057 11.462 6.41628 11.4626C6.28199 11.4632 6.15343 11.5171 6.05888 11.6124C5.96433 11.7078 5.91154 11.8368 5.91211 11.9711C5.91269 12.1054 5.96659 12.234 6.06196 12.3285L8.44959 14.7161C8.54413 14.8103 8.67214 14.8632 8.80558 14.8632C8.93902 14.8632 9.06702 14.8103 9.16156 14.7161L13.9379 9.93986C14.0081 9.86939 14.0559 9.77969 14.0752 9.68207C14.0945 9.58445 14.0845 9.4833 14.0463 9.39139C14.0082 9.29949 13.9437 9.22095 13.8609 9.16569C13.7781 9.11044 13.6809 9.08096 13.5813 9.08097L13.5824 9.07788Z" fill="#34C636" stroke="#34C636" stroke-width="0.5"/>
</svg>
