<svg width="25" height="21" viewBox="0 0 25 21" fill="none" xmlns="http://www.w3.org/2000/svg">
<path d="M12.5419 16.5043C12.7312 16.5043 12.8846 16.3509 12.8846 16.1616C12.8846 15.9723 12.7312 15.8189 12.5419 15.8189C12.3527 15.8189 12.1992 15.9723 12.1992 16.1616C12.1992 16.3509 12.3527 16.5043 12.5419 16.5043Z" fill="#FFA30D" stroke="#FFA30D" stroke-width="0.75"/>
<path d="M23.8476 3.44821C23.7911 3.41079 23.7249 3.39084 23.6572 3.39082C23.5896 3.39071 23.5236 3.41068 23.4675 3.44821L17.3762 8.04039L12.7848 1.15291C12.7536 1.10589 12.7112 1.06732 12.6615 1.04064C12.6118 1.01396 12.5563 1 12.4999 1C12.4434 1 12.3879 1.01396 12.3382 1.04064C12.2885 1.06732 12.2461 1.10589 12.2149 1.15291L8.41972 8.03959L1.53224 3.44821C1.4761 3.41068 1.41008 3.39071 1.34256 3.39082C1.27519 3.39094 1.2093 3.4106 1.15288 3.44741C1.09662 3.48473 1.05267 3.53788 1.02658 3.60014C1.00048 3.6624 0.993401 3.731 1.00623 3.79728L3.35333 16.1927V19.3495C3.35354 19.4403 3.38974 19.5272 3.45399 19.5913C3.51823 19.6554 3.60528 19.6914 3.69603 19.6914H21.2296C21.3203 19.6914 21.4074 19.6554 21.4716 19.5913C21.5359 19.5272 21.5721 19.4403 21.5723 19.3495V16.1951L23.9935 3.79967C24.0067 3.73323 23.9999 3.66435 23.974 3.60177C23.948 3.5392 23.904 3.48575 23.8476 3.44821ZM14.5341 15.8189C14.4433 15.8189 14.3561 15.855 14.2918 15.9193C14.2275 15.9835 14.1914 16.0707 14.1914 16.1616C14.1914 16.2525 14.2275 16.3397 14.2918 16.4039C14.3561 16.4682 14.4433 16.5043 14.5341 16.5043H20.8861V19.0068H4.03873V16.5043H10.55C10.6409 16.5043 10.7281 16.4682 10.7924 16.4039C10.8566 16.3397 10.8927 16.2525 10.8927 16.1616C10.8927 16.0707 10.8566 15.9835 10.7924 15.9193C10.7281 15.855 10.6409 15.8189 10.55 15.8189H3.97976L1.82792 4.47073L8.32488 8.80071C8.36242 8.82614 8.40464 8.84387 8.44908 8.85288C8.49352 8.86188 8.53931 8.86197 8.58378 8.85315C8.62826 8.84433 8.67055 8.82677 8.70819 8.80149C8.74583 8.7762 8.77808 8.7437 8.80307 8.70587L12.5003 1.96025L16.9968 8.70587C17.0218 8.7437 17.054 8.7762 17.0917 8.80149C17.1293 8.82677 17.1716 8.84433 17.2161 8.85315C17.2606 8.86197 17.3064 8.86188 17.3508 8.85288C17.3952 8.84387 17.4375 8.82614 17.475 8.80071L23.163 4.47471L20.9466 15.8189H14.5341Z" fill="#FFA30D" stroke="#FFA30D" stroke-width="0.75"/>
</svg>
