<svg width="18" height="21" viewBox="0 0 18 21" fill="none" xmlns="http://www.w3.org/2000/svg">
<path d="M1.38459 20.3975C1.20272 20.3976 1.02261 20.3619 0.854555 20.2924C0.686502 20.2229 0.533808 20.1209 0.405207 19.9923C0.276607 19.8637 0.174624 19.711 0.105094 19.5429C0.0355646 19.3749 -0.000147583 19.1948 4.58385e-07 19.0129V8.25137C4.65147e-07 8.13792 0.0450679 8.02912 0.125288 7.9489C0.205509 7.86868 0.314311 7.82361 0.42776 7.82361C0.541209 7.82361 0.650011 7.86868 0.730232 7.9489C0.810452 8.02912 0.855519 8.13792 0.855519 8.25137V19.0129C0.857555 19.1556 0.915137 19.2918 1.01603 19.3927C1.11692 19.4936 1.25318 19.5512 1.39585 19.5532H16.5813C16.724 19.5512 16.8602 19.4936 16.9611 19.3927C17.062 19.2918 17.1196 19.1556 17.1216 19.0129V15.8497C17.1216 15.7936 17.1327 15.7379 17.1542 15.686C17.1757 15.6341 17.2072 15.587 17.2469 15.5473C17.2866 15.5075 17.3338 15.476 17.3857 15.4545C17.4376 15.433 17.4932 15.422 17.5494 15.422C17.6068 15.4215 17.6636 15.4333 17.716 15.4566C17.7684 15.4799 17.8152 15.5141 17.8533 15.5571C17.8915 15.5948 17.9205 15.6408 17.9381 15.6916C17.9557 15.7423 17.9613 15.7964 17.9546 15.8497V19.0129C17.9548 19.1948 17.9191 19.3749 17.8495 19.5429C17.78 19.711 17.678 19.8637 17.5494 19.9923C17.4208 20.1209 17.2681 20.2229 17.1001 20.2924C16.932 20.3619 16.7519 20.3976 16.57 20.3975H1.38459Z" fill="black"/>
<path d="M17.5719 14.3525C17.4584 14.3525 17.3496 14.3074 17.2694 14.2272C17.1892 14.1469 17.1441 14.0381 17.1441 13.9247V1.39585C17.1421 1.25318 17.0845 1.11692 16.9836 1.01603C16.8827 0.915137 16.7464 0.857556 16.6038 0.855519H1.41831C1.27564 0.857556 1.13938 0.915137 1.03849 1.01603C0.937597 1.11692 0.880017 1.25318 0.87798 1.39585V6.32634C0.87798 6.43979 0.832912 6.54859 0.752692 6.62881C0.672472 6.70903 0.563669 6.7541 0.450221 6.7541C0.336772 6.7541 0.22797 6.70903 0.147749 6.62881C0.0675289 6.54859 0.0224614 6.43979 0.0224614 6.32634V1.38459C0.0223134 1.20272 0.0580256 1.02261 0.127555 0.854555C0.197085 0.686503 0.299067 0.533808 0.427668 0.405207C0.556268 0.276607 0.708963 0.174624 0.877016 0.105095C1.04507 0.0355648 1.22518 -0.000147583 1.40705 4.58382e-07H16.5925C16.9616 0.000821908 17.3156 0.146258 17.5787 0.405107C17.8417 0.663955 17.9928 1.0156 17.9996 1.38459V13.9247C17.9996 14.0381 17.9545 14.1469 17.8743 14.2272C17.7941 14.3074 17.6853 14.3525 17.5719 14.3525Z" fill="black"/>
<path d="M2.54395 14.8365V14.026L6.23618 10.3338L7.86842 11.966L12.191 7.64343L15.4555 10.9079V14.8365H2.54395ZM3.61334 14.0711H14.6788V11.2118L12.2023 8.73534L7.86842 13.0692L6.23618 11.437L3.61334 14.0711Z" fill="black"/>
<path d="M14.229 6.01131C13.9396 6.01131 13.6566 5.92548 13.416 5.76468C13.1753 5.60388 12.9878 5.37533 12.877 5.10794C12.7663 4.84054 12.7373 4.5463 12.7937 4.26243C12.8502 3.97856 12.9896 3.71781 13.1942 3.51315C13.3989 3.30849 13.6596 3.16912 13.9435 3.11265C14.2274 3.05619 14.5216 3.08517 14.789 3.19593C15.0564 3.30669 15.285 3.49425 15.4458 3.73491C15.6066 3.97556 15.6924 4.25849 15.6924 4.54792C15.6924 4.7401 15.6545 4.93039 15.581 5.10794C15.5075 5.28548 15.3997 5.4468 15.2638 5.58269C15.1279 5.71858 14.9666 5.82637 14.789 5.89992C14.6115 5.97346 14.4212 6.01131 14.229 6.01131ZM14.229 3.80497C14.0821 3.80497 13.9384 3.84854 13.8162 3.93018C13.6941 4.01182 13.5988 4.12785 13.5426 4.26361C13.4864 4.39936 13.4717 4.54875 13.5003 4.69286C13.529 4.83698 13.5998 4.96936 13.7037 5.07327C13.8076 5.17717 13.9399 5.24793 14.0841 5.2766C14.2282 5.30526 14.3776 5.29055 14.5133 5.23432C14.6491 5.17809 14.7651 5.08286 14.8467 4.96068C14.9284 4.83851 14.972 4.69486 14.972 4.54792C14.973 4.45006 14.9545 4.35298 14.9176 4.26236C14.8806 4.17175 14.8259 4.08943 14.7567 4.02023C14.6875 3.95102 14.6052 3.89634 14.5146 3.85938C14.424 3.82241 14.3269 3.80392 14.229 3.80497Z" fill="black"/>
</svg>
