<svg width="24" height="24" viewBox="0 0 24 24" fill="none" xmlns="http://www.w3.org/2000/svg">
<path d="M2.35683 7.94599C1.99697 7.94599 1.65186 7.80304 1.39741 7.54859C1.14295 7.29413 1 6.94902 1 6.58916V2.35683C1 1.99698 1.14295 1.65186 1.39741 1.39741C1.65186 1.14295 1.99697 1 2.35683 1L9.41233 1C9.77219 1 10.1173 1.14295 10.3718 1.39741C10.6262 1.65186 10.7692 1.99698 10.7692 2.35683V6.59013C10.7692 6.94999 10.6262 7.2951 10.3718 7.54956C10.1173 7.80401 9.77219 7.94696 9.41233 7.94696L2.35683 7.94599ZM2.35683 1.8296C2.217 1.8296 2.0829 1.88515 1.98402 1.98402C1.88515 2.0829 1.8296 2.217 1.8296 2.35683V6.59013C1.82986 6.72979 1.88552 6.86365 1.98437 6.96231C2.08321 7.06097 2.21717 7.11639 2.35683 7.11639H9.41233C9.55183 7.11613 9.68553 7.06061 9.78417 6.96197C9.88281 6.86333 9.93833 6.72963 9.93859 6.59013V2.35683C9.93859 2.21717 9.88318 2.08321 9.78451 1.98437C9.68585 1.88552 9.552 1.82986 9.41233 1.8296H2.35683Z" fill="#FF5AEC" stroke="#FF5AEC" stroke-width="0.5"/>
<path d="M2.35683 23C1.99697 23 1.65186 22.857 1.39741 22.6026C1.14295 22.3481 1 22.003 1 21.6432V11.7645C1 11.4046 1.14295 11.0595 1.39741 10.8051C1.65186 10.5506 1.99697 10.4077 2.35683 10.4077H9.41233C9.77219 10.4077 10.1173 10.5506 10.3718 10.8051C10.6262 11.0595 10.7692 11.4046 10.7692 11.7645V21.6432C10.7692 22.003 10.6262 22.3481 10.3718 22.6026C10.1173 22.857 9.77219 23 9.41233 23H2.35683ZM2.35683 11.2392C2.21742 11.2392 2.08372 11.2945 1.98505 11.393C1.88639 11.4915 1.83083 11.6251 1.83057 11.7645V21.6432C1.83057 21.7828 1.88599 21.9168 1.98465 22.0156C2.08331 22.1145 2.21717 22.1701 2.35683 22.1704H9.41233C9.552 22.1701 9.68585 22.1145 9.78451 22.0156C9.88318 21.9168 9.93859 21.7828 9.93859 21.6432V11.7645C9.93833 11.6251 9.88278 11.4915 9.78411 11.393C9.68545 11.2945 9.55174 11.2392 9.41233 11.2392H2.35683Z" fill="#FF5AEC" stroke="#FF5AEC" stroke-width="0.5"/>
<path d="M14.5873 23C14.2274 23 13.8823 22.857 13.6279 22.6026C13.3734 22.3481 13.2305 22.003 13.2305 21.6432V17.4099C13.2305 17.05 13.3734 16.7049 13.6279 16.4504C13.8823 16.196 14.2274 16.053 14.5873 16.053H21.6428C22.0027 16.053 22.3478 16.196 22.6022 16.4504C22.8567 16.7049 22.9997 17.05 22.9997 17.4099V21.6432C22.9997 22.003 22.8567 22.3481 22.6022 22.6026C22.3478 22.857 22.0027 23 21.6428 23H14.5873ZM14.5873 16.8846C14.4479 16.8846 14.3142 16.9399 14.2155 17.0384C14.1169 17.1369 14.0613 17.2705 14.061 17.4099V21.6432C14.0613 21.7827 14.1168 21.9164 14.2155 22.015C14.3141 22.1136 14.4478 22.1692 14.5873 22.1694H21.6428C21.7823 22.1692 21.916 22.1136 22.0147 22.015C22.1133 21.9164 22.1688 21.7827 22.1691 21.6432V17.4099C22.1688 17.2705 22.1133 17.1369 22.0146 17.0384C21.9159 16.9399 21.7822 16.8846 21.6428 16.8846H14.5873Z" fill="#FF5AEC" stroke="#FF5AEC" stroke-width="0.5"/>
<path d="M14.5873 13.5914C14.2274 13.5914 13.8823 13.4484 13.6279 13.194C13.3734 12.9395 13.2305 12.5944 13.2305 12.2345V2.35683C13.2305 1.99697 13.3734 1.65186 13.6279 1.39741C13.8823 1.14295 14.2274 1 14.5873 1L21.6428 1C22.0027 1 22.3478 1.14295 22.6022 1.39741C22.8567 1.65186 22.9997 1.99697 22.9997 2.35683V12.2355C22.9997 12.5954 22.8567 12.9405 22.6022 13.1949C22.3478 13.4494 22.0027 13.5923 21.6428 13.5923L14.5873 13.5914ZM14.5873 1.8296C14.4476 1.82986 14.3138 1.88552 14.2151 1.98437C14.1165 2.08321 14.061 2.21717 14.061 2.35683V12.2355C14.0613 12.375 14.1168 12.5087 14.2155 12.6073C14.3141 12.706 14.4478 12.7615 14.5873 12.7618H21.6428C21.7823 12.7615 21.916 12.706 22.0147 12.6073C22.1133 12.5087 22.1688 12.375 22.1691 12.2355V2.35683C22.1691 2.21717 22.1137 2.08321 22.015 1.98437C21.9163 1.88552 21.7825 1.82986 21.6428 1.8296H14.5873Z" fill="#FF5AEC" stroke="#FF5AEC" stroke-width="0.5"/>
</svg>
