<svg width="24" height="24" viewBox="0 0 24 24" fill="none" xmlns="http://www.w3.org/2000/svg">
<path d="M2.54915 5.56199C2.57355 5.60482 2.60639 5.64224 2.64569 5.67199C2.68498 5.70174 2.7299 5.7232 2.77773 5.73508L4.14828 6.07654L8.82245 10.7507L9.33887 10.2343L4.58663 5.48674C4.53981 5.44056 4.48126 5.40803 4.41731 5.39267L3.10791 5.06156L1.86435 2.88392L2.93106 1.81815L5.1087 3.06641L5.43793 4.37582C5.45318 4.44009 5.4857 4.49896 5.532 4.54608L10.2805 9.28891L10.7969 8.77248L6.12368 4.10114L5.78222 2.73718C5.7705 2.68928 5.74909 2.64429 5.71933 2.60498C5.68956 2.56567 5.65206 2.53287 5.60914 2.5086L3.05335 1.04774C2.98393 1.00831 2.90351 0.992667 2.82437 1.0032C2.74522 1.01373 2.6717 1.04985 2.615 1.10606L1.15509 2.56692C1.09804 2.62321 1.061 2.69662 1.04962 2.77595C1.03824 2.85528 1.05314 2.93615 1.09206 3.00621L2.54915 5.56199Z" fill="#574FF7" stroke="#574FF7" stroke-width="0.35"/>
<path d="M6.83373 16.5104C6.80193 16.4557 6.75638 16.4103 6.7016 16.3786C6.64682 16.3469 6.58471 16.3301 6.52143 16.3298H4.33062C4.26757 16.3297 4.20555 16.3459 4.15064 16.3769C4.09572 16.4079 4.04981 16.4526 4.01738 16.5067L2.92527 18.3363C2.8911 18.3931 2.87305 18.4581 2.87305 18.5244C2.87305 18.5907 2.8911 18.6557 2.92527 18.7125L4.02115 20.5384C4.05371 20.5923 4.09966 20.637 4.15454 20.6679C4.20941 20.6989 4.27137 20.7152 4.33439 20.7152H6.52143C6.58429 20.715 6.64605 20.6987 6.70075 20.6677C6.75545 20.6367 6.80125 20.5922 6.83373 20.5384L7.92961 18.7125C7.96378 18.6557 7.98183 18.5907 7.98183 18.5244C7.98183 18.4581 7.96378 18.3931 7.92961 18.3363L6.83373 16.5104ZM6.31166 19.9843H4.53663L3.66087 18.5244L4.53663 17.0636H6.31166L7.18836 18.5244L6.31166 19.9843Z" fill="#574FF7" stroke="#574FF7" stroke-width="0.35"/>
<path d="M22.1075 17.8944C22.1017 17.8877 22.0954 17.8814 22.0887 17.8756L17.7334 13.5194C17.6648 13.4511 17.572 13.4127 17.4752 13.4127C17.3784 13.4127 17.2856 13.4511 17.217 13.5194L17.0354 13.7019C16.9974 13.7399 16.9523 13.7701 16.9027 13.7907C16.853 13.8113 16.7998 13.822 16.746 13.822C16.6923 13.8221 16.639 13.8115 16.5893 13.791C16.5397 13.7705 16.4945 13.7403 16.4564 13.7024C16.4184 13.6644 16.3882 13.6193 16.3676 13.5696C16.347 13.5199 16.3363 13.4667 16.3363 13.413C16.3363 13.3592 16.3468 13.3059 16.3673 13.2563C16.3879 13.2066 16.418 13.1614 16.456 13.1234L16.6394 12.9352C16.7076 12.8668 16.746 12.7741 16.746 12.6775C16.746 12.5809 16.7076 12.4882 16.6394 12.4198L15.8022 11.5826L17.7165 9.66737C17.9976 9.72733 18.2841 9.75885 18.5715 9.76143C19.2377 9.76387 19.8957 9.6138 20.4949 9.32272C21.0942 9.03164 21.6189 8.60728 22.0288 8.08212C22.4387 7.55697 22.723 6.94496 22.8599 6.29298C22.9968 5.64099 22.9827 4.96631 22.8186 4.32063C22.7953 4.22671 22.7356 4.1459 22.6527 4.09598C22.5698 4.04606 22.4705 4.03111 22.3765 4.05442C22.3124 4.07006 22.2536 4.10253 22.2063 4.14849L19.9327 6.42207L18.1294 5.82099L17.5283 4.01773L19.801 1.74979C19.8467 1.70391 19.8793 1.64673 19.8957 1.5841C19.9121 1.52146 19.9115 1.4556 19.8941 1.39325C19.8767 1.33089 19.8431 1.27427 19.7966 1.22916C19.7502 1.18405 19.6926 1.15207 19.6298 1.13648C18.9841 0.972961 18.3095 0.959275 17.6577 1.09647C17.0059 1.23366 16.394 1.51809 15.869 1.92802C15.344 2.33795 14.9197 2.86251 14.6285 3.46159C14.3373 4.06068 14.187 4.71842 14.189 5.38452C14.1897 5.67179 14.2193 5.95825 14.2774 6.23958L6.28175 14.2352C6.00042 14.1771 5.71395 14.1475 5.42668 14.1468C4.51697 14.1422 3.62814 14.4193 2.88232 14.9403C2.1365 15.4612 1.57029 16.2003 1.26149 17.056C0.952691 17.9117 0.916456 18.842 1.15776 19.7192C1.39907 20.5963 1.90608 21.3772 2.60912 21.9546C3.31217 22.5319 4.17675 22.8774 5.08407 22.9435C5.99139 23.0096 6.89692 22.7932 7.67624 22.3238C8.45557 21.8545 9.07044 21.1554 9.43637 20.3225C9.80231 19.4896 9.90134 18.5639 9.71988 17.6724L11.6341 15.7582L12.4713 16.5954C12.5052 16.6294 12.5454 16.6564 12.5897 16.6749C12.634 16.6933 12.6815 16.7028 12.7295 16.7028C12.7775 16.7028 12.8251 16.6933 12.8694 16.6749C12.9137 16.6564 12.9539 16.6294 12.9877 16.5954L13.1702 16.4129C13.247 16.336 13.351 16.2928 13.4596 16.2927C13.5682 16.2926 13.6724 16.3357 13.7492 16.4124C13.8261 16.4891 13.8693 16.5932 13.8694 16.7018C13.8694 16.8104 13.8264 16.9145 13.7497 16.9914L13.5672 17.1739C13.4989 17.2425 13.4606 17.3353 13.4606 17.4321C13.4606 17.5289 13.4989 17.6217 13.5672 17.6903L17.9234 22.0456C18.194 22.3284 18.5182 22.5545 18.877 22.7106C19.2359 22.8668 19.6223 22.9499 20.0137 22.9551C20.405 22.9603 20.7935 22.8875 21.1564 22.741C21.5193 22.5944 21.8494 22.377 22.1274 22.1015C22.4054 21.826 22.6257 21.4979 22.7755 21.1364C22.9254 20.7748 23.0016 20.387 23 19.9956C22.9983 19.6042 22.9187 19.2171 22.7658 18.8568C22.6129 18.4966 22.3897 18.1704 22.1094 17.8972L22.1075 17.8944ZM9.05953 17.2952C9.01529 17.3401 8.98339 17.3956 8.96691 17.4564C8.95043 17.5172 8.94993 17.5813 8.96546 17.6423C9.16405 18.4228 9.10083 19.247 8.78552 19.988C8.47021 20.7291 7.92026 21.3461 7.22018 21.7443C6.52011 22.1424 5.70865 22.2997 4.91054 22.1918C4.11242 22.0839 3.37181 21.717 2.80253 21.1473C2.23324 20.5776 1.8668 19.8367 1.75951 19.0385C1.65221 18.2403 1.81001 17.429 2.20865 16.7292C2.60729 16.0294 3.22471 15.4799 3.96601 15.1651C4.70732 14.8503 5.53149 14.7877 6.31185 14.9868C6.37293 15.002 6.43687 15.0013 6.49761 14.9848C6.55835 14.9684 6.61389 14.9367 6.65895 14.8928L14.9368 6.61491C14.981 6.57019 15.0128 6.51483 15.0293 6.45418C15.0458 6.39354 15.0463 6.32966 15.0309 6.26875C14.8874 5.71302 14.8776 5.13121 15.0023 4.57097C15.127 4.01073 15.3826 3.48799 15.7482 3.04557C16.1138 2.60314 16.579 2.25361 17.1057 2.0256C17.6324 1.7976 18.2057 1.6976 18.7785 1.7338L16.852 3.66122C16.8036 3.70944 16.7697 3.77023 16.7541 3.83673C16.7384 3.90322 16.7417 3.97277 16.7636 4.03749L17.4935 6.2283C17.5122 6.28103 17.5428 6.32875 17.583 6.36774C17.6231 6.40673 17.6717 6.43595 17.7249 6.45312L19.9157 7.18401C19.9805 7.20586 20.05 7.20916 20.1165 7.19353C20.183 7.17791 20.2438 7.14398 20.292 7.09559L22.2185 5.16911C22.2185 5.23872 22.2251 5.30833 22.2251 5.377C22.2275 5.93226 22.1028 6.4807 21.8603 6.98024C21.6178 7.47978 21.2641 7.91712 20.8264 8.25871C20.3886 8.60029 19.8784 8.83704 19.3349 8.95078C18.7914 9.06452 18.2291 9.05222 17.6911 8.91484C17.63 8.89912 17.5659 8.89953 17.5051 8.91601C17.4442 8.9325 17.3887 8.96451 17.344 9.0089L9.05953 17.2952ZM18.438 21.5282L14.3367 17.4269C14.5148 17.2078 14.6053 16.9304 14.5904 16.6484C14.5756 16.3664 14.4566 16.1 14.2565 15.9008C14.0563 15.7016 13.7893 15.5838 13.5073 15.5704C13.2252 15.5569 12.9482 15.6486 12.73 15.8278L12.144 15.237L15.283 12.1027L15.8671 12.686C15.6831 12.9042 15.5877 13.1836 15.5998 13.4688C15.612 13.754 15.7308 14.0243 15.9327 14.2261C16.1346 14.4279 16.4049 14.5465 16.6902 14.5585C16.9754 14.5705 17.2547 14.4749 17.4728 14.2907L21.5713 18.392C21.6155 18.4362 21.6569 18.4861 21.6974 18.5313L18.5753 21.6533C18.5292 21.6129 18.4822 21.5715 18.438 21.5263V21.5282ZM20.7896 22.0362C20.2876 22.2255 19.7339 22.2255 19.2319 22.0362L22.083 19.1841C22.289 19.7339 22.2682 20.3431 22.0251 20.8776C21.782 21.4121 21.3366 21.8282 20.7868 22.0343L20.7896 22.0362Z" fill="#574FF7" stroke="#574FF7" stroke-width="0.35"/>
</svg>
