<svg width="24" height="19" viewBox="0 0 24 19" fill="none" xmlns="http://www.w3.org/2000/svg">
<path d="M20.4579 4.0323H12.1165C12.0714 4.0323 12.0365 4.05621 12.013 4.0813C11.9894 4.10656 11.9712 4.13915 11.9574 4.17353C11.9295 4.24273 11.9133 4.3337 11.9133 4.43161C11.9133 4.52826 11.9272 4.61914 11.9542 4.68871C11.9676 4.72333 11.9857 4.75668 12.0104 4.78253C12.0358 4.80905 12.0716 4.83091 12.1165 4.83091H20.4504C20.4955 4.83091 20.5304 4.80701 20.5539 4.78191C20.5775 4.75665 20.5957 4.72406 20.6095 4.68968C20.6374 4.62048 20.6536 4.52951 20.6536 4.43161C20.6536 4.33483 20.6396 4.24444 20.614 4.17549C20.6014 4.14128 20.5843 4.10834 20.5614 4.08262C20.5384 4.05676 20.5036 4.0323 20.4579 4.0323Z" fill="#0098CF" stroke="#0098CF" stroke-width="0.15"/>
<path d="M20.4579 6.08369H12.1165C12.0714 6.08369 12.0365 6.1076 12.013 6.13269C11.9894 6.15795 11.9712 6.19055 11.9574 6.22492C11.9295 6.29413 11.9133 6.38509 11.9133 6.483C11.9133 6.57965 11.9272 6.67053 11.9542 6.7401C11.9676 6.77472 11.9857 6.80807 12.0104 6.83393C12.0358 6.86044 12.0716 6.8823 12.1165 6.8823H20.4504C20.4955 6.8823 20.5304 6.8584 20.5539 6.8333C20.5775 6.80804 20.5957 6.77545 20.6095 6.74108C20.6374 6.67187 20.6536 6.5809 20.6536 6.483C20.6536 6.38622 20.6396 6.29584 20.614 6.22688C20.6014 6.19267 20.5843 6.15973 20.5614 6.13401C20.5384 6.10816 20.5036 6.08369 20.4579 6.08369Z" fill="#0098CF" stroke="#0098CF" stroke-width="0.15"/>
<path d="M20.4579 8.12758H12.1165C12.0714 8.12758 12.0365 8.15148 12.013 8.17658C11.9894 8.20184 11.9712 8.23443 11.9574 8.2688C11.9295 8.33801 11.9133 8.42898 11.9133 8.52688C11.9133 8.62354 11.9272 8.71441 11.9542 8.78399C11.9676 8.81861 11.9857 8.85195 12.0104 8.87781C12.0358 8.90432 12.0716 8.92619 12.1165 8.92619H20.4504C20.4955 8.92619 20.5304 8.90228 20.5539 8.87719C20.5775 8.85192 20.5957 8.81933 20.6095 8.78496C20.6374 8.71575 20.6536 8.62479 20.6536 8.52688C20.6536 8.43011 20.6396 8.33972 20.614 8.27077C20.6014 8.23655 20.5843 8.20361 20.5614 8.17789C20.5384 8.15204 20.5036 8.12758 20.4579 8.12758Z" fill="#0098CF" stroke="#0098CF" stroke-width="0.15"/>
<path d="M1.3244 4.47644L1.32452 4.47644C1.43006 4.47571 1.53107 4.43346 1.6057 4.35883C1.68033 4.2842 1.72258 4.18319 1.72331 4.07765V4.07713V1.95811C1.72383 1.89208 1.75029 1.8289 1.79698 1.7822C1.84368 1.73551 1.90686 1.70905 1.97289 1.70853H22.0265C22.0925 1.70905 22.1557 1.73551 22.2024 1.7822L22.2554 1.72917L22.2024 1.7822C22.2491 1.82889 22.2756 1.89207 22.2761 1.95809C22.2761 1.95818 22.2761 1.95826 22.2761 1.95835L22.2761 11.7473C22.2761 11.8532 22.3182 11.9548 22.393 12.0297C22.4679 12.1046 22.5695 12.1466 22.6754 12.1466C22.7813 12.1466 22.8829 12.1046 22.9577 12.0297C23.0326 11.9548 23.0747 11.8532 23.0747 11.7473V1.96538V1.96526C23.0743 1.6895 22.9645 1.42515 22.7695 1.23016C22.5745 1.03517 22.3102 0.92543 22.0344 0.925H22.0343L1.98016 0.925L1.98004 0.925C1.70428 0.92543 1.43993 1.03517 1.24494 1.23016C1.04995 1.42515 0.940212 1.6895 0.939782 1.96526V1.96538V4.08363C0.938436 4.1346 0.947288 4.18532 0.96582 4.23282C0.984493 4.28069 1.01261 4.32431 1.0485 4.36107C1.08439 4.39783 1.12732 4.427 1.17472 4.44682C1.22212 4.46664 1.27303 4.47671 1.3244 4.47644Z" fill="#0098CF" stroke="#0098CF" stroke-width="0.15"/>
<path d="M22.0272 18.678H22.0271H1.97298H1.97292H22.0272ZM22.0272 18.678C22.303 18.6776 22.5673 18.5678 22.7623 18.3728C22.9573 18.1778 23.067 17.9135 23.0675 17.6377V17.6376V13.037C23.0675 12.9311 23.0254 12.8295 22.9505 12.7547C22.8756 12.6798 22.7741 12.6377 22.6682 12.6377C22.5622 12.6377 22.4607 12.6798 22.3858 12.7547C22.3109 12.8295 22.2688 12.9311 22.2688 13.037V14.6665H1.72361M22.0272 18.678L1.72361 14.7415V14.6665M1.72361 5.36705C1.72395 5.31453 1.71386 5.26247 1.69393 5.21388C1.67397 5.1652 1.64453 5.12097 1.60733 5.08377C1.57013 5.04657 1.5259 5.01713 1.47722 4.99717C1.42855 4.97721 1.37639 4.96712 1.32379 4.96749L1.64861 5.36679M1.72361 5.36705C1.72361 5.36714 1.72361 5.36723 1.72361 5.36732L1.64861 5.36679M1.72361 5.36705V5.36679H1.64861M1.72361 5.36705V14.6665M1.64861 5.36679V14.6665H1.72361M1.72361 15.4651H22.2764L22.2764 17.6371C22.2764 17.6372 22.2764 17.6373 22.2764 17.6374C22.2759 17.7034 22.2494 17.7666 22.2027 17.8132C22.156 17.8599 22.0928 17.8864 22.0268 17.8869H1.97318C1.90715 17.8864 1.84398 17.8599 1.79729 17.8133C1.75059 17.7666 1.72413 17.7034 1.72361 17.6373V15.4651Z" fill="#0098CF" stroke="#0098CF" stroke-width="0.15"/>
<path d="M22.6606 12.1467L22.6611 12.1467L22.6606 11.423V11.348H22.6604H1.32431C1.2184 11.348 1.11684 11.3901 1.04195 11.465C0.96707 11.5399 0.925 11.6414 0.925 11.7473C0.925 11.8533 0.96707 11.9548 1.04195 12.0297C1.11684 12.1046 1.2184 12.1467 1.32431 12.1467L22.6606 12.1467Z" fill="#0098CF" stroke="#0098CF" stroke-width="0.15"/>
<path d="M9.67369 3.67026H9.67415C9.75777 3.67078 9.83781 3.70422 9.89694 3.76335C9.95606 3.82248 9.98951 3.90252 9.99003 3.98614L9.99003 3.9866L9.99003 9.83117V9.83165L9.67369 3.67026ZM9.67369 3.67026H4.00255H9.67369ZM3.77751 10.0562L3.77751 10.0562C3.74794 10.0267 3.72459 9.99148 3.70884 9.95274C3.69314 9.91417 3.6853 9.87285 3.68576 9.8312M3.77751 10.0562L3.76076 3.9866H3.68576V3.98705V9.8312M3.77751 10.0562C3.80708 10.0858 3.84227 10.1092 3.88101 10.1249C3.9196 10.1406 3.96093 10.1485 4.00258 10.148M3.77751 10.0562L4.00258 10.148M3.68576 9.8312C3.68576 9.83103 3.68577 9.83086 3.68577 9.83069L3.76076 9.83165H3.68576V9.8312ZM4.00258 10.148H4.00211V10.073L4.00306 10.148L4.00258 10.148ZM4.00258 10.148H9.67321H9.67369V10.073C9.70549 10.0734 9.73706 10.0674 9.76652 10.0554C9.79599 10.0435 9.82275 10.0257 9.84524 10.0032L4.00258 10.148ZM7.18155 8.89232L7.78218 8.18814L8.97728 9.51531H4.63158L5.90208 7.75822L6.6862 8.86439L6.68532 8.86502L6.69436 8.87406L6.69929 8.87899C6.75443 8.94543 6.83242 8.98893 6.91803 9.00089L6.91793 9.00161H6.9284H6.94218C6.98562 9.003 7.02883 8.99473 7.0687 8.9774C7.10813 8.96026 7.1433 8.93467 7.17175 8.90246L7.17752 8.89668L7.17769 8.89685L7.18155 8.89232ZM7.77596 7.39606L7.77588 7.39606C7.73195 7.39443 7.68821 7.40268 7.64789 7.42021C7.60846 7.43736 7.57328 7.46295 7.54484 7.49516L7.53906 7.50093L7.53888 7.50076L7.53491 7.50544L6.96392 8.17839L6.15999 7.04302L6.16088 7.04239L6.15181 7.03333L6.1486 7.03012C6.12099 6.9925 6.0851 6.96168 6.04366 6.94009C6.00013 6.9174 5.95177 6.90556 5.90269 6.90556C5.8536 6.90556 5.80525 6.9174 5.76172 6.94009C5.71842 6.96265 5.68117 6.99528 5.6531 7.03523L4.31845 8.86952V4.30295H9.36488V9.01022L8.00232 7.49625L8.0024 7.49617L7.99943 7.49322C7.93976 7.43394 7.86 7.39926 7.77596 7.39606Z" fill="#0098CF" stroke="#0098CF" stroke-width="0.15"/>
<path d="M8.61659 5.54051V5.54026C8.61659 5.38969 8.57194 5.2425 8.48828 5.1173C8.40463 4.9921 8.28573 4.89452 8.14661 4.8369C8.0075 4.77927 7.85442 4.7642 7.70674 4.79357C7.55906 4.82295 7.4234 4.89546 7.31693 5.00193C7.21046 5.1084 7.13795 5.24406 7.10857 5.39174C7.0792 5.53942 7.09428 5.6925 7.1519 5.83161C7.20952 5.97072 7.3071 6.08963 7.4323 6.17328C7.5575 6.25694 7.70469 6.30159 7.85527 6.30159L7.85551 6.30159C8.05716 6.30092 8.25036 6.22053 8.39294 6.07794C8.53553 5.93535 8.61593 5.74216 8.61659 5.54051ZM7.85527 5.67644C7.82833 5.67644 7.80201 5.66845 7.77961 5.65349C7.75722 5.63853 7.73976 5.61726 7.72946 5.59238C7.71915 5.56749 7.71645 5.54011 7.72171 5.5137C7.72696 5.48728 7.73993 5.46302 7.75898 5.44397C7.77802 5.42493 7.80228 5.41196 7.8287 5.40671C7.85512 5.40145 7.8825 5.40415 7.90738 5.41445C7.93226 5.42476 7.95353 5.44222 7.96849 5.46461C7.98346 5.487 7.99144 5.51333 7.99144 5.54026C7.99144 5.57638 7.9771 5.61102 7.95156 5.63656C7.92602 5.66209 7.89138 5.67644 7.85527 5.67644Z" fill="#0098CF" stroke="#0098CF" stroke-width="0.15"/>
</svg>
