<svg width="24" height="24" viewBox="0 0 24 24" fill="none" xmlns="http://www.w3.org/2000/svg">
<path d="M3.78427 17.8618L3.78427 17.8618C3.86598 17.9772 3.95273 18.088 4.04054 18.199C4.05141 18.2127 4.0623 18.2265 4.0732 18.2402C4.14968 18.3368 4.22661 18.4339 4.29981 18.5329C4.37759 18.6302 4.41501 18.7537 4.40431 18.8779C4.39357 19.0025 4.33518 19.1182 4.24131 19.2009C4.15484 19.278 4.04243 19.3196 3.92659 19.3173L3.92592 19.3173L3.92592 19.3173C3.85741 19.3154 3.79009 19.2989 3.72839 19.2691C3.66669 19.2392 3.61203 19.1966 3.56799 19.1441L3.56785 19.1439C3.37207 18.909 3.17563 18.6635 2.9985 18.4175L2.99718 18.4157L2.99721 18.4156C2.92645 18.3109 2.89892 18.1828 2.9204 18.0582C2.94188 17.9336 3.0107 17.8222 3.11246 17.7472L3.11782 17.7432L3.11798 17.7435C3.19997 17.6936 3.29369 17.6662 3.38965 17.6642L3.78427 17.8618ZM3.78427 17.8618L3.784 17.8614M3.78427 17.8618L3.784 17.8614M3.784 17.8614C3.73921 17.799 3.6799 17.7484 3.61119 17.7141M3.784 17.8614L3.61119 17.7141M3.61119 17.7141C3.54248 17.6797 3.46645 17.6626 3.38965 17.6642L3.61119 17.7141Z" fill="#F52A21" stroke="#F52A21" stroke-width="0.15"/>
<path d="M1.71148 15.9805C1.8198 16.266 1.94754 16.5508 2.08461 16.8348L2.08471 16.835C2.14 16.9486 2.23819 17.0357 2.35767 17.0769C2.47714 17.1182 2.60812 17.1103 2.72178 17.055C2.83545 16.9997 2.92249 16.9016 2.96377 16.7821C3.00504 16.6626 2.99716 16.5316 2.94186 16.418L2.94188 16.418L2.94124 16.4167C2.81141 16.1621 2.69524 15.9007 2.5932 15.6337C2.55963 15.5439 2.49919 15.4668 2.42012 15.4127C2.34122 15.3587 2.24761 15.3303 2.15203 15.3314C2.08965 15.3309 2.02779 15.3428 1.97004 15.3664C1.91201 15.3901 1.8593 15.4251 1.81499 15.4694C1.77067 15.5137 1.73564 15.5664 1.71194 15.6245C1.68827 15.6824 1.67638 15.7445 1.67697 15.8071C1.6773 15.8666 1.68901 15.9255 1.71148 15.9805ZM1.71148 15.9805C1.71136 15.9802 1.71124 15.9799 1.71113 15.9796L1.78125 15.953L1.71188 15.9815C1.71174 15.9812 1.71161 15.9808 1.71148 15.9805Z" fill="#F52A21" stroke="#F52A21" stroke-width="0.15"/>
<path d="M2.11792 14.0168L2.11789 14.0168C2.14017 14.1402 2.11439 14.2675 2.04583 14.3724C1.97788 14.4765 1.87302 14.5508 1.75244 14.5806C1.7197 14.5912 1.68522 14.5955 1.65086 14.5932C1.64983 14.5931 1.6488 14.593 1.64777 14.593L1.65366 14.5182C1.56129 14.5183 1.47177 14.4862 1.40052 14.4274C1.32926 14.3686 1.28072 14.2868 1.26325 14.1961L2.11792 14.0168ZM2.11792 14.0168L2.11741 14.0145C2.06591 13.7741 2.02965 13.5183 1.99465 13.2714C1.99035 13.2411 1.98608 13.211 1.98179 13.181L2.11792 14.0168Z" fill="#F52A21" stroke="#F52A21" stroke-width="0.15"/>
<path d="M6.93772 21.5172L6.93769 21.5172L6.93777 21.5192C6.93966 21.5706 6.94695 21.6216 6.95951 21.6714L6.95939 21.6714L6.96065 21.6755C6.9796 21.7361 7.01161 21.7918 7.05441 21.8386C7.09661 21.8849 7.14829 21.9214 7.2059 21.9458C7.48127 22.0833 7.76582 22.201 8.05791 22.3179C8.1155 22.342 8.17729 22.3546 8.23975 22.355C8.30244 22.3554 8.3646 22.3434 8.42266 22.3197C8.48073 22.2961 8.53356 22.2612 8.57815 22.2171C8.62274 22.1731 8.65822 22.1206 8.68255 22.0628C8.70688 22.0051 8.71959 21.943 8.71995 21.8804C8.72032 21.8177 8.70833 21.7555 8.68467 21.6974C8.66102 21.6394 8.62616 21.5865 8.58208 21.5419C8.53801 21.4974 8.48558 21.4619 8.4278 21.4376L8.42333 21.4357C8.41818 21.4327 8.41155 21.4295 8.40344 21.4269C8.39762 21.4251 8.39177 21.4238 8.38595 21.423C8.1257 21.3252 7.87087 21.2135 7.62253 21.0884C7.55744 21.0551 7.48497 21.0389 7.41192 21.0412C7.34983 21.0409 7.28827 21.0527 7.23078 21.0762C7.17276 21.0999 7.12005 21.135 7.07573 21.1793C7.03141 21.2236 6.99638 21.2763 6.97268 21.3343C6.94898 21.3923 6.9371 21.4545 6.93772 21.5172Z" fill="#F52A21" stroke="#F52A21" stroke-width="0.15"/>
<path d="M5.49964 19.7124L5.49977 19.7122L5.49554 19.7091C5.39505 19.6339 5.26947 19.6004 5.1449 19.6154C5.02032 19.6304 4.90632 19.6929 4.8266 19.7898L4.82659 19.7898L4.82579 19.7908C4.75136 19.8845 4.71588 20.0033 4.72672 20.1224C4.73755 20.2416 4.79387 20.352 4.88397 20.4307L4.88396 20.4308L4.88531 20.4319C5.12124 20.6285 5.36665 20.815 5.6211 21.0009L5.62108 21.001L5.6229 21.0022C5.70444 21.0582 5.80168 21.0867 5.90051 21.0837C5.96262 21.0841 6.0242 21.0722 6.08172 21.0487C6.13974 21.025 6.19245 20.99 6.23677 20.9457C6.28108 20.9014 6.31612 20.8487 6.33981 20.7906C6.36351 20.7326 6.3754 20.6705 6.37478 20.6078L6.3748 20.6078L6.37473 20.6059C6.37209 20.5316 6.35169 20.459 6.31526 20.3942C6.27917 20.3301 6.22839 20.2754 6.16709 20.2347C5.9431 20.0691 5.7115 19.8953 5.49964 19.7124Z" fill="#F52A21" stroke="#F52A21" stroke-width="0.15"/>
<path d="M9.45533 22.3554C9.45377 22.4511 9.4824 22.5448 9.53717 22.6232L9.59866 22.5803L9.53677 22.6226C9.6073 22.7256 9.71332 22.799 9.83456 22.8288L9.83454 22.8289L11.2841 22.5112C11.2841 22.5112 11.2841 22.5112 11.2841 22.5112C11.2831 22.4034 11.2471 22.2988 11.1814 22.2133C11.1435 22.161 11.0949 22.1174 11.0388 22.0853C10.9826 22.0532 10.9201 22.0334 10.8556 22.0274C10.5775 21.9965 10.3012 21.9516 10.0277 21.8927C9.99564 21.883 9.96216 21.8789 9.92872 21.8806C9.86691 21.8803 9.80564 21.8922 9.7484 21.9156C9.69038 21.9392 9.63767 21.9743 9.59335 22.0186C9.54904 22.0629 9.514 22.1156 9.49031 22.1736C9.46674 22.2313 9.45486 22.2931 9.45533 22.3554ZM9.45533 22.3554C9.45534 22.3551 9.45535 22.3547 9.45535 22.3544L9.53034 22.3558L9.45534 22.3565C9.45534 22.3561 9.45534 22.3558 9.45533 22.3554Z" fill="#F52A21" stroke="#F52A21" stroke-width="0.15"/>
<path d="M0.925 11.9999V12V12.449V12.524H1H1.8882H1.9632V12.449V12C1.9632 10.0149 2.55185 8.0744 3.6547 6.42385C4.75756 4.77331 6.3251 3.48687 8.15908 2.7272C9.99307 1.96754 12.0111 1.76878 13.9581 2.15605C15.905 2.54333 17.6934 3.49924 19.0971 4.90291C20.5008 6.30658 21.4567 8.09497 21.8439 10.0419C22.2312 11.9889 22.0325 14.0069 21.2728 15.8409C20.5131 17.6749 19.2267 19.2424 17.5761 20.3453C15.9256 21.4482 13.9851 22.0368 12 22.0368H11.551H11.476V22.1118V23V23.075H11.551H12C14.9373 23.075 17.7542 21.9082 19.8312 19.8312C21.9082 17.7542 23.075 14.9373 23.075 12C23.075 9.06273 21.9082 6.24576 19.8312 4.16879C17.7542 2.09183 14.9373 0.925 12 0.925L11.9999 0.925L11.925 0.925V0.925332C9.01578 0.948059 6.23083 2.11361 4.17222 4.17222C2.09594 6.24849 0.928122 9.06363 0.925 11.9999Z" fill="#F52A21" stroke="#F52A21" stroke-width="0.15"/>
<path d="M6.34443 16.7783L6.29139 16.8314L6.34443 16.8844L6.93005 17.47L6.98309 17.5231L7.03612 17.47L12.2775 12.2287L12.2994 12.2067V12.1756V6.30963V6.23463H12.2244H11.3948H11.3198V6.30963V11.803L6.34443 16.7783Z" fill="#F52A21" stroke="#F52A21" stroke-width="0.15"/>
</svg>
